<svg width="56" height="28" viewBox="0 0 56 28" fill="none" xmlns="http://www.w3.org/2000/svg" xmlns:xlink="http://www.w3.org/1999/xlink">
<rect  x="0.889" y="0.971" width="47.556" height="24.144" rx="6.219" stroke="#919194" stroke-width="1.097" stroke-miterlimit="3.999327"/>
<rect  x="5.278" y="5.361" width="24.875" height="17.559" rx="3.658" fill="#000000"/>
<path d="M52.834,18.53C53.218,18.53 53.599,18.416 53.954,18.196C54.309,17.975 54.631,17.652 54.903,17.244C55.175,16.837 55.39,16.353 55.537,15.82C55.685,15.287 55.76,14.717 55.76,14.14C55.76,13.564 55.685,12.993 55.537,12.46C55.39,11.928 55.175,11.444 54.903,11.036C54.631,10.629 54.309,10.305 53.954,10.085C53.599,9.864 53.218,9.75 52.834,9.75L52.834,14.14L52.834,18.53Z" fill="#79797B"/>
</svg>
