<svg width="52" height="28" viewBox="0 0 52 28" fill="none" xmlns="http://www.w3.org/2000/svg" xmlns:xlink="http://www.w3.org/1999/xlink">
<path d="M48.226,9.833L48.226,9.833C49.324,9.833 50.214,10.724 50.214,11.822L50.214,15.798C50.214,16.896 49.324,17.786 48.226,17.786L48.226,17.786L48.226,9.833Z" fill="#000000" fill-opacity="0.6"/>
<path d="M6.476,1.881L40.273,1.881C43.567,1.881 46.238,4.551 46.238,7.845L46.238,19.774C46.238,23.068 43.567,25.738 40.273,25.738L6.476,25.738C3.182,25.738 0.511,23.068 0.511,19.774L0.511,7.845C0.511,4.551 3.182,1.881 6.476,1.881ZM6.476,3.869C4.28,3.869 2.499,5.649 2.499,7.845L2.499,19.774C2.499,21.97 4.28,23.75 6.476,23.75L40.273,23.75C42.469,23.75 44.25,21.97 44.25,19.774L44.25,7.845C44.25,5.649 42.469,3.869 40.273,3.869L6.476,3.869Z" clip-rule="evenodd" fill-rule="evenodd" fill="#000000" fill-opacity="0.6"/>
<rect  x="4.488" y="5.857" width="37.774" height="15.905" rx="1.988" fill="#000000"/>
</svg>
