<svg width="42" height="28" viewBox="0 0 42 28" fill="none" xmlns="http://www.w3.org/2000/svg" xmlns:xlink="http://www.w3.org/1999/xlink">
<path d="M8,8L15.5,8L15.5,20L8,20L8,8ZM16.75,8L24.25,8L24.25,20L16.75,20L16.75,8ZM25.5,8L33,8L33,20L25.5,20L25.5,8Z" fill="#000000"/>
<path d="M33,0.8L8,0.8C6.011,0.8 4.103,1.559 2.697,2.909C1.29,4.259 0.5,6.09 0.5,8L0.5,20C0.5,21.91 1.29,23.741 2.697,25.091C4.103,26.441 6.011,27.2 8,27.2L33,27.2C34.989,27.2 36.897,26.441 38.303,25.091C39.71,23.741 40.5,21.91 40.5,20L40.5,8C40.5,6.09 39.71,4.259 38.303,2.909C36.897,1.559 34.989,0.8 33,0.8ZM5.5,8C5.5,7.363 5.763,6.753 6.232,6.303C6.701,5.853 7.337,5.6 8,5.6L33,5.6C33.663,5.6 34.299,5.853 34.768,6.303C35.237,6.753 35.5,7.363 35.5,8L35.5,20C35.5,20.637 35.237,21.247 34.768,21.697C34.299,22.147 33.663,22.4 33,22.4L8,22.4C7.337,22.4 6.701,22.147 6.232,21.697C5.763,21.247 5.5,20.637 5.5,20L5.5,8Z" clip-rule="evenodd" fill-rule="evenodd" fill="#000000"/>
</svg>
