<svg width="334" height="342" viewBox="0 0 334 342" fill="none" xmlns="http://www.w3.org/2000/svg" xmlns:xlink="http://www.w3.org/1999/xlink">
<path d="M332.518,169.839C332.518,263.891 258.224,340.135 166.577,340.135C74.931,340.135 0.638,263.891 0.638,169.839C0.638,75.786 74.931,-0.459 166.577,-0.459C258.224,-0.459 332.518,75.786 332.518,169.839Z" fill="url(#pattern_0_2242_1967)"/>
<path d="M271.333,287.667C271.333,286.195 272.435,285 273.795,285L290.205,285C291.565,285 292.667,286.195 292.667,287.667C292.667,289.139 291.565,290.333 290.205,290.333L273.795,290.333C272.435,290.333 271.333,289.139 271.333,287.667ZM276.075,333L287.925,333C296.248,333 300.411,333 303.4,331.075C304.686,330.248 305.797,329.176 306.669,327.92C308.667,325.04 308.667,321.027 308.667,313C308.667,304.973 308.667,300.963 306.667,298.08C305.795,296.824 304.685,295.752 303.4,294.925C300.411,293 296.248,293 287.925,293L276.075,293C267.752,293 263.589,293 260.6,294.925C259.315,295.752 258.205,296.824 257.333,298.08C255.333,300.96 255.333,304.973 255.333,312.995L255.333,313C255.333,321.027 255.333,325.037 257.331,327.92C258.195,329.168 259.304,330.24 260.6,331.075C263.589,333 267.752,333 276.075,333ZM270.888,313C270.888,307.08 275.864,302.285 282,302.285C288.136,302.285 293.112,307.083 293.112,313C293.112,318.917 288.133,323.715 282,323.715C275.864,323.715 270.888,318.915 270.888,313ZM275.333,313C275.333,309.448 278.32,306.573 282,306.573C285.68,306.573 288.667,309.451 288.667,313C288.667,316.549 285.68,319.427 282,319.427C278.32,319.427 275.333,316.549 275.333,313ZM298.296,302.285C297.069,302.285 296.075,303.245 296.075,304.429C296.075,305.611 297.069,306.571 298.296,306.571L299.779,306.571C301.005,306.571 302,305.611 302,304.429C302,303.245 301.005,302.285 299.779,302.285L298.296,302.285Z" clip-rule="evenodd" fill-rule="evenodd" fill="#70E000" fill-opacity="0.5"/>
</svg>
