<svg width="48" height="48" viewBox="0 0 48 48" fill="none" xmlns="http://www.w3.org/2000/svg" xmlns:xlink="http://www.w3.org/1999/xlink">
<path d="M38.863,28.678L37.481,29.26L38.863,28.678ZM9.137,28.678L10.519,29.26L9.137,28.678ZM19.5,35C19.5,34.172 18.829,33.5 18,33.5C17.172,33.5 16.5,34.172 16.5,35L19.5,35ZM31.5,35C31.5,34.172 30.828,33.5 30,33.5C29.172,33.5 28.5,34.172 28.5,35L31.5,35ZM13.5,17C13.5,14.142 14.635,12.085 16.43,10.703C18.271,9.286 20.919,8.5 24,8.5L24,5.5C20.453,5.5 17.102,6.4 14.6,8.326C12.051,10.288 10.5,13.231 10.5,17L13.5,17ZM24,8.5C27.081,8.5 29.729,9.286 31.57,10.703C33.365,12.085 34.5,14.142 34.5,17L37.5,17C37.5,13.231 35.949,10.288 33.4,8.326C30.898,6.4 27.547,5.5 24,5.5L24,8.5ZM10.5,17C10.5,20.572 9.186,24.696 7.754,28.096L10.519,29.26C11.994,25.757 13.5,21.184 13.5,17L10.5,17ZM13.065,36.5L34.935,36.5L34.935,33.5L13.065,33.5L13.065,36.5ZM40.246,28.096C38.814,24.696 37.5,20.572 37.5,17L34.5,17C34.5,21.184 36.006,25.757 37.481,29.26L40.246,28.096ZM34.935,36.5C39.257,36.5 41.813,31.817 40.246,28.096L37.481,29.26C38.327,31.269 36.831,33.5 34.935,33.5L34.935,36.5ZM7.754,28.096C6.188,31.817 8.743,36.5 13.065,36.5L13.065,33.5C11.169,33.5 9.673,31.269 10.519,29.26L7.754,28.096ZM28.5,37C28.5,38.202 28.037,39.008 27.328,39.554C26.573,40.135 25.424,40.5 24,40.5L24,43.5C25.89,43.5 27.741,43.021 29.158,41.931C30.62,40.805 31.5,39.112 31.5,37L28.5,37ZM24,40.5C22.576,40.5 21.428,40.135 20.672,39.554C19.964,39.008 19.5,38.202 19.5,37L16.5,37C16.5,39.112 17.38,40.805 18.843,41.931C20.259,43.021 22.11,43.5 24,43.5L24,40.5ZM19.5,37L19.5,35L16.5,35L16.5,37L19.5,37ZM31.5,37L31.5,35L28.5,35L28.5,37L31.5,37Z" fill="#000B23"/>
<circle cx="35" cy="11" r="7" fill="#FFB057"/>
</svg>
