<svg width="58" height="22" viewBox="0 0 58 22" fill="none" xmlns="http://www.w3.org/2000/svg" xmlns:xlink="http://www.w3.org/1999/xlink">
<path d="M7.439,21.915C12.783,21.915 15.957,17.736 15.957,10.659C15.957,7.994 15.447,5.752 14.472,4.019C13.059,1.325 10.627,-0.131 7.555,-0.131C2.983,-0.131 -0.25,2.942 -0.25,7.252C-0.25,11.3 2.662,14.241 6.667,14.241C9.128,14.241 11.123,13.091 12.113,11.096L12.156,11.096C12.156,11.096 12.215,11.096 12.229,11.096C12.258,11.096 12.36,11.096 12.36,11.096C12.36,15.901 10.54,18.77 7.468,18.77C5.662,18.77 4.264,17.78 3.784,16.192L0.041,16.192C0.667,19.643 3.594,21.915 7.439,21.915ZM7.57,11.256C5.152,11.256 3.434,9.538 3.434,7.135C3.434,4.791 5.24,3 7.584,3C9.928,3 11.734,4.82 11.734,7.193C11.734,9.538 9.972,11.256 7.57,11.256Z" fill="#000000"/>
<path d="M22.102,21.711C23.486,21.711 24.432,20.721 24.432,19.41C24.432,18.085 23.486,17.11 22.102,17.11C20.734,17.11 19.773,18.085 19.773,19.41C19.773,20.721 20.734,21.711 22.102,21.711ZM22.102,10.79C23.486,10.79 24.432,9.815 24.432,8.504C24.432,7.179 23.486,6.203 22.102,6.203C20.734,6.203 19.773,7.179 19.773,8.504C19.773,9.815 20.734,10.79 22.102,10.79Z" fill="#000000"/>
<path d="M38.062,21.405L41.659,21.405L41.659,17.488L44.498,17.488L44.498,14.314L41.659,14.314L41.659,0.393L36.359,0.393C32.645,5.985 29.689,10.659 27.796,14.139L27.796,17.488L38.062,17.488L38.062,21.405ZM31.277,14.183C33.723,9.873 35.907,6.422 37.917,3.451L38.12,3.451L38.12,14.401L31.277,14.401L31.277,14.183Z" fill="#000000"/>
<path d="M52.508,21.405L56.264,21.405L56.264,0.393L52.522,0.393L47.033,4.238L47.033,7.849L52.26,4.179L52.508,4.179L52.508,21.405Z" fill="#000000"/>
</svg>
