<svg width="40" height="28" viewBox="0 0 40 28" fill="none" xmlns="http://www.w3.org/2000/svg" xmlns:xlink="http://www.w3.org/1999/xlink">
<path d="M22.892,7.845L24.88,7.845C25.978,7.845 26.868,8.736 26.868,9.834L26.868,21.762C26.868,22.86 25.978,23.75 24.88,23.75L22.892,23.75C21.794,23.75 20.904,22.86 20.904,21.762L20.904,9.834C20.904,8.736 21.794,7.845 22.892,7.845Z" clip-rule="evenodd" fill-rule="evenodd" fill="#000000"/>
<path d="M13.946,11.822L15.934,11.822C17.032,11.822 17.922,12.712 17.922,13.81L17.922,21.762C17.922,22.86 17.032,23.75 15.934,23.75L13.946,23.75C12.848,23.75 11.958,22.86 11.958,21.762L11.958,13.81C11.958,12.712 12.848,11.822 13.946,11.822Z" clip-rule="evenodd" fill-rule="evenodd" fill="#000000"/>
<path d="M4.999,14.804L6.987,14.804C8.085,14.804 8.975,15.694 8.975,16.792L8.975,21.762C8.975,22.86 8.085,23.75 6.987,23.75L4.999,23.75C3.901,23.75 3.011,22.86 3.011,21.762L3.011,16.792C3.011,15.694 3.901,14.804 4.999,14.804Z" clip-rule="evenodd" fill-rule="evenodd" fill="#000000"/>
<path d="M31.838,3.869L33.827,3.869C34.925,3.869 35.815,4.759 35.815,5.857L35.815,21.762C35.815,22.86 34.925,23.75 33.827,23.75L31.838,23.75C30.74,23.75 29.85,22.86 29.85,21.762L29.85,5.857C29.85,4.759 30.74,3.869 31.838,3.869Z" clip-rule="evenodd" fill-rule="evenodd" fill="#000000" fill-opacity="0.18"/>
<path d="M22.892,7.845L24.88,7.845C25.978,7.845 26.868,8.736 26.868,9.834L26.868,21.762C26.868,22.86 25.978,23.75 24.88,23.75L22.892,23.75C21.794,23.75 20.904,22.86 20.904,21.762L20.904,9.834C20.904,8.736 21.794,7.845 22.892,7.845Z" clip-rule="evenodd" fill-rule="evenodd" fill="#000000"/>
<path d="M13.946,11.822L15.934,11.822C17.032,11.822 17.922,12.712 17.922,13.81L17.922,21.762C17.922,22.86 17.032,23.75 15.934,23.75L13.946,23.75C12.848,23.75 11.958,22.86 11.958,21.762L11.958,13.81C11.958,12.712 12.848,11.822 13.946,11.822Z" clip-rule="evenodd" fill-rule="evenodd" fill="#000000"/>
<path d="M4.999,14.804L6.987,14.804C8.085,14.804 8.975,15.694 8.975,16.792L8.975,21.762C8.975,22.86 8.085,23.75 6.987,23.75L4.999,23.75C3.901,23.75 3.011,22.86 3.011,21.762L3.011,16.792C3.011,15.694 3.901,14.804 4.999,14.804Z" clip-rule="evenodd" fill-rule="evenodd" fill="#000000"/>
</svg>
