<svg width="122" height="96" viewBox="0 0 122 96" fill="none" xmlns="http://www.w3.org/2000/svg" xmlns:xlink="http://www.w3.org/1999/xlink">
<path d="M100.548,37.76L91.195,17.76C90.605,16.384 89.485,15.187 87.991,14.334C86.497,13.481 84.704,13.015 82.858,13L39.142,13C37.321,13.003 35.545,13.446 34.054,14.269C32.563,15.091 31.429,16.254 30.805,17.6L21.452,37.6C19.951,38.165 18.68,39.049 17.782,40.151C16.884,41.253 16.394,42.531 16.368,43.84L16.368,61.84C16.339,63.01 16.688,64.167 17.381,65.202C18.074,66.238 19.09,67.118 20.333,67.76C20.333,67.76 20.333,68 20.333,68L20.333,76C20.333,77.061 20.869,78.078 21.822,78.828C22.776,79.579 24.068,80 25.417,80L30.5,80C31.848,80 33.141,79.579 34.094,78.828C35.048,78.078 35.583,77.061 35.583,76L35.583,69L86.417,69L86.417,76C86.417,77.061 86.952,78.078 87.906,78.828C88.859,79.579 90.152,80 91.5,80L96.583,80C97.931,80 99.224,79.579 100.178,78.828C101.131,78.078 101.667,77.061 101.667,76L101.667,67.76C102.862,67.123 103.84,66.265 104.513,65.26C105.187,64.255 105.536,63.136 105.53,62L105.53,44C105.513,42.699 105.039,41.428 104.16,40.326C103.28,39.225 102.03,38.336 100.548,37.76ZM97.854,62C97.854,62.265 97.72,62.52 97.482,62.707C97.244,62.895 96.92,63 96.583,63L25.417,63C25.08,63 24.756,62.895 24.518,62.707C24.28,62.52 24.146,62.265 24.146,62L24.146,44C24.146,43.735 24.28,43.48 24.518,43.293C24.756,43.105 25.08,43 25.417,43L96.583,43C96.92,43 97.244,43.105 97.482,43.293C97.72,43.48 97.854,43.735 97.854,44L97.854,62ZM37.972,19.64C38.064,19.454 38.224,19.293 38.432,19.179C38.641,19.065 38.888,19.003 39.142,19L82.858,19C83.112,19.003 83.359,19.065 83.568,19.179C83.776,19.293 83.936,19.454 84.027,19.64L91.144,35L30.856,35L37.972,19.64Z" fill="#FFFFFF"/>
<path d="M40.667,59C44.878,59 48.292,56.314 48.292,53C48.292,49.686 44.878,47 40.667,47C36.456,47 33.042,49.686 33.042,53C33.042,56.314 36.456,59 40.667,59Z" fill="#FFFFFF"/>
<path d="M81.333,59C85.544,59 88.958,56.314 88.958,53C88.958,49.686 85.544,47 81.333,47C77.122,47 73.708,49.686 73.708,53C73.708,56.314 77.122,59 81.333,59Z" fill="#FFFFFF"/>
</svg>
