<svg width="36" height="40" viewBox="0 0 36 40" fill="none" xmlns="http://www.w3.org/2000/svg" xmlns:xlink="http://www.w3.org/1999/xlink">
<path d="M2,3.5C1.172,3.5 0.5,4.172 0.5,5C0.5,5.828 1.172,6.5 2,6.5L2,3.5ZM22,5L20.5,5L22,5ZM34,6.5C34.828,6.5 35.5,5.828 35.5,5C35.5,4.172 34.828,3.5 34,3.5L34,6.5ZM2,17.5C1.172,17.5 0.5,18.172 0.5,19C0.5,19.828 1.172,20.5 2,20.5L2,17.5ZM10,33L8.5,33L10,33ZM34,34.5C34.828,34.5 35.5,33.828 35.5,33C35.5,32.172 34.828,31.5 34,31.5L34,34.5ZM6,29L6,27.5L6,29ZM6,37L6,35.5L6,37ZM2,33L0.5,33L2,33ZM30,15L30,13.5L30,15ZM34,19L32.5,19L34,19ZM30,23L30,21.5L30,23ZM18,1L18,-0.5L18,1ZM18,9L18,7.5L18,9ZM2,6.5L14,6.5L14,3.5L2,3.5L2,6.5ZM22,6.5L34,6.5L34,3.5L22,3.5L22,6.5ZM2,20.5L26,20.5L26,17.5L2,17.5L2,20.5ZM10,34.5L34,34.5L34,31.5L10,31.5L10,34.5ZM6,30.5C7.381,30.5 8.5,31.619 8.5,33L11.5,33C11.5,29.962 9.038,27.5 6,27.5L6,30.5ZM8.5,33C8.5,34.381 7.381,35.5 6,35.5L6,38.5C9.038,38.5 11.5,36.038 11.5,33L8.5,33ZM6,35.5C4.619,35.5 3.5,34.381 3.5,33L0.5,33C0.5,36.038 2.962,38.5 6,38.5L6,35.5ZM3.5,33C3.5,31.619 4.619,30.5 6,30.5L6,27.5C2.962,27.5 0.5,29.962 0.5,33L3.5,33ZM30,16.5C31.381,16.5 32.5,17.619 32.5,19L35.5,19C35.5,15.962 33.038,13.5 30,13.5L30,16.5ZM32.5,19C32.5,20.381 31.381,21.5 30,21.5L30,24.5C33.038,24.5 35.5,22.038 35.5,19L32.5,19ZM30,21.5C28.619,21.5 27.5,20.381 27.5,19L24.5,19C24.5,22.038 26.962,24.5 30,24.5L30,21.5ZM27.5,19C27.5,17.619 28.619,16.5 30,16.5L30,13.5C26.962,13.5 24.5,15.962 24.5,19L27.5,19ZM18,2.5C19.381,2.5 20.5,3.619 20.5,5L23.5,5C23.5,1.962 21.038,-0.5 18,-0.5L18,2.5ZM20.5,5C20.5,6.381 19.381,7.5 18,7.5L18,10.5C21.038,10.5 23.5,8.038 23.5,5L20.5,5ZM18,7.5C16.619,7.5 15.5,6.381 15.5,5L12.5,5C12.5,8.038 14.962,10.5 18,10.5L18,7.5ZM15.5,5C15.5,3.619 16.619,2.5 18,2.5L18,-0.5C14.962,-0.5 12.5,1.962 12.5,5L15.5,5Z" fill="#000000"/>
</svg>
