<svg width="38" height="48" viewBox="0 0 38 48" fill="none" xmlns="http://www.w3.org/2000/svg" xmlns:xlink="http://www.w3.org/1999/xlink">
<path d="M11.4,22.95C10.489,22.95 9.75,23.689 9.75,24.6C9.75,25.511 10.489,26.25 11.4,26.25L11.4,22.95ZM20.2,26.25C21.111,26.25 21.85,25.511 21.85,24.6C21.85,23.689 21.111,22.95 20.2,22.95L20.2,26.25ZM11.4,31.75C10.489,31.75 9.75,32.489 9.75,33.4C9.75,34.311 10.489,35.05 11.4,35.05L11.4,31.75ZM24.6,35.05C25.511,35.05 26.25,34.311 26.25,33.4C26.25,32.489 25.511,31.75 24.6,31.75L24.6,35.05ZM11.4,2.6L11.4,0.95C10.489,0.95 9.75,1.689 9.75,2.6L11.4,2.6ZM24.6,2.6L26.25,2.6C26.25,1.689 25.511,0.95 24.6,0.95L24.6,2.6ZM24.6,9.2L24.6,10.85C25.511,10.85 26.25,10.111 26.25,9.2L24.6,9.2ZM11.4,9.2L9.75,9.2C9.75,10.111 10.489,10.85 11.4,10.85L11.4,9.2ZM11.4,26.25L20.2,26.25L20.2,22.95L11.4,22.95L11.4,26.25ZM11.4,35.05L24.6,35.05L24.6,31.75L11.4,31.75L11.4,35.05ZM11.4,4.25L24.6,4.25L24.6,0.95L11.4,0.95L11.4,4.25ZM24.6,7.55L11.4,7.55L11.4,10.85L24.6,10.85L24.6,7.55ZM22.95,2.6L22.95,5.415L26.25,5.415L26.25,2.6L22.95,2.6ZM22.95,5.415L22.95,9.2L26.25,9.2L26.25,5.415L22.95,5.415ZM13.05,9.2L13.05,5.415L9.75,5.415L9.75,9.2L13.05,9.2ZM13.05,5.415L13.05,2.6L9.75,2.6L9.75,5.415L13.05,5.415ZM18,42.75C11.813,42.75 8.343,41.591 6.286,39.122C4.146,36.554 3.15,32.149 3.15,24.6L-0.15,24.6C-0.15,32.192 0.795,37.687 3.751,41.234C6.789,44.88 11.569,46.05 18,46.05L18,42.75ZM32.85,24.6C32.85,32.149 31.854,36.554 29.714,39.122C27.657,41.591 24.187,42.75 18,42.75L18,46.05C24.431,46.05 29.211,44.88 32.249,41.234C35.205,37.687 36.15,32.192 36.15,24.6L32.85,24.6ZM24.234,7.023C27.546,7.776 29.569,9.282 30.86,11.847C32.225,14.559 32.85,18.605 32.85,24.6L36.15,24.6C36.15,18.503 35.537,13.8 33.808,10.364C32.005,6.781 29.078,4.74 24.966,3.806L24.234,7.023ZM3.15,24.6C3.15,18.605 3.775,14.559 5.14,11.847C6.431,9.282 8.454,7.776 11.766,7.023L11.034,3.806C6.922,4.74 3.995,6.781 2.192,10.364C0.463,13.8 -0.15,18.503 -0.15,24.6L3.15,24.6Z" fill="#000000"/>
</svg>
