<svg width="42" height="44" viewBox="0 0 42 44" fill="none" xmlns="http://www.w3.org/2000/svg" xmlns:xlink="http://www.w3.org/1999/xlink">
<path d="M29.25,1.5C29.25,0.589 28.511,-0.15 27.6,-0.15C26.689,-0.15 25.95,0.589 25.95,1.5L29.25,1.5ZM25.95,10.3C25.95,11.211 26.689,11.95 27.6,11.95C28.511,11.95 29.25,11.211 29.25,10.3L25.95,10.3ZM16.05,1.5C16.05,0.589 15.311,-0.15 14.4,-0.15C13.489,-0.15 12.75,0.589 12.75,1.5L16.05,1.5ZM12.75,10.3C12.75,11.211 13.489,11.95 14.4,11.95C15.311,11.95 16.05,11.211 16.05,10.3L12.75,10.3ZM39.662,21.3L41.311,21.24L41.311,21.24L39.662,21.3ZM25.95,1.5L25.95,10.3L29.25,10.3L29.25,1.5L25.95,1.5ZM12.75,1.5L12.75,10.3L16.05,10.3L16.05,1.5L12.75,1.5ZM39.662,19.65L2.338,19.65L2.338,22.95L39.662,22.95L39.662,19.65ZM21,40.55C13.911,40.55 9.842,39.433 7.454,37.046C5.067,34.659 3.95,30.589 3.95,23.5L0.65,23.5C0.65,30.711 1.733,35.991 5.121,39.379C8.509,42.767 13.789,43.85 21,43.85L21,40.55ZM38.05,23.5C38.05,30.589 36.933,34.659 34.546,37.046C32.159,39.433 28.089,40.55 21,40.55L21,43.85C28.211,43.85 33.491,42.767 36.879,39.379C40.267,35.991 41.35,30.711 41.35,23.5L38.05,23.5ZM3.95,23.5C3.95,22.757 3.962,22.044 3.987,21.36L0.689,21.24C0.663,21.968 0.65,22.721 0.65,23.5L3.95,23.5ZM3.987,21.36C4.212,15.205 5.465,11.674 7.851,9.582C10.285,7.45 14.294,6.45 21,6.45L21,3.15C14.167,3.15 9.075,4.122 5.676,7.101C2.231,10.12 0.923,14.839 0.689,21.24L3.987,21.36ZM21,6.45C27.706,6.45 31.715,7.45 34.149,9.582C36.535,11.674 37.788,15.205 38.013,21.36L41.311,21.24C41.077,14.839 39.769,10.12 36.324,7.101C32.925,4.122 27.833,3.15 21,3.15L21,6.45ZM38.013,21.36C38.038,22.044 38.05,22.757 38.05,23.5L41.35,23.5C41.35,22.721 41.337,21.968 41.311,21.24L38.013,21.36Z" fill="#000000"/>
</svg>
