<svg width="52" height="34" viewBox="0 0 52 34" fill="none" xmlns="http://www.w3.org/2000/svg" xmlns:xlink="http://www.w3.org/1999/xlink">
<path d="M41.4,19.15C40.489,19.15 39.75,19.889 39.75,20.8C39.75,21.711 40.489,22.45 41.4,22.45L41.4,19.15ZM45.8,30.15C44.889,30.15 44.15,30.889 44.15,31.8C44.15,32.711 44.889,33.45 45.8,33.45L45.8,30.15ZM37,12.55C36.089,12.55 35.35,13.289 35.35,14.2C35.35,15.111 36.089,15.85 37,15.85L37,12.55ZM37,-0.65C36.089,-0.65 35.35,0.089 35.35,1C35.35,1.911 36.089,2.65 37,2.65L37,-0.65ZM10.6,22.45C11.512,22.45 12.25,21.711 12.25,20.8C12.25,19.889 11.512,19.15 10.6,19.15L10.6,22.45ZM6.2,33.45C7.112,33.45 7.85,32.711 7.85,31.8C7.85,30.889 7.112,30.15 6.2,30.15L6.2,33.45ZM15,15.85C15.912,15.85 16.65,15.111 16.65,14.2C16.65,13.289 15.912,12.55 15,12.55L15,15.85ZM15,2.65C15.912,2.65 16.65,1.911 16.65,1C16.65,0.089 15.912,-0.65 15,-0.65L15,2.65ZM51.85,28.5C51.85,26.255 50.559,23.926 48.759,22.216C46.923,20.473 44.333,19.15 41.4,19.15L41.4,22.45C43.327,22.45 45.137,23.327 46.486,24.609C47.871,25.924 48.55,27.445 48.55,28.5L51.85,28.5ZM46.9,30.15L45.8,30.15L45.8,33.45L46.9,33.45L46.9,30.15ZM48.55,28.5C48.55,29.411 47.811,30.15 46.9,30.15L46.9,33.45C49.634,33.45 51.85,31.234 51.85,28.5L48.55,28.5ZM41.95,7.6C41.95,10.334 39.734,12.55 37,12.55L37,15.85C41.557,15.85 45.25,12.156 45.25,7.6L41.95,7.6ZM37,2.65C39.734,2.65 41.95,4.866 41.95,7.6L45.25,7.6C45.25,3.044 41.557,-0.65 37,-0.65L37,2.65ZM35.9,30.15L16.1,30.15L16.1,33.45L35.9,33.45L35.9,30.15ZM26,19.15C22.556,19.15 18.974,19.718 16.187,21.112C13.354,22.528 11.15,24.928 11.15,28.5L14.45,28.5C14.45,26.572 15.547,25.122 17.663,24.063C19.827,22.982 22.845,22.45 26,22.45L26,19.15ZM26,22.45C29.156,22.45 32.174,22.982 34.337,24.063C36.454,25.122 37.55,26.572 37.55,28.5L40.85,28.5C40.85,24.928 38.646,22.528 35.813,21.112C33.026,19.718 29.445,19.15 26,19.15L26,22.45ZM11.15,28.5C11.15,31.234 13.366,33.45 16.1,33.45L16.1,30.15C15.189,30.15 14.45,29.411 14.45,28.5L11.15,28.5ZM37.55,28.5C37.55,29.411 36.811,30.15 35.9,30.15L35.9,33.45C38.634,33.45 40.85,31.234 40.85,28.5L37.55,28.5ZM30.95,7.6C30.95,10.334 28.734,12.55 26,12.55L26,15.85C30.557,15.85 34.25,12.156 34.25,7.6L30.95,7.6ZM26,12.55C23.266,12.55 21.05,10.334 21.05,7.6L17.75,7.6C17.75,12.156 21.444,15.85 26,15.85L26,12.55ZM21.05,7.6C21.05,4.866 23.266,2.65 26,2.65L26,-0.65C21.444,-0.65 17.75,3.044 17.75,7.6L21.05,7.6ZM26,2.65C28.734,2.65 30.95,4.866 30.95,7.6L34.25,7.6C34.25,3.044 30.557,-0.65 26,-0.65L26,2.65ZM3.45,28.5C3.45,27.445 4.129,25.924 5.514,24.609C6.863,23.327 8.673,22.45 10.6,22.45L10.6,19.15C7.667,19.15 5.077,20.473 3.241,22.216C1.441,23.926 0.15,26.255 0.15,28.5L3.45,28.5ZM5.1,33.45L6.2,33.45L6.2,30.15L5.1,30.15L5.1,33.45ZM0.15,28.5C0.15,31.234 2.366,33.45 5.1,33.45L5.1,30.15C4.189,30.15 3.45,29.411 3.45,28.5L0.15,28.5ZM6.75,7.6C6.75,12.156 10.444,15.85 15,15.85L15,12.55C12.266,12.55 10.05,10.334 10.05,7.6L6.75,7.6ZM15,-0.65C10.444,-0.65 6.75,3.044 6.75,7.6L10.05,7.6C10.05,4.866 12.266,2.65 15,2.65L15,-0.65Z" fill="#000000"/>
</svg>
