<svg width="36" height="36" viewBox="0 0 36 36" fill="none" xmlns="http://www.w3.org/2000/svg" xmlns:xlink="http://www.w3.org/1999/xlink">
<path d="M2,15.5C1.172,15.5 0.5,16.172 0.5,17C0.5,17.828 1.172,18.5 2,18.5L2,15.5ZM34,18.5C34.828,18.5 35.5,17.828 35.5,17C35.5,16.172 34.828,15.5 34,15.5L34,18.5ZM19.5,1C19.5,0.172 18.828,-0.5 18,-0.5C17.172,-0.5 16.5,0.172 16.5,1L19.5,1ZM16.5,33C16.5,33.828 17.172,34.5 18,34.5C18.828,34.5 19.5,33.828 19.5,33L16.5,33ZM2,18.5L34,18.5L34,15.5L2,15.5L2,18.5ZM16.5,1L16.5,33L19.5,33L19.5,1L16.5,1Z" fill="#000000"/>
</svg>
