<svg width="42" height="40" viewBox="0 0 42 40" fill="none" xmlns="http://www.w3.org/2000/svg" xmlns:xlink="http://www.w3.org/1999/xlink">
<path d="M18.135,2.23L18.998,3.636L18.998,3.636L18.135,2.23ZM8.9,9.4L7.733,8.233L7.733,8.233L8.9,9.4ZM33.1,9.4L34.267,8.233L34.267,8.233L33.1,9.4ZM23.865,2.23L24.729,0.824L24.729,0.824L23.865,2.23ZM2.801,34.619L4.436,34.398L4.436,34.398L2.801,34.619ZM2.3,27L3.95,27L2.3,27ZM39.2,34.619L37.564,34.398L37.564,34.398L39.2,34.619ZM17.271,0.824C14.782,2.353 11.073,4.893 7.733,8.233L10.067,10.567C13.157,7.477 16.63,5.091 18.998,3.636L17.271,0.824ZM34.267,8.233C30.927,4.893 27.218,2.353 24.729,0.824L23.002,3.636C25.37,5.091 28.843,7.477 31.933,10.567L34.267,8.233ZM4.436,34.398C4.186,32.558 3.95,30.017 3.95,27L0.65,27C0.65,30.187 0.9,32.877 1.165,34.84L4.436,34.398ZM38.05,27C38.05,30.017 37.814,32.558 37.564,34.398L40.835,34.841C41.101,32.877 41.35,30.187 41.35,27L38.05,27ZM7.733,8.233C4.123,11.844 2.28,14.827 1.401,17.882C0.542,20.863 0.65,23.801 0.65,27L3.95,27C3.95,23.599 3.873,21.222 4.572,18.796C5.249,16.443 6.707,13.926 10.067,10.567L7.733,8.233ZM41.35,27C41.35,23.801 41.458,20.863 40.599,17.882C39.72,14.827 37.878,11.844 34.267,8.233L31.933,10.567C35.293,13.926 36.751,16.443 37.428,18.796C38.127,21.222 38.05,23.599 38.05,27L41.35,27ZM6.835,36.35C5.556,36.35 4.585,35.498 4.436,34.398L1.165,34.84C1.558,37.742 4.077,39.65 6.835,39.65L6.835,36.35ZM35.165,39.65C37.923,39.65 40.442,37.742 40.835,34.841L37.564,34.398C37.416,35.498 36.444,36.35 35.165,36.35L35.165,39.65ZM18.998,3.636C20.239,2.874 21.762,2.874 23.002,3.636L24.729,0.824C22.429,-0.589 19.571,-0.589 17.271,0.824L18.998,3.636ZM35.165,36.35L6.835,36.35L6.835,39.65L35.165,39.65L35.165,36.35Z" fill="#577CFF"/>
</svg>
