<svg width="44" height="44" viewBox="0 0 44 44" fill="none" xmlns="http://www.w3.org/2000/svg" xmlns:xlink="http://www.w3.org/1999/xlink">
<path d="M12.2,11.95C11.289,11.95 10.55,12.689 10.55,13.6C10.55,14.511 11.289,15.25 12.2,15.25L12.2,11.95ZM29.8,15.25C30.711,15.25 31.45,14.511 31.45,13.6C31.45,12.689 30.711,11.95 29.8,11.95L29.8,15.25ZM12.2,20.75C11.289,20.75 10.55,21.489 10.55,22.4C10.55,23.311 11.289,24.05 12.2,24.05L12.2,20.75ZM23.2,24.05C24.111,24.05 24.85,23.311 24.85,22.4C24.85,21.489 24.111,20.75 23.2,20.75L23.2,24.05ZM10,32.287L11.65,32.287C11.65,31.546 11.156,30.895 10.442,30.697L10,32.287ZM18.827,33.373L18.871,31.723C18.418,31.712 17.981,31.886 17.661,32.206L18.827,33.373ZM10,42.2L8.35,42.2C8.35,42.867 8.752,43.469 9.369,43.724C9.985,43.98 10.695,43.839 11.167,43.367L10,42.2ZM12.2,15.25L29.8,15.25L29.8,11.95L12.2,11.95L12.2,15.25ZM12.2,24.05L23.2,24.05L23.2,20.75L12.2,20.75L12.2,24.05ZM2.85,18C2.85,12.263 3.996,9.083 6.435,7.186C9.011,5.183 13.44,4.25 21,4.25L21,0.95C13.419,0.95 7.948,1.829 4.409,4.581C0.733,7.44 -0.45,11.961 -0.45,18L2.85,18ZM39.15,18C39.15,23.737 38.004,26.917 35.565,28.814C32.989,30.817 28.56,31.75 21,31.75L21,35.05C28.582,35.05 34.052,34.171 37.591,31.419C41.267,28.56 42.45,24.039 42.45,18L39.15,18ZM21,4.25C28.56,4.25 32.989,5.183 35.565,7.186C38.004,9.083 39.15,12.263 39.15,18L42.45,18C42.45,11.961 41.267,7.44 37.591,4.581C34.052,1.829 28.582,0.95 21,0.95L21,4.25ZM10.442,30.697C7.473,29.872 5.682,28.564 4.569,26.701C3.411,24.764 2.85,22.002 2.85,18L-0.45,18C-0.45,22.222 0.125,25.697 1.736,28.393C3.391,31.163 5.999,32.887 9.558,33.876L10.442,30.697ZM21,31.75C20.263,31.75 19.554,31.741 18.871,31.723L18.784,35.022C19.499,35.041 20.237,35.05 21,35.05L21,31.75ZM8.35,32.287L8.35,42.2L11.65,42.2L11.65,32.287L8.35,32.287ZM11.167,43.367L19.994,34.54L17.661,32.206L8.833,41.033L11.167,43.367Z" fill="#000000"/>
</svg>
