<svg width="38" height="38" viewBox="0 0 38 38" fill="none" xmlns="http://www.w3.org/2000/svg" xmlns:xlink="http://www.w3.org/1999/xlink">
<path d="M34.939,37.061C35.525,37.646 36.475,37.646 37.061,37.061C37.646,36.475 37.646,35.525 37.061,34.939L34.939,37.061ZM28.667,26.546C28.081,25.96 27.132,25.96 26.546,26.546C25.96,27.132 25.96,28.082 26.546,28.667L28.667,26.546ZM17,30.5C9.544,30.5 3.5,24.456 3.5,17L0.5,17C0.5,26.113 7.887,33.5 17,33.5L17,30.5ZM3.5,17C3.5,9.544 9.544,3.5 17,3.5L17,0.5C7.887,0.5 0.5,7.887 0.5,17L3.5,17ZM17,3.5C24.456,3.5 30.5,9.544 30.5,17L33.5,17C33.5,7.887 26.113,0.5 17,0.5L17,3.5ZM30.5,17C30.5,24.456 24.456,30.5 17,30.5L17,33.5C26.113,33.5 33.5,26.113 33.5,17L30.5,17ZM37.061,34.939L28.667,26.546L26.546,28.667L34.939,37.061L37.061,34.939Z" fill="#000B23"/>
</svg>
