<svg width="34" height="26" viewBox="0 0 34 26" fill="none" xmlns="http://www.w3.org/2000/svg" xmlns:xlink="http://www.w3.org/1999/xlink">
<path d="M32.081,4.248C32.862,3.467 32.862,2.2 32.081,1.419C31.3,0.638 30.033,0.638 29.252,1.419L32.081,4.248ZM10.5,23L9.086,24.414C9.867,25.195 11.133,25.195 11.914,24.414L10.5,23ZM2.747,12.419C1.966,11.638 0.7,11.638 -0.081,12.419C-0.862,13.2 -0.862,14.467 -0.081,15.248L2.747,12.419ZM29.252,1.419L9.086,21.586L11.914,24.414L32.081,4.248L29.252,1.419ZM-0.081,15.248L9.086,24.414L11.914,21.586L2.747,12.419L-0.081,15.248Z" fill="#FFFFFF"/>
</svg>
