<svg width="38" height="40" viewBox="0 0 38 40" fill="none" xmlns="http://www.w3.org/2000/svg" xmlns:xlink="http://www.w3.org/1999/xlink">
<path d="M25.5,1C25.5,0.172 24.828,-0.5 24,-0.5C23.172,-0.5 22.5,0.172 22.5,1L25.5,1ZM22.5,9C22.5,9.828 23.172,10.5 24,10.5C24.828,10.5 25.5,9.828 25.5,9L22.5,9ZM13.5,1C13.5,0.172 12.828,-0.5 12,-0.5C11.172,-0.5 10.5,0.172 10.5,1L13.5,1ZM10.5,9C10.5,9.828 11.172,10.5 12,10.5C12.828,10.5 13.5,9.828 13.5,9L10.5,9ZM34.965,19L36.464,18.945L36.464,18.945L34.965,19ZM22.5,1L22.5,9L25.5,9L25.5,1L22.5,1ZM10.5,1L10.5,9L13.5,9L13.5,1L10.5,1ZM34.965,17.5L1.035,17.5L1.035,20.5L34.965,20.5L34.965,17.5ZM18,36.5C11.556,36.5 7.856,35.485 5.686,33.314C3.515,31.144 2.5,27.444 2.5,21L-0.5,21C-0.5,27.556 0.485,32.356 3.564,35.436C6.644,38.515 11.444,39.5 18,39.5L18,36.5ZM33.5,21C33.5,27.444 32.485,31.144 30.314,33.314C28.144,35.485 24.444,36.5 18,36.5L18,39.5C24.556,39.5 29.356,38.515 32.436,35.436C35.515,32.356 36.5,27.556 36.5,21L33.5,21ZM2.5,21C2.5,20.324 2.511,19.676 2.534,19.055L-0.464,18.945C-0.488,19.607 -0.5,20.292 -0.5,21L2.5,21ZM2.534,19.055C2.738,13.459 3.877,10.249 6.047,8.348C8.259,6.409 11.904,5.5 18,5.5L18,2.5C11.788,2.5 7.159,3.384 4.069,6.092C0.937,8.836 -0.252,13.126 -0.464,18.945L2.534,19.055ZM18,5.5C24.096,5.5 27.741,6.409 29.953,8.348C32.123,10.249 33.262,13.459 33.466,19.055L36.464,18.945C36.252,13.126 35.062,8.836 31.931,6.092C28.841,3.384 24.212,2.5 18,2.5L18,5.5ZM33.466,19.055C33.489,19.676 33.5,20.324 33.5,21L36.5,21C36.5,20.292 36.488,19.607 36.464,18.945L33.466,19.055Z" fill="#000000"/>
</svg>
