<svg width="50" height="34" viewBox="0 0 50 34" fill="none" xmlns="http://www.w3.org/2000/svg" xmlns:xlink="http://www.w3.org/1999/xlink">
<path d="M16.63,16.104C21.468,16.104 25.404,12.395 25.404,7.835C25.404,3.275 21.468,-0.434 16.63,-0.434C11.791,-0.434 7.855,3.275 7.855,7.835C7.855,12.395 11.791,16.104 16.63,16.104ZM16.63,4.291C18.711,4.291 20.39,5.874 20.39,7.835C20.39,9.796 18.711,11.379 16.63,11.379C14.549,11.379 12.869,9.796 12.869,7.835C12.869,5.874 14.549,4.291 16.63,4.291ZM16.63,20.239C10.764,20.239 -0.919,23.003 -0.919,28.508L-0.919,32.642L34.179,32.642L34.179,28.508C34.179,23.003 22.496,20.239 16.63,20.239ZM4.947,27.917C7.053,26.547 12.142,24.964 16.63,24.964C21.117,24.964 26.207,26.547 28.312,27.917L4.947,27.917ZM34.279,20.38C37.187,22.365 39.193,25.011 39.193,28.508L39.193,32.642L49.221,32.642L49.221,28.508C49.221,23.735 40.446,21.018 34.279,20.38ZM31.672,16.104C36.51,16.104 40.446,12.395 40.446,7.835C40.446,3.275 36.51,-0.434 31.672,-0.434C30.318,-0.434 29.065,-0.127 27.911,0.393C29.491,2.496 30.418,5.071 30.418,7.835C30.418,10.599 29.491,13.174 27.911,15.277C29.065,15.797 30.318,16.104 31.672,16.104Z" fill="#544C4C"/>
</svg>
