<svg width="60" height="80" viewBox="0 0 60 80" fill="none" xmlns="http://www.w3.org/2000/svg" xmlns:xlink="http://www.w3.org/1999/xlink">
<path d="M30,7.5C30,5.511 30.79,3.603 32.197,2.197C33.603,0.79 35.511,0 37.5,0C39.489,0 41.397,0.79 42.803,2.197C44.21,3.603 45,5.511 45,7.5C45,9.489 44.21,11.397 42.803,12.803C41.397,14.21 39.489,15 37.5,15C35.511,15 33.603,14.21 32.197,12.803C30.79,11.397 30,9.489 30,7.5ZM38.016,36.047L35.031,47.969L42.797,55.734C44.203,57.141 45,59.047 45,61.031L45,75C45,77.766 42.766,80 40,80C37.234,80 35,77.766 35,75L35,62.078L23.453,50.531C20.984,48.062 19.984,44.5 20.813,41.109L24,27.984C25.297,22.656 30.672,19.406 35.984,20.734C38.953,21.484 41.547,23.297 43.234,25.844L47.672,32.5L52.5,32.5L52.5,28.75C52.5,26.672 54.172,25 56.25,25C58.328,25 60,26.672 60,28.75L60,76.25C60,78.328 58.328,80 56.25,80C54.172,80 52.5,78.328 52.5,76.25L52.5,42.5L46.344,42.5C43.844,42.5 41.5,41.25 40.109,39.156L38.031,36.031L38.016,36.047ZM12.672,73.734L18.328,52.188C18.797,52.844 19.328,53.469 19.906,54.047L26.453,60.594L22.328,76.266C21.625,78.938 18.891,80.531 16.219,79.828C13.547,79.125 11.953,76.391 12.656,73.719L12.672,73.734ZM21.344,19.672L15.844,41.641C15.375,43.531 13.516,44.75 11.594,44.438L4.109,43.188C1.922,42.828 0.531,40.641 1.109,38.5L4.984,24.219C6.469,18.781 11.406,15 17.047,15L17.703,15C20.141,15 21.937,17.297 21.344,19.656L21.344,19.672Z" fill="#FFFFFF"/>
</svg>
