<svg width="1374" height="680" viewBox="0 0 1374 680" fill="none" xmlns="http://www.w3.org/2000/svg" xmlns:xlink="http://www.w3.org/1999/xlink">
<path d="M0,679.545C0,558.477 0,437.411 0.386,315.849C1.319,315.361 1.867,315.379 2.416,315.379C226.604,315.381 450.792,315.381 674.98,315.381C675.392,315.381 675.81,315.317 676.214,315.391C678.994,315.889 680.224,314.505 680.044,310.355C679.822,305.235 680.218,300.057 679.928,294.951C679.648,290.041 681.038,288.931 684.372,288.967C702.916,289.169 721.464,288.865 740.006,289.217C744.266,289.297 745.8,287.607 745.116,281.903C744.624,277.789 745.736,276.041 748.934,276.315C753.04,276.667 757.172,276.403 761.294,276.399C766.762,276.395 766.494,276.083 767.45,268.545C768.554,259.837 770.034,251.099 772.212,242.807C774.87,232.681 778.852,223.213 781.442,213.061C783.138,206.413 783.9,199.091 784.154,192.005C784.53,181.589 784.016,171.115 784.018,160.666C784.02,156.772 785.496,155.199 788.51,155.359C794.82,155.693 801.146,155.46 807.464,155.46C812.094,155.46 816.724,155.46 821.814,155.46C823.684,182.399 819.186,210.355 831.968,234.159C832.496,233.215 833.01,232.567 833.29,231.761C838.982,215.343 842.838,198.168 843.2,179.876C843.52,163.711 843.34,147.524 843.226,131.349C843.192,126.304 844.384,124.386 848.256,124.457C863.776,124.742 879.302,124.567 894.824,124.59C896.152,124.592 897.478,124.795 899.252,124.942C899.252,143.998 898.59,162.658 899.44,181.185C900.29,199.725 904.046,217.535 910.72,234.645C911.56,233.269 912.086,232.661 912.384,231.887C917.408,218.801 920.572,204.991 920.66,190.041C920.718,180.146 920.766,170.246 920.622,160.354C920.57,156.685 921.366,155.341 924.114,155.389C934.416,155.569 944.72,155.602 955.02,155.374C958.07,155.307 958.698,157.002 958.632,160.757C958.484,169.316 958.712,177.888 958.56,186.447C958.248,203.869 961.924,219.769 967.954,234.777C972.562,246.243 975.218,258.515 975.812,271.557C975.978,275.223 976.686,276.591 979.394,276.467C984.47,276.231 989.558,276.511 994.64,276.353C996.992,276.281 998.086,277.103 998.134,280.771C998.24,289.065 998.38,289.061 1004.444,289.065C1005.132,289.067 1005.834,289.195 1006.502,289.045C1009.932,288.271 1010.706,290.591 1010.568,294.891C1010.356,301.491 1010.512,308.115 1010.512,314.917C1012.586,315.303 1014.174,315.599 1016.318,315.997C1016.318,313.391 1016.318,311.161 1016.318,308.931C1016.318,238.895 1016.366,168.859 1016.23,98.824C1016.218,92.99 1017.468,91.394 1021.604,91.447C1042.346,91.712 1063.09,91.706 1083.832,91.444C1087.74,91.395 1088.914,92.759 1088.904,98.338C1088.768,168.563 1088.814,238.789 1088.814,309.015C1088.814,311.235 1088.814,313.455 1088.814,315.601C1098.596,316.747 1098.742,316.577 1098.742,304.623C1098.742,205.279 1098.74,105.934 1098.742,6.59C1098.742,-0.978 1098.746,-0.981 1104.378,-0.981C1131.028,-0.982 1157.678,-0.981 1184.328,-0.981C1190.156,-0.981 1190.158,-0.98 1190.158,6.891C1190.158,107.567 1190.192,208.243 1190.07,308.919C1190.064,314.357 1191.31,315.537 1194.968,315.555C1198.694,315.575 1200.232,314.667 1200.188,308.789C1199.962,279.483 1200.082,250.173 1200.086,220.865C1200.086,213.601 1200.09,213.595 1205.522,213.595C1225.99,213.593 1246.458,213.593 1266.926,213.595C1272.58,213.595 1272.582,213.599 1272.582,221.717C1272.582,250.645 1272.682,279.573 1272.494,308.499C1272.458,313.957 1273.514,315.531 1277.506,315.505C1309.376,315.283 1341.246,315.383 1373.34,315.417C1373.71,315.393 1373.856,315.335 1374,315.277C1374,315.783 1374,316.291 1373.76,317.521C1373.404,320.501 1373.19,322.759 1373.19,325.017C1373.174,443.193 1373.176,561.369 1372.79,679.553C1083.936,679.563 795.47,679.565 507.004,679.565C506.18,679.565 505.152,679.985 504.576,679.459C503.554,678.523 502.096,677.061 502.05,675.735C501.348,655.655 500.88,635.557 500.284,615.467C499.808,599.369 499.214,583.277 498.72,567.179C498.612,563.701 498.704,560.211 498.704,556.039C500.91,557.151 502.326,557.791 503.702,558.569C514.354,564.605 525.018,570.605 535.632,576.773C537.91,578.099 539.29,578.055 539.584,573.831C538.292,572.891 536.98,571.899 535.644,570.973C524.468,563.229 513.324,555.393 502.082,547.837C499.5,546.101 498.526,544.015 498.572,539.991C498.646,533.567 498.024,527.135 497.922,520.699C497.792,512.599 497.89,504.491 497.89,495.527C503.428,498.615 508.35,501.329 513.254,504.111C515.222,505.227 517.108,507.589 518.684,503.121C520.336,498.443 517.806,497.587 515.758,496.161C510.728,492.657 505.606,489.381 500.704,485.563C499.162,484.361 498.29,481.597 496.94,479.797C496.252,478.881 495.21,478.137 494.274,477.991C492.442,477.707 490.272,478.759 488.764,477.755C477.128,470.021 465.592,461.991 454.106,453.835C453.012,453.059 451.84,450.835 451.772,449.199C451.074,431.973 450.49,414.735 450.078,397.493C449.658,379.839 449.44,362.177 449.192,344.519C449.15,341.507 448.816,339.333 446.108,339.241C443.312,339.147 442.676,341.061 442.594,344.519C442.132,364.045 441.496,383.561 441.02,403.085C440.65,418.265 440.338,433.451 440.208,448.637C440.178,452.093 439.25,453.781 437.084,455.003C427.948,460.161 418.85,465.447 409.74,470.697C397.72,477.623 385.698,484.541 373.69,491.513C372.024,492.479 370.33,493.467 371.356,496.941C372.32,500.207 373.688,500.379 375.908,499.323C392.764,491.301 409.654,483.417 426.542,475.529C431.134,473.383 435.758,471.365 440.998,469.005C440.998,472.265 441.044,474.317 440.99,476.365C440.458,496.839 439.892,517.311 439.366,537.785C438.796,559.971 438.248,582.155 437.71,604.343C437.14,627.859 436.552,651.375 436.084,674.895C436.018,678.217 435.422,679.651 432.822,679.625C419.362,679.491 405.898,679.509 392.438,679.613C390.058,679.631 389.024,678.783 388.986,675.153C388.848,662.061 388.514,648.969 388.176,635.881C388.064,631.537 387.602,627.211 387.504,622.867C387.382,617.509 387.474,612.141 387.474,606.185C396.432,609.943 403.776,616.535 412.414,617.837C411.576,616.017 410.476,615.065 409.324,614.261C404.91,611.175 400.614,607.657 396.022,605.201C389.798,601.869 385.606,597.323 387.298,586.939C387.492,585.749 386.882,584.351 386.866,583.045C386.806,578.429 386.842,573.813 386.842,568.279C390.122,570.155 392.686,571.899 395.382,573.045C396.66,573.587 398.192,572.983 399.608,572.899C398.724,571.257 398.036,569.263 396.908,568.061C395.52,566.579 393.688,565.929 392.184,564.615C389.77,562.509 387.468,560.153 384.77,557.567C383.596,557.247 381.644,557.229 380.042,556.187C373.83,552.143 367.766,547.663 361.568,543.573C358.92,541.827 357.69,539.567 357.662,535.261C357.544,517.791 357.18,500.323 356.826,482.857C356.762,479.655 356.404,476.449 356.008,473.287C355.894,472.381 355.168,471.625 354.724,470.799C354.07,471.527 353.026,472.099 352.836,473.013C352.35,475.351 352.06,477.835 352.014,480.271C351.666,498.879 351.504,517.495 350.974,536.093C350.904,538.567 349.522,542.253 348.04,543.165C337.274,549.795 326.34,555.899 315.418,562.025C314.408,562.593 312.926,562.723 311.974,562.117C305.122,557.743 298.324,553.197 291.58,548.511C290.628,547.847 289.456,546.177 289.4,544.889C288.71,529.221 288.212,513.539 287.634,497.007C294.588,500.869 301.024,504.445 307.654,508.127C308.44,505.663 309.138,503.473 309.952,500.919C303.578,496.491 297.526,492.031 291.304,488.085C288.746,486.461 288.162,483.593 286.916,480.755C286.318,479.391 282.406,481.545 280.59,480.359C268.444,472.415 256.438,464.053 244.454,455.639C243.482,454.957 242.462,452.925 242.406,451.451C241.732,433.653 241.152,415.845 240.722,398.033C240.312,381.141 240.058,364.241 239.864,347.343C239.826,344.009 239.196,342.559 236.6,342.585C234.114,342.611 233.28,343.737 233.24,347.219C233.122,357.649 232.726,368.073 232.478,378.501C231.906,402.589 231.282,426.675 230.88,450.769C230.816,454.537 229.706,456.163 227.456,457.449C207.058,469.091 186.687,480.823 166.297,492.491C161.731,495.105 161.582,495.635 164.448,502.151C186.915,491.793 209.444,481.405 232.334,470.853C231.806,485.859 231.242,499.831 230.842,513.813C230.228,535.233 229.692,556.659 229.19,578.085C228.59,603.693 228.084,629.307 227.484,654.917C227.328,661.541 226.798,668.155 226.776,674.777C226.764,678.559 225.81,679.663 223.164,679.631C211.214,679.479 199.261,679.475 187.311,679.631C184.608,679.667 183.779,678.397 183.747,674.703C183.672,665.985 183.22,657.275 183.026,648.559C182.914,643.509 183.006,638.449 183.006,632.543C188.703,635.549 193.739,638.205 198.775,640.863C198.956,640.237 199.137,639.611 199.319,638.985C194.855,635.863 190.373,632.793 185.943,629.581C184.9,628.825 183.303,627.707 183.212,626.563C182.724,620.445 182.632,614.267 182.372,607.247C185.506,608.671 188.098,609.849 191.108,611.217C190.992,609.517 191.136,608.431 190.866,608.173C187.592,605.023 184.431,601.519 180.898,599.049C175.725,595.431 170.212,592.753 164.996,589.239C164.021,588.583 163.312,585.915 163.246,584.123C162.825,572.565 162.68,560.987 162.29,549.425C162.198,546.707 161.518,544.027 161.108,541.329C160.626,541.395 160.144,541.459 159.662,541.525C159.467,542.871 159.133,544.209 159.099,545.563C158.787,558.081 158.42,570.601 158.315,583.123C158.283,586.867 157.501,589.113 154.946,590.557C147.206,594.931 139.514,599.471 131.852,604.103C130.845,604.711 130.122,606.221 129.267,607.313C129.554,607.797 129.84,608.283 130.127,608.767C139.25,604.517 148.374,600.267 158.269,595.657C158.269,598.549 158.317,600.369 158.261,602.183C158.014,610.137 157.661,618.085 157.488,626.041C157.144,641.795 156.722,657.551 156.702,673.309C156.696,678.369 155.684,679.687 152.064,679.675C101.377,679.507 50.688,679.551 0,679.545ZM995.53,565.111C995.53,565.111 995.464,565.085 995.078,565.361C994.968,565.721 994.856,566.083 994.168,566.587C991.656,562.291 989.126,563.073 986.542,565.733C984.948,565.461 983.352,565.189 981.758,564.919C982.48,567.385 983.202,569.851 983.916,572.293C983.432,572.365 982.268,572.537 981.104,572.709C983.464,574.893 985.704,576.325 987.156,571.475C988.604,575.347 990.67,575.159 993.386,574.011C995.33,573.189 997.596,573.823 999.718,573.763C999.722,573.763 999.718,573.087 999.718,572.201C996.71,573.051 995.222,571.475 996.648,566.643C997.924,566.643 999.2,566.643 1000.586,566.643C1000.698,568.767 1000.508,570.599 1000.96,572.051C1001.306,573.163 1002.408,573.963 1003.298,574.497C1003.488,574.611 1004.224,572.983 1005.242,572.409C1008.288,575.753 1009.282,575.749 1011.068,572.565C1009.68,572.131 1008.206,571.671 1006.764,571.221C1008.902,569.697 1010.624,568.469 1012.146,567.383C1012.516,574.569 1012.746,574.971 1015.528,573.815C1015.118,571.617 1014.73,569.543 1014.34,567.469C1015.23,567.225 1016.118,566.981 1016.912,567.703C1017.08,575.135 1017.092,575.147 1022.984,573.863C1022.87,570.701 1022.756,567.505 1022.642,564.309C1022.388,564.337 1022.134,564.365 1021.878,564.395C1021.352,567.139 1020.824,569.883 1020.296,572.629C1019.784,572.491 1019.272,572.353 1018.76,572.215C1018.666,570.209 1018.674,568.175 1018.414,566.209C1018.334,565.603 1017.526,565.181 1016.526,564.311C1015.39,563.253 1014.256,562.193 1013.002,561.021C1012.488,562.231 1011.974,563.439 1011.43,564.723C1010.652,564.383 1010.052,563.957 1009.432,563.889C1008.698,563.809 1007.944,564.033 1006.676,564.239C1006.26,564.973 1005.842,565.705 1005.076,566.559C1005.076,566.559 1004.716,566.555 1004.614,565.715C1003.722,564.077 1002.83,562.439 1002.568,561.955C1000.074,562.867 998.284,563.523 996.038,564.241C995.858,564.557 995.676,564.875 995.53,565.111ZM945.83,574.403C946.124,573.843 946.416,573.283 946.71,572.723C946.276,572.601 945.84,572.477 944.7,572.363C943.834,572.513 942.97,572.663 942.106,572.811C942.13,573.347 942.152,573.883 942.174,574.419C943.25,574.419 944.326,574.419 945.83,574.403ZM819.104,506.019C819.434,506.009 819.764,505.999 820.456,506.569C822.212,506.841 823.968,507.111 825.576,507.359C825.576,503.395 825.576,500.219 825.576,497.041C825.364,497.013 825.152,496.983 824.942,496.953C824.386,499.787 823.828,502.623 823.272,505.457C822.964,505.279 822.654,505.101 822.346,504.921C821.62,502.245 820.894,499.569 819.56,496.885C819.154,496.911 818.748,496.935 817.684,496.793C816.336,497.551 814.988,498.311 813.638,499.071C814.604,501.007 815.568,502.943 816.634,505.085C815.7,505.227 814.63,505.393 813.56,505.557C813.608,506.165 813.658,506.773 813.708,507.383C815.342,506.941 816.974,506.499 819.104,506.019ZM771.066,528.355C771.144,527.977 771.112,527.619 771.41,526.749C772.958,528.057 774.506,529.363 776.088,530.699C774.928,531.137 773.818,531.559 772.212,532.167C777.83,536.047 779.648,530.805 778.11,518.173C775.726,519.415 773.524,520.563 771.142,521.803C771.268,522.055 770.962,521.443 770.492,520.101C768.752,519.717 767.01,519.331 765.404,518.975C765.404,522.947 765.404,526.271 765.404,529.593C765.606,529.591 765.81,529.589 766.012,529.587C766.546,526.725 767.078,523.863 767.612,521.001C768.112,521.091 768.614,521.181 769.114,521.271C769.35,523.785 769.584,526.299 769.916,529.423C770.228,529.225 770.54,529.025 771.066,528.355ZM1007.908,588.041C1007.7,588.145 1007.486,588.185 1006.892,587.537C1005.212,587.619 1002.914,586.821 1002.028,588.023C1001.126,589.249 1000.996,592.837 1001.62,594.681C1002.74,597.987 1005.052,597.859 1007.636,595.979C1007.998,595.703 1008.362,595.427 1009.05,595.921C1010.86,596.239 1012.672,596.557 1014.328,596.849C1014.328,592.743 1014.328,589.725 1014.328,586.707C1014.122,586.671 1013.918,586.635 1013.712,586.599C1013.144,589.469 1012.578,592.339 1012.01,595.209C1011.514,595.077 1011.018,594.947 1010.522,594.817C1010.292,592.657 1010.118,590.479 1009.766,588.359C1009.718,588.077 1008.762,588.085 1007.908,588.041ZM989.49,505.967C989.49,505.967 989.826,505.993 990.236,506.591C992.002,506.887 993.768,507.183 995.392,507.455C995.392,503.451 995.392,500.245 995.392,497.041C995.162,497.001 994.932,496.963 994.702,496.923C994.162,499.753 993.622,502.583 993.084,505.413C992.788,505.225 992.492,505.035 992.198,504.847C991.438,502.313 990.678,499.781 989.298,497.155C988.14,496.199 986.982,495.241 986.58,494.911C985.402,496.051 984.344,497.075 983.068,497.431C981.23,498.001 979.392,498.569 977.53,499.101C977.53,499.101 977.51,499.061 977.34,498.267C976.008,497.347 974.676,496.429 973.344,495.509C973.256,495.409 972.096,495.995 970.964,496.677C969.818,497.365 968.702,498.149 967.02,499.187C964.552,496.753 962.078,494.193 959.576,499.297C959.576,499.297 959.298,498.963 959.156,498.271C957.57,498.163 955.984,498.057 954.398,497.949C955.146,500.339 955.892,502.729 956.636,505.113C956.14,505.161 954.982,505.271 953.824,505.383C953.894,506.039 953.962,506.695 954.032,507.349C956.048,506.919 958.064,506.487 960.526,505.959C962.208,508.289 964.51,508.749 967.442,505.593C969.046,506.189 970.648,506.783 972.15,507.339C970.646,504.675 969.612,502.845 968.578,501.015C970.058,500.193 971.538,499.371 972.04,499.093C973.632,502.693 974.282,505.879 975.754,507.013C977.286,508.191 979.616,507.513 981.59,507.387C982.416,507.335 983.22,506.613 984.552,505.931C982.228,505.105 980.742,504.577 979.256,504.051C979.312,503.643 979.366,503.235 979.422,502.827C980.952,502.593 982.482,502.357 984.314,502.075C983.858,500.729 983.586,499.931 983.99,498.861C984.394,500.615 984.906,502.337 985.18,504.129C985.704,507.561 986.56,508.001 989.49,505.967ZM1030.198,565.729C1028.588,562.921 1026.356,562.561 1025.096,565.317C1024.22,567.233 1024.138,571.041 1024.962,572.971C1026.158,575.769 1028.44,575.191 1030.364,573.757C1028.682,572.187 1027.414,571.005 1026.668,569.897C1027.52,569.819 1028.372,569.743 1029.864,569.623C1030.004,569.399 1030.144,569.173 1030.818,569.409C1031.176,571.139 1031.536,572.869 1032.002,575.119C1033.216,570.947 1034.168,567.681 1035.458,563.243C1033.482,564.487 1031.888,565.489 1030.198,565.729ZM909.306,574.105C910.08,573.843 910.854,573.581 912.052,573.619C912.222,571.069 912.39,568.521 912.656,564.495C914.204,574.691 914.204,574.691 917.236,573.709C914.582,569.801 914.582,568.487 917.324,564.335C915.504,566.057 915.914,557.621 912.812,562.619C912.234,561.705 911.658,560.791 911.08,559.877C910.398,561.353 909.718,562.827 908.496,564.119C907.066,564.931 905.636,565.745 904.206,566.559C905.23,568.395 906.254,570.233 907.348,572.195C906.256,572.395 905.224,572.585 904.194,572.777C904.232,573.293 904.268,573.811 904.306,574.327C905.776,574.185 907.246,574.043 909.306,574.105ZM1042.428,543.609C1042.68,545.381 1042.676,547.341 1043.26,548.871C1043.806,550.303 1044.974,551.281 1045.868,552.459C1046.192,552.093 1046.516,551.727 1046.84,551.361C1043.708,548.191 1044.416,545.165 1046.93,542.353C1045.804,541.139 1044.812,540.071 1044.204,539.417C1042.726,540.591 1041.5,541.565 1040.136,543.537C1040.126,544.295 1040.266,545.137 1040.078,545.797C1039.682,547.171 1039.114,548.449 1038.616,549.767C1038.142,548.427 1037.544,547.141 1037.226,545.733C1036.928,544.425 1036.928,542.987 1036.798,541.605C1036.36,541.637 1035.922,541.667 1035.484,541.697C1035.694,544.849 1035.352,548.411 1036.348,550.979C1036.85,552.271 1039.778,551.757 1041.7,552.075C1041.7,548.503 1041.7,546.045 1042.428,543.609ZM783.648,543.451C783.904,545.239 783.91,547.203 784.488,548.759C785.034,550.225 786.18,551.261 787.064,552.485C787.386,552.131 787.708,551.777 788.03,551.425C785.144,548.261 785.428,545.195 788.136,542.377C786.984,541.133 786.002,540.069 784.996,538.981C784.302,540.449 783.648,541.829 782.454,542.613C780.622,542.215 778.792,541.817 776.49,541.317C776.694,545.579 776.836,548.591 776.98,551.603C777.246,551.537 777.51,551.471 777.776,551.403C778.4,548.737 779.024,546.071 779.648,543.405C780.082,543.575 780.514,543.745 780.946,543.915C781.188,546.491 781.428,549.067 781.67,551.643C782.102,551.635 782.536,551.627 782.97,551.621C782.97,548.777 782.97,545.935 783.648,543.451ZM855.718,589.477C855.618,589.341 855.518,589.207 855.428,588.259C854.318,584.663 852.184,585.233 850.982,587.277C848.39,591.685 852.848,591.941 854.042,594.665C852.47,594.791 851.312,594.883 849.508,595.029C852.846,598.853 854.704,596.919 856.508,594.623C857.674,595.193 858.82,596.097 860.012,596.233C861.168,596.365 862.398,595.331 863.55,595.481C865.482,595.729 867.38,596.509 869.216,597.045C869.216,591.411 869.216,587.059 869.216,583.035C867.016,585.173 864.998,587.137 862.972,589.107C859.964,584.849 858.976,584.909 856.22,589.639C856.22,589.639 856.038,589.853 855.718,589.477ZM845.524,564.495C842.818,562.795 841.052,563.517 840.238,567.639C839.276,561.817 836.35,564.057 834.024,564.395C834.024,569.073 834.024,573.485 834.024,577.895C834.31,577.993 834.598,578.091 834.884,578.189C836.828,574.759 838.772,571.331 841.112,568.575C842.222,569.589 843.33,570.603 845.346,572.447C843.678,572.447 843.166,572.461 842.654,572.443C842.056,572.423 841.456,572.373 840.408,572.309C843.748,575.899 844.964,575.423 846.956,571.139C847.858,576.305 850.554,574.255 852.78,574.257C852.78,570.723 852.78,567.537 852.78,564.351C852.584,564.323 852.388,564.295 852.192,564.267C851.604,567.045 851.016,569.823 850.426,572.601C849.95,572.439 849.472,572.277 848.994,572.115C848.896,570.467 848.694,568.817 848.716,567.173C848.772,563.231 847.402,563.789 845.524,564.495ZM780.476,499.663C780.234,507.049 780.856,507.843 786.828,507.137C787.2,507.137 787.572,507.137 788.62,507.071C789.164,504.301 789.708,501.531 790.252,498.761C790.674,498.803 791.096,498.847 791.518,498.891C791.834,501.649 792.15,504.409 792.464,507.167C792.746,507.111 793.028,507.055 793.31,506.999C793.61,504.293 793.91,501.587 794.21,498.883C794.666,498.845 795.122,498.807 795.578,498.771C795.906,501.561 796.234,504.351 796.668,508.043C798.612,500.997 797.898,496.775 795.188,496.705C792.804,496.643 790.416,496.817 787.57,497.085C787.144,497.393 786.718,497.701 785.878,497.561C784.122,498.007 782.368,498.453 780.34,497.965C779.038,497.511 777.734,497.057 776.54,496.639C775.844,498.509 775.342,499.861 774.854,500.403C774.342,496.761 772.488,495.729 770.324,496.883C767.558,498.355 767.822,501.705 767.73,505.119C766.56,504.955 765.388,504.789 764.202,504.623C763.946,500.599 763.716,496.991 763.484,493.383C763.056,493.429 762.626,493.475 762.196,493.521C762.196,497.985 762.196,502.451 762.196,508.181C764.614,507.377 766.82,506.641 769.296,506.563C772.316,508.539 774.434,508.013 775.422,502.977C775.754,504.421 776.086,505.863 776.606,508.117C778.518,504.775 775.982,498.623 780.476,499.663ZM844.868,543.621C845.154,545.343 845.18,547.275 845.796,548.725C846.46,550.285 847.678,551.393 848.652,552.697C848.888,552.305 849.124,551.913 849.358,551.521C846.57,548.077 846.586,545.361 849.398,542.393C848.36,541.235 847.35,540.109 846.52,539.185C845.558,540.579 844.766,541.725 843.596,542.201C841.024,540.305 839.312,541.449 837.71,544.743C836.876,541.299 834.858,540.089 832.974,541.991C831.814,543.161 831.048,546.517 831.294,548.627C831.814,553.085 835.074,553.559 838.76,550.371C842.076,553.213 842.406,553.199 844.236,550.419C842.908,549.947 841.406,549.413 839.906,548.879C839.988,548.365 840.07,547.851 840.152,547.335C841.576,547.217 842.998,547.097 844.828,546.943C844.572,545.589 844.356,544.447 844.868,543.621ZM837.074,618.723C838.756,618.939 840.44,619.157 843.004,619.487C842.334,615.439 842.074,612.145 841.122,609.295C840.874,608.551 838.476,609.183 837.066,609.183C837.068,609.605 837.068,610.027 837.07,610.451C838.174,610.689 839.28,610.927 840.574,611.209C839.116,612.419 837.908,613.423 835.948,613.987C835.56,610.907 835.172,607.825 834.782,604.745C834.476,604.795 834.17,604.845 833.862,604.897C833.862,609.643 833.862,614.389 833.862,619.329C835.036,618.781 835.876,618.391 837.074,618.723ZM1021.724,619.039C1022.072,619.053 1022.42,619.067 1023.436,619.109C1024.478,614.137 1025.012,608.273 1029.838,610.925C1028.9,612.989 1027.914,615.161 1026.928,617.331C1028.722,618.241 1030.516,619.151 1032.514,620.165C1033.276,608.653 1033.276,608.657 1026.12,608.777C1025.036,608.795 1023.952,608.757 1022.482,609.023C1022.134,609.655 1021.786,610.285 1021.124,610.161C1019.34,610.171 1016.868,609.215 1015.962,610.457C1015.044,611.713 1014.942,616.143 1015.812,617.363C1016.898,618.885 1019.342,618.543 1021.724,619.039ZM882.346,505.179C883.012,505.557 883.676,505.935 884.608,506.463C884.608,505.113 884.538,503.985 884.628,502.881C884.724,501.667 884.968,500.477 885.276,498.427C887.004,507.149 887.004,507.149 889.94,506.603C886.892,502.775 886.924,500.629 889.856,497.713C888.89,496.551 887.888,495.343 886.538,493.717C885.69,496.683 884.984,499.579 884.004,502.285C883.736,503.031 882.654,503.209 881.89,502.843C880.85,501.811 879.81,500.781 878.266,499.249C879.874,498.953 880.872,498.769 881.87,498.585C881.83,497.961 881.792,497.337 881.754,496.715C880.278,497.109 878.802,497.505 877.326,497.899C877.98,500.249 878.634,502.599 879.342,505.141C879.068,505.207 878.004,505.463 876.938,505.719C877.038,506.329 877.138,506.941 877.238,507.551C878.782,506.903 880.328,506.255 882.346,505.179ZM807.522,565.289C804.866,562.137 803.45,564.863 802.008,566.717C800.602,565.769 799.048,563.829 797.834,564.177C796.8,564.475 796.09,567.349 795.368,569.183C794.962,570.219 794.82,571.457 793.848,572.339C791.83,572.603 790.834,571.633 790.97,568.527C791.082,565.973 790.782,563.385 790.666,560.813C790.328,560.847 789.992,560.881 789.656,560.915C789.656,565.315 789.656,569.715 789.656,574.331C791.324,574.331 792.942,574.331 795.216,574.065C797.584,573.561 800.892,577.321 802.61,571.323C803.02,572.411 803.428,573.499 804.05,575.159C805.54,571.557 803.33,566.047 807.696,566.909C808.288,569.387 808.48,572.355 809.628,574.147C810.264,575.137 812.502,574.153 814.016,574.059C813.982,573.621 813.946,573.181 813.91,572.743C812.438,572.273 810.968,571.801 809.498,571.331C809.554,570.957 809.612,570.583 809.668,570.209C811.116,569.969 812.562,569.729 814.836,569.351C813.848,567.197 813.218,564.439 812.392,564.321C810.918,564.111 809.326,565.497 807.522,565.289ZM847.348,522.021C847.486,522.245 847.624,522.469 847.218,522.975C846.582,524.723 845.946,526.469 845.31,528.217C847.086,528.891 848.864,529.565 851.204,530.453C851.204,527.101 851.28,525.039 851.188,522.993C850.988,518.547 848.816,518.569 846.45,519.131C846.618,519.863 846.786,520.595 847.348,522.021ZM1008.118,542.481C1006.486,542.111 1004.856,541.743 1003.226,541.373C1003.172,541.977 1003.118,542.581 1003.062,543.185C1004.04,543.435 1005.016,543.687 1005.178,543.729C1004.234,546.007 1003.358,548.125 1002.482,550.243C1004.388,550.977 1006.294,551.711 1008.4,552.521C1008.592,548.031 1008.714,545.227 1009.31,543.235C1009.512,545.061 1009.422,547.093 1009.996,548.659C1010.59,550.281 1011.828,551.449 1012.786,552.817C1013.188,552.431 1013.588,552.045 1013.99,551.661C1010.678,548.501 1010.866,545.295 1013.668,542.391C1012.524,541.099 1011.626,540.083 1010.63,538.957C1010.036,540.189 1009.448,541.413 1008.118,542.481ZM915.814,594.659C917.488,598.057 919.926,598.635 921.332,595.315C922.176,593.319 921.802,588.809 920.666,587.099C918.994,584.581 916.706,585.701 915.106,589.525C913.538,585.537 911.212,585.549 908.264,587.213C908.388,590.351 908.512,593.513 908.636,596.677C908.936,596.673 909.236,596.667 909.536,596.663C909.988,593.819 910.44,590.977 910.892,588.133C911.38,588.227 911.868,588.321 912.356,588.413C912.702,591.191 913.05,593.967 913.47,597.323C914.458,595.807 915.1,594.821 915.814,594.659ZM887.66,570.813C889.038,572.091 890.416,573.367 891.794,574.643C892.644,572.577 894.168,570.485 894.128,568.455C894.094,566.805 892.182,565.227 891.104,563.617C889.954,565.293 888.806,566.967 887.044,568.283C886.792,565.463 886.54,562.643 886.186,558.665C885.038,562.121 884.304,564.331 883.468,565.767C881.746,562.875 879.402,562.339 878.106,565.431C877.264,567.443 877.39,571.595 878.388,573.409C879.842,576.057 882.222,575.705 884.186,572.003C884.716,572.865 885.244,573.725 885.852,574.715C886.568,572.863 887.122,571.431 887.66,570.813ZM914.44,497.075C914.062,497.769 913.684,498.463 912.656,499.609C909.528,494.577 905.714,497.331 901.764,496.949C901.97,500.955 902.13,504.025 902.288,507.095C902.606,507.083 902.922,507.071 903.24,507.057C903.612,504.387 903.986,501.715 904.36,499.043C904.742,499.063 905.126,499.083 905.508,499.103C905.854,501.813 906.2,504.523 906.546,507.233C906.772,507.235 906.996,507.239 907.22,507.243C907.676,504.491 908.13,501.739 908.584,498.987C908.996,499.039 909.406,499.091 909.816,499.143C910.024,501.757 910.23,504.373 910.33,505.619C912.096,506.131 913.24,506.291 914.296,506.803C916.498,507.867 918.526,508.439 920.366,504.871C921.442,505.693 922.524,506.497 923.588,507.347C924.33,507.939 925.044,508.595 925.77,509.221C925.692,509.365 925.612,509.507 925.534,509.651C925.612,509.619 925.69,509.585 926.398,509.287C925.988,508.225 925.804,506.861 925.262,506.485C921.442,503.829 921.112,502.071 922.976,498.647C922.252,497.073 921.628,495.717 920.798,493.911C920.484,500.869 916.768,494.965 914.44,497.075ZM856.376,499.351C855.018,495.927 852.61,495.079 851.126,497.889C850.13,499.775 850.162,504.353 851.176,506.237C852.62,508.921 855.076,508.371 856.984,504.627C857.494,505.547 858.004,506.467 858.572,507.493C859.336,506.009 859.896,504.917 860.494,504.611C862.056,505.471 863.702,507.155 865.146,506.873C865.974,506.711 867.084,503.273 866.956,501.463C866.832,499.733 865.324,496.975 864.324,496.889C863.094,496.783 861.762,498.975 859.846,499.927C859.59,497.539 859.332,495.151 858.912,491.257C857.79,495.261 857.108,497.693 856.376,499.351ZM885.146,615.835C885.476,616.223 885.892,616.533 886.122,617.013C887.622,620.151 890,621.019 891.412,618.173C892.388,616.207 891.568,612.535 891.552,609.625C889.794,609.967 888.034,610.271 886.282,610.671C885.74,610.795 885.226,611.173 884.85,610.575C884.85,608.835 884.85,607.097 884.85,605.593C883.114,606.901 881.506,607.433 880.758,608.839C879.68,610.865 878.822,613.487 878.688,615.939C878.628,617.043 880.472,619.153 881.582,619.339C882.626,619.513 885.346,620.563 885.146,615.835ZM817.76,543.509C816.254,540.055 814.54,541.267 812.854,541.861C812.828,542.345 812.802,542.827 812.776,543.309C813.72,543.493 814.664,543.677 816.7,544.073C815.068,544.935 814.26,545.021 813.904,545.621C813.14,546.909 812.61,548.465 811.984,549.911C813.078,550.707 814.122,551.757 815.288,552.203C815.972,552.465 816.848,551.769 818.084,551.081C818.658,551.013 819.434,550.581 819.77,550.941C821.688,552.989 823.966,553.491 824.962,550.453C825.684,548.251 824.768,545.019 824.582,542.247C822.832,542.751 821.082,543.241 819.336,543.765C818.814,543.919 818.306,544.161 817.76,543.509ZM822.776,521.811C820.662,518.295 818.506,517.257 816.026,521.293C815.666,521.879 814.658,521.703 814.66,521.751C814.082,520.803 813.518,519.105 812.922,519.083C812.04,519.049 811.134,520.205 810.238,520.855C811.144,523.047 812.048,525.237 813.012,527.571C812.096,527.571 810.984,527.571 809.19,527.571C811.72,530.729 813.494,531.129 815.784,527.587C818.272,531.177 820.812,530.631 823.652,528.575C825.35,529.113 827.048,529.651 828.842,530.219C828.842,524.591 828.842,519.961 828.842,515.309C826.844,517.683 825.102,519.751 822.776,521.811ZM988.052,587.485C986.216,586.033 984.378,584.579 982.42,583.029C982.42,587.291 982.42,591.749 982.42,597.935C984.69,596.681 986.446,595.713 988.876,594.829C989.44,595.481 990.004,596.131 990.664,596.897C991.29,593.689 991.836,590.889 992.38,588.091C992.812,588.227 993.244,588.363 993.676,588.499C993.942,591.267 994.21,594.033 994.478,596.801C994.952,596.757 995.428,596.713 995.904,596.671C995.788,593.755 996.33,590.297 995.374,588.075C994.382,585.767 991.94,584.653 990.19,583.069C989.63,584.569 988.928,586.449 988.052,587.485ZM768.944,570.297C768.962,577.215 772.432,573.943 775.718,574.629C774.918,570.603 774.404,567.295 773.44,564.263C773.342,563.951 770.56,565.275 768.32,565.711C766.306,564.961 764.292,564.211 762.25,563.451C762.25,569.219 762.25,573.569 762.25,578.775C764.884,575.143 766.976,572.255 768.944,570.297ZM863.132,617.495C865.48,620.497 867.66,620.843 870.112,616.843C871.116,617.825 872.122,618.805 873.126,619.787C873.394,619.447 873.662,619.105 873.932,618.763C871.018,615.647 871.056,612.455 872.702,610.591C871.978,609.085 871.342,607.761 870.802,606.639C870.002,607.255 868.678,609.119 867.832,608.771C864.962,607.581 863.57,609.825 862.024,611.481C860.564,607.851 858.232,607.053 856.59,610.259C855.678,612.039 855.798,616.477 856.808,618.107C858.222,620.387 860.866,620.953 862.574,616.253C862.718,616.409 862.862,616.567 863.132,617.495ZM1035.714,529.795C1036.99,528.613 1038.268,527.431 1039.546,526.249C1039.39,526.001 1039.234,525.755 1039.078,525.509C1040.53,525.207 1041.98,524.905 1043.432,524.603C1043.462,524.021 1043.492,523.439 1043.52,522.857C1041.982,522.283 1040.444,521.707 1039.03,521.177C1038.51,519.025 1038.024,517.015 1037.232,513.735C1036.234,516.743 1035.75,518.201 1034.76,519.295C1031.356,517.991 1029.654,520.403 1029.658,524.679C1029.66,529.393 1031.954,530.663 1035.714,529.795ZM1018.69,498.431C1016.976,495.495 1015.242,496.429 1013.478,498.623C1014.584,498.809 1015.69,498.997 1017.702,499.335C1016.346,499.991 1015.72,500.033 1015.422,500.487C1014.522,501.857 1013.748,503.387 1012.926,504.853C1014.086,505.679 1015.198,506.721 1016.424,507.245C1017.1,507.533 1017.968,506.945 1019.026,506.129C1019.27,505.745 1019.608,504.971 1019.744,505.035C1021.794,505.987 1023.818,507.049 1026.158,508.241C1026.158,502.137 1026.158,497.561 1026.158,493.779C1023.662,495.603 1021.2,497.403 1018.69,498.431ZM800.138,586.067C797.688,586.049 795.29,588.861 792.7,586.135C792.36,585.777 790.546,587.323 789.974,588.505C789.678,589.117 790.446,591.049 791.032,592.051C791.546,592.931 792.474,593.349 794.316,594.887C791.904,594.887 790.776,594.887 789.646,594.887C789.664,595.337 789.68,595.787 789.698,596.235C793.436,596.235 797.176,596.235 800.492,596.235C799.33,594.587 798.254,593.061 797.178,591.533C798.512,590.441 799.844,589.349 801.528,588.819C802.74,588.611 803.952,588.405 805.272,589.169C805.414,591.687 805.558,594.203 805.7,596.721C805.966,596.667 806.23,596.613 806.496,596.559C806.98,593.761 807.464,590.961 807.948,588.163C808.422,588.287 808.896,588.409 809.37,588.533C809.668,591.251 809.966,593.967 810.354,597.503C811.272,595.961 811.812,595.053 812.116,594.541C813.66,595.659 815.12,596.715 816.664,597.833C815.394,598.321 814.26,598.759 812.684,599.365C818.796,603.623 819.618,596.911 818.11,585.409C815.906,586.497 813.848,587.515 812.886,587.991C809.982,587.253 807.82,586.705 805.062,585.809C803.62,585.909 802.176,586.009 800.138,586.067ZM800.37,633.927C800.514,634.157 800.656,634.385 800.256,634.887C799.216,635.193 798.176,635.499 797.22,634.937C796.97,631.115 795.328,630.911 792.958,631.121C790.97,631.295 788.924,630.191 786.498,629.545C786.528,629.327 786.388,630.333 785.594,631.647C783.28,630.897 783.33,632.941 783.202,635.199C783.114,636.767 782.506,638.279 782.13,639.815C781.746,639.681 781.36,639.547 780.976,639.413C780.646,636.767 780.316,634.121 779.986,631.475C778.05,641.109 778.812,642.477 784.148,641.307C784.958,638.469 785.686,635.919 786.384,634.387C784.656,641.573 790.524,641.075 791.762,645.115C793.622,642.739 795.324,640.567 797.638,638.617C798.916,643.905 801.608,641.371 803.99,641.247C804.176,638.615 804.33,636.417 804.538,633.471C805.278,636.505 805.83,638.769 806.516,641.585C807.27,637.533 807.822,634.573 808.372,631.615C808.16,632.235 807.948,632.857 807.736,633.479C807.106,631.779 806.478,630.077 805.836,628.339C805.3,629.809 804.76,631.291 804.562,631.837C802.514,631.579 800.86,631.369 799.204,631.159C799.458,631.845 799.712,632.529 800.37,633.927ZM912.452,543.841C911.1,540.063 909.22,541.003 906.252,542.813C908.268,543.409 909.346,543.727 911.142,544.255C909.862,544.921 909.18,544.981 908.898,545.477C908.08,546.917 907.422,548.533 906.7,550.081C907.818,550.763 908.896,551.685 910.066,552.035C910.77,552.247 911.614,551.573 912.734,550.625C913.594,552.029 914.452,553.431 915.312,554.835C919.606,558.243 921.014,553.075 919.616,540.409C917.046,541.953 914.752,543.333 912.452,543.841ZM972.17,544.629C970.654,545.385 969.14,546.143 967.556,546.933C967.216,545.153 966.876,543.383 966.268,540.215C965.458,544.581 964.938,547.379 964.418,550.175C963.988,550.047 963.56,549.917 963.13,549.787C962.808,547.071 962.486,544.355 962.164,541.641C961.774,541.685 961.384,541.731 960.994,541.775C960.994,544.103 960.752,546.503 961.086,548.733C961.286,550.069 962.342,552.097 963.1,552.173C966.696,552.535 970.324,552.335 975.102,552.335C974.066,547.929 973.33,544.799 971.96,541.363C970.844,541.591 969.728,541.821 968.612,542.049C968.644,542.445 968.678,542.841 968.71,543.239C969.978,543.483 971.244,543.727 972.17,544.629ZM1024.314,545.189C1025.1,551.789 1027.084,553.931 1030.136,551.659C1031.282,550.807 1032.646,550.515 1034.158,549.861C1033.746,546.585 1033.258,542.697 1032.778,538.873C1032.562,540.617 1032.324,542.533 1031.932,545.687C1029.49,538.105 1025.948,542.975 1022.694,543.325C1022.276,544.407 1021.858,545.489 1021.304,546.923C1020.328,544.747 1019.57,543.061 1018.812,541.373C1018.452,541.635 1018.09,541.897 1017.728,542.159C1018.708,545.527 1019.686,548.895 1020.666,552.261C1021.054,552.199 1021.442,552.135 1021.832,552.071C1022.466,549.687 1023.1,547.301 1024.314,545.189ZM938.768,499.121C938.768,499.121 938.806,499.159 938.76,498.397C937.098,495.493 934.764,495.717 933.77,498.311C932.966,500.411 933.6,506.073 933.956,506.135C937.464,506.737 941.05,506.581 944.608,506.435C945.402,506.401 946.178,505.559 946.906,505.963C947.424,505.163 948.108,504.471 948.424,503.539C948.942,502.019 949.222,500.345 949.602,498.735C950.026,498.915 950.45,499.093 950.876,499.273C951.116,501.975 951.354,504.677 951.594,507.379C952.016,507.325 952.438,507.271 952.86,507.217C952.86,504.897 953.342,502.269 952.71,500.347C952.182,498.737 950.446,497.361 949.074,496.923C946.574,496.127 946.64,498.685 946.25,500.683C943.518,495.373 942.338,495.121 938.768,499.121ZM1014.072,453.515C1009.894,450.549 1005.708,452.349 1001.526,452.147C1001.496,452.779 1001.466,453.411 1001.436,454.041C1002.916,454.411 1004.398,454.779 1006.536,455.311C1006.536,461.495 1006.536,467.695 1006.536,473.893C1007.066,473.913 1007.596,473.935 1008.126,473.955C1008.126,467.683 1008.126,461.411 1008.126,454.963C1010.91,454.653 1012.81,454.441 1014.61,455.335C1014.61,461.359 1014.61,467.383 1014.61,473.179C1017.902,473.179 1020.71,473.179 1023.518,473.179C1023.542,472.653 1023.568,472.129 1023.594,471.605C1021.466,471.223 1019.338,470.841 1017.308,470.477C1017.308,468.049 1017.308,466.061 1017.308,464.121C1019.352,463.819 1021.12,463.557 1022.888,463.295C1022.91,462.723 1022.93,462.151 1022.95,461.579C1021.092,461.307 1019.234,461.035 1017.254,460.745C1017.254,458.697 1017.254,456.889 1017.254,455.035C1019.414,454.703 1021.366,454.403 1023.318,454.105C1023.262,453.357 1023.208,452.609 1023.152,451.861C1020.34,452.197 1017.528,452.531 1014.072,453.515ZM966.51,572.305C968.844,576.653 971.084,574.865 973.592,571.627C973.85,572.909 974.092,574.107 974.334,575.305C974.59,574.841 974.844,574.379 975.1,573.917C975.664,571.253 976.23,568.589 976.794,565.925C977.22,566.089 977.646,566.253 978.072,566.417C978.34,569.107 978.606,571.797 978.872,574.487C979.402,574.361 979.932,574.237 980.462,574.111C979.946,570.851 979.936,567.105 978.67,564.561C978.14,563.495 974.944,564.975 972.432,565.385C970.63,561.893 968.286,563.287 965.97,565.739C964.208,562.255 961.86,563.083 960.878,565.871C960.154,567.923 960.622,571.805 961.662,573.719C962.59,575.423 965.138,576.065 966.51,572.305ZM1037.16,452.845C1032.33,449.449 1033.388,458.197 1030.878,458.905C1029.288,456.311 1027.806,453.891 1026.322,451.471C1025.776,451.791 1025.228,452.113 1024.68,452.435C1030.184,459.583 1029.044,466.547 1024.376,473.415C1024.934,473.751 1025.492,474.087 1026.048,474.423C1027.644,471.687 1029.238,468.949 1030.824,466.225C1033.102,467.775 1032.606,474.015 1037.082,473.731C1035.838,470.809 1034.94,468.711 1034.052,466.607C1032.032,461.821 1033.646,456.025 1038.004,454.377C1039.2,454.555 1040.398,454.735 1041.54,454.907C1042.956,461.123 1040.472,468.021 1042.952,473.815C1043.404,473.765 1043.856,473.715 1044.306,473.665C1044.306,467.377 1044.306,461.087 1044.306,455.045C1046.314,454.589 1047.708,454.273 1049.102,453.955C1049.038,453.265 1048.974,452.575 1048.91,451.883C1045.182,452.189 1041.454,452.495 1037.16,452.845ZM946.528,566.131C943.878,561.579 941.786,563.449 939.884,567.291C937.788,563.257 934.294,562.509 928.994,565.135C929.142,568.163 929.294,571.297 929.446,574.433C929.758,574.439 930.07,574.445 930.382,574.451C930.84,571.711 931.296,568.973 931.752,566.235C932.092,566.317 932.432,566.399 932.774,566.481C933.084,569.151 933.394,571.819 933.706,574.487C933.976,574.433 934.244,574.381 934.514,574.327C934.966,571.627 935.418,568.925 935.87,566.225C936.304,566.309 936.738,566.393 937.172,566.477C937.45,569.139 937.728,571.799 937.948,573.901C940.278,572.509 942.52,571.385 944.596,569.837C945.548,569.125 946.176,567.579 947.606,566.751C947.684,568.449 947.402,570.433 947.948,571.763C948.47,573.031 949.802,574.141 950.876,574.345C951.814,574.523 954.06,576.303 953.734,572.315C953.726,572.211 953.922,572.075 954.022,571.953C953.944,571.883 953.866,571.813 953.788,571.743C953.698,572.193 953.608,572.643 953.518,573.093C952.254,572.655 949.998,572.453 949.908,571.733C949.618,569.409 950.126,566.893 950.306,564.701C949.916,563.747 949.296,562.221 948.33,559.847C947.712,562.981 947.364,564.745 946.528,566.131ZM877.732,550.795C877.56,547.899 877.388,545.003 877.216,542.107C875.022,542.751 872.828,543.395 870.142,544.185C870.042,543.053 869.852,540.899 869.624,538.299C869.352,540.731 869.138,542.669 868.89,544.885C867.788,543.517 867.032,541.795 866.184,541.707C864.862,541.567 862.738,541.989 862.294,543.155C861.574,545.043 861.466,547.979 862.022,549.981C862.364,551.215 864.58,552.441 865.67,552.071C867.668,551.391 869.454,549.527 871.406,548.099C872.766,550.615 873.786,554.885 877.046,550.999C877.046,550.999 877.106,551.011 877.732,550.795ZM980.32,395.023C979.312,399.897 978.304,404.769 977.036,410.901C975.654,403.843 974.594,398.161 973.424,392.521C970.954,380.619 970.93,380.625 961.876,381.435C961.632,381.457 961.404,381.777 960.904,382.161C960.25,396.817 959.586,411.687 958.92,426.611C961.608,426.611 963.714,426.611 965.928,426.611C966.312,416.263 966.682,406.319 967.05,396.373C969.06,404.025 970.498,411.855 972.14,419.601C972.76,422.519 972.398,426.299 976.32,426.285C979.954,426.269 980.132,423.201 980.85,420.021C982.592,412.293 984.358,404.575 986.116,396.853C986.538,396.933 986.96,397.011 987.38,397.091C987.38,406.875 987.38,416.661 987.38,426.707C990.382,426.707 992.63,426.707 995.204,426.707C994.614,411.481 994.038,396.599 993.454,381.543C989.81,381.543 986.698,381.543 983.48,381.543C982.49,385.881 981.54,390.035 980.32,395.023ZM696.768,427.261C700.094,426.295 703.61,425.971 706.71,424.225C713.1,420.629 716.064,411.743 715.418,400.039C714.932,391.247 711.076,384.115 704.464,382.443C698.692,380.983 692.68,381.333 686.736,380.879C686.736,397.149 686.736,411.861 686.736,427.359C690.004,427.359 692.994,427.359 696.768,427.261ZM718.808,408.961C720.11,418.611 723.704,425.505 731.032,427.215C742.94,429.997 750.83,419.163 750.18,401.225C749.776,390.067 744.536,381.939 736.89,380.611C728.934,379.231 721.864,385.115 719.658,395.593C718.836,399.505 719.02,403.823 718.808,408.961ZM781.332,422.129C787.344,428.897 795.648,429.575 801.526,423.779C807.418,417.971 809.752,405.311 806.962,394.301C804.624,385.073 798.646,379.783 791.16,380.563C785.034,381.201 780.378,385.315 778.074,393.253C775.166,403.265 775.55,412.957 781.332,422.129ZM812.684,416.283C812.684,419.799 812.684,423.317 812.684,426.731C815.516,426.731 817.668,426.731 820.264,426.731C820.264,420.849 820.264,415.237 820.264,409.719C825.43,408.847 826.292,409.811 827.706,417.459C829.682,428.137 829.762,428.213 837.744,426.265C835.938,419.123 834.162,412.105 832.234,404.493C835.596,401.433 837.514,396.409 835.858,389.659C834.2,382.897 830.064,381.493 825.66,381.205C821.472,380.929 817.266,381.145 812.684,381.145C812.684,393.179 812.684,404.167 812.684,416.283ZM940.046,381.291C936.296,380.137 934.7,382.661 933.904,387.497C933.028,392.833 931.678,398.021 930.53,403.271C928.842,410.983 927.152,418.695 925.442,426.507C932.954,427.761 933.052,427.799 934.734,419.361C935.35,416.267 936.402,415.461 938.688,415.129C943.298,414.457 946.01,416.287 946.424,423.089C946.5,424.331 947.068,425.517 947.382,426.629C950.07,426.629 952.578,426.629 955.462,426.629C952.45,413.123 949.378,400.197 946.746,387.101C945.792,382.353 944.202,380.445 940.046,381.291ZM1014.204,390.169C1016.37,390.169 1018.536,390.169 1020.894,390.169C1020.894,386.987 1020.894,384.439 1020.894,381.715C1014.054,381.715 1007.438,381.715 1000.958,381.715C1000.958,397.035 1000.958,411.929 1000.958,426.597C1008.11,426.597 1014.91,426.597 1021.6,426.597C1021.6,423.617 1021.6,421.075 1021.6,417.873C1016.962,417.873 1012.654,417.873 1008.418,417.873C1008.418,414.227 1008.418,411.257 1008.418,407.639C1012.524,407.639 1016.416,407.639 1020.234,407.639C1020.234,404.545 1020.234,402.117 1020.234,398.889C1016.186,398.889 1012.306,398.889 1008.406,398.889C1008.406,395.685 1008.406,393.289 1008.406,390.169C1010.214,390.169 1011.816,390.169 1014.204,390.169ZM850.472,422.337C851.13,423.607 851.714,425.875 852.458,425.981C856.5,426.549 860.666,427.395 864.626,426.599C869.5,425.621 872.372,420.557 872.74,414.683C873.13,408.489 871.092,404.077 866.298,400.921C864.446,399.703 862.382,398.977 860.708,397.421C859.648,396.437 858.34,394.047 858.576,392.811C858.846,391.389 860.662,389.715 861.868,389.619C864.4,389.417 866.97,390.177 869.922,390.599C870.386,388.289 870.88,385.823 871.428,383.101C866.654,379.865 861.966,379.643 857.292,381.781C853.534,383.501 851.026,387.095 850.568,392.879C850.104,398.745 852.152,402.747 855.63,405.459C857.526,406.937 859.832,407.509 861.58,409.223C862.934,410.551 863.706,413.017 864.738,414.977C863.232,416.297 861.746,418.657 860.218,418.711C857.444,418.807 854.646,417.531 851.618,416.767C851.29,418.269 850.938,419.869 850.472,422.337ZM1046.73,381.211C1039.352,381.211 1031.976,381.211 1024.654,381.211C1024.654,384.541 1024.654,387.257 1024.654,390.453C1027.552,390.453 1030.11,390.453 1033.13,390.453C1033.13,402.821 1033.13,414.711 1033.13,426.557C1035.994,426.557 1038.358,426.557 1041.162,426.557C1041.162,414.197 1041.162,402.329 1041.162,390.021C1044.18,390.021 1046.744,390.021 1049.718,390.021C1048.994,386.643 1051.884,382.369 1046.73,381.211ZM907.856,381.297C901.61,381.297 895.364,381.297 889.244,381.297C889.244,384.761 889.244,387.293 889.244,390.313C892.156,390.313 894.706,390.313 897.632,390.313C897.632,402.707 897.632,414.607 897.632,426.687C900.274,426.687 902.524,426.687 905.216,426.687C905.216,414.475 905.216,402.579 905.216,390.423C908.44,390.215 911.232,390.037 913.902,389.867C913.902,386.641 913.902,384.101 913.902,381.297C911.94,381.297 910.304,381.297 907.856,381.297ZM775.496,418.859C771.246,418.417 766.996,417.977 762.376,417.495C762.376,405.307 762.376,393.457 762.376,381.691C759.726,381.691 757.48,381.691 755.286,381.691C755.286,396.941 755.286,411.803 755.286,426.581C762.202,426.581 768.82,426.581 775.594,426.581C775.594,424.075 775.594,421.997 775.496,418.859ZM885.228,399.209C885.228,393.395 885.228,387.579 885.228,381.629C882.542,381.629 880.296,381.629 877.918,381.629C877.918,396.783 877.918,411.627 877.918,426.679C880.406,426.679 882.644,426.679 885.228,426.679C885.228,417.691 885.228,409.021 885.228,399.209ZM750.172,359.475C750.512,361.749 751.082,364.011 751.138,366.297C751.23,370.069 752.442,370.809 755.116,369.513C754.788,362.611 754.462,355.709 754.136,348.837C746.398,346.837 749.308,357.239 746.278,360.309C743.622,348.215 743.622,348.215 738.876,349.059C738.574,355.871 738.268,362.795 737.916,370.763C739.47,369.853 740.974,369.619 741.308,368.629C741.85,367.021 741.626,364.917 741.728,363.021C741.804,361.565 741.884,360.107 741.962,358.651C743.032,361.567 743.528,364.513 744.278,367.327C744.55,368.351 745.554,369.883 745.998,369.749C746.854,369.489 747.856,368.413 748.242,367.305C749.008,365.105 749.396,362.653 750.172,359.475ZM812.724,363.039C812.77,361.627 812.818,360.217 812.864,358.805C814.006,361.303 814.436,364.027 815.214,366.547C815.618,367.859 816.634,368.811 817.374,369.925C818.088,368.775 819.02,367.769 819.47,366.447C820.252,364.143 820.74,361.647 821.35,359.229C822.142,361.733 822.276,364.137 822.412,366.543C822.62,370.211 822.622,370.211 826.164,369.245C825.852,362.431 825.536,355.575 825.234,348.971C817.616,346.605 820.502,356.971 817.516,359.685C815.02,356.103 817.534,346.401 809.928,349.077C809.654,355.967 809.378,362.885 809.106,369.711C813.856,371.315 812.274,366.591 812.724,363.039ZM952.864,452.043C952.15,452.409 950.842,452.693 950.81,453.149C950.342,459.961 950.042,466.797 949.704,473.617C950.672,473.617 951.16,473.677 951.168,473.609C951.774,469.329 952.338,465.039 953.032,459.807C954.482,465.013 955.706,469.413 956.93,473.813C957.324,473.815 957.716,473.817 958.108,473.821C959.502,469.137 960.896,464.453 962.548,458.905C963.072,464.655 963.498,469.337 963.926,474.019C964.318,473.923 964.71,473.829 965.102,473.735C965.102,467.855 965.196,461.973 965.032,456.103C964.994,454.723 964.092,453.391 963.588,452.037C962.718,453.199 961.524,454.151 961.044,455.567C959.862,459.059 959.006,462.765 957.768,467.315C956.114,461.611 954.768,456.969 952.864,452.043ZM970.904,460.843C971.018,460.577 971.106,460.277 971.258,460.061C971.314,459.981 971.614,460.047 971.638,460.135C972.898,464.721 974.14,469.319 975.384,473.915C975.792,473.829 976.2,473.741 976.608,473.655C977.912,469.229 979.216,464.803 980.928,458.989C981.514,464.979 981.956,469.507 982.398,474.035C982.986,473.897 983.574,473.757 984.164,473.619C983.856,466.589 983.548,459.559 983.186,451.241C977.57,454.475 978.9,462.433 976.114,466.657C973.236,462.731 975.058,454.261 969.114,451.259C968.798,459.527 968.528,466.639 968.256,473.749C968.896,473.829 969.536,473.907 970.176,473.985C970.41,469.905 970.644,465.823 970.904,460.843ZM811.28,459.989C810.664,462.315 810.046,464.641 809.186,467.891C807.844,462.553 806.92,458.385 805.708,454.385C805.394,453.345 804.182,452.823 803.382,452.065C802.94,453.059 802.182,454.007 802.104,455.053C801.718,460.329 801.458,465.627 801.284,470.925C801.25,471.919 801.802,472.949 802.084,473.963C802.452,473.919 802.82,473.877 803.19,473.835C803.512,469.453 803.836,465.073 804.158,460.691C804.394,460.683 804.63,460.673 804.866,460.665C806.026,465.073 807.184,469.483 808.342,473.891C808.796,473.853 809.25,473.813 809.702,473.773C811.074,469.069 812.444,464.365 814.154,458.495C814.588,464.613 814.922,469.315 815.256,474.017C815.754,473.931 816.252,473.845 816.75,473.761C816.75,469.203 816.936,464.623 816.682,460.093C816.528,457.369 815.69,454.719 815.16,452.037C813.96,454.427 812.762,456.819 811.28,459.989ZM868.93,460.475C868.338,458.147 867.856,455.745 867.09,453.533C866.834,452.793 865.862,452.219 865.196,452.173C864.76,452.143 863.916,453.153 863.882,453.767C863.502,460.391 863.248,467.027 862.958,473.659C863.54,473.769 864.12,473.881 864.7,473.991C865.104,469.719 865.508,465.447 866.066,459.559C867.73,465.353 868.94,469.561 870.15,473.769C870.566,473.797 870.984,473.827 871.402,473.855C872.804,468.869 874.206,463.883 875.79,458.247C876.264,464.107 876.66,469.011 877.056,473.913C877.648,473.813 878.24,473.711 878.832,473.609C878.588,466.559 878.342,459.509 878.048,451.095C872.432,454.489 873.548,462.397 870.736,467.083C870.186,465.031 869.684,463.155 868.93,460.475ZM746.388,460.517C746.584,460.301 746.768,460.049 746.984,459.887C747.082,459.813 747.368,459.903 747.37,459.935C747.496,463.147 747.506,466.377 747.756,469.571C747.874,471.085 748.448,472.531 748.816,474.007C749.28,473.869 749.742,473.731 750.206,473.591C749.892,466.431 749.576,459.271 749.192,450.489C743.926,454.893 744.746,462.269 742.202,466.723C736.904,452.435 736.904,452.435 735.13,452.827C734.85,459.733 734.568,466.685 734.288,473.637C734.9,473.717 735.512,473.797 736.124,473.875C736.476,468.967 736.828,464.059 737.242,458.307C738.746,463.985 740.052,468.913 741.358,473.839C741.848,473.821 742.338,473.801 742.828,473.783C743.926,469.625 745.022,465.465 746.388,460.517ZM707.778,350.257C704.506,347.491 701.214,347.357 698.32,350.967C695.63,354.323 695.164,358.795 696.164,363.505C697.07,367.771 699.196,370.227 702.4,370.529C705.448,370.815 708.24,369.657 709.62,365.569C711.364,360.409 711.318,355.293 707.778,350.257ZM719.696,365.953C720.148,369.743 721.562,371.205 724.324,369.541C723.904,364.911 721.138,360.579 723.618,355.355C724.018,354.517 722.06,350.095 720.644,349.365C718.392,348.203 715.68,348.751 712.8,348.551C712.8,355.157 712.88,360.825 712.774,366.485C712.694,370.673 714.146,370.651 716.256,369.513C716.406,366.941 716.542,364.593 716.788,360.367C718.238,362.815 718.9,363.931 719.696,365.953ZM806.65,354.827C806.362,351.985 807.776,347.225 802.838,349.107C802.838,353.227 803.104,357.409 802.712,361.467C802.548,363.179 800.998,364.635 800.078,366.207C799.318,364.637 798.032,363.147 797.902,361.483C797.584,357.399 797.798,353.237 797.798,349.141C795.204,348.027 793.662,348.141 793.792,352.247C793.906,355.843 793.674,359.473 793.92,363.047C794.254,367.911 796.454,370.613 799.932,370.673C803.464,370.735 806.042,368.545 806.494,363.241C806.702,360.805 806.608,358.321 806.65,354.827ZM777.192,361.641C780.788,356.901 780.708,351.417 776.796,349.489C774.816,348.513 772.498,348.565 770.35,348.695C769.69,348.735 768.576,350.551 768.546,351.601C768.372,357.637 768.46,363.687 768.46,369.569C773.948,371.885 771.452,365.561 772.634,363.317C773.94,362.899 775.268,362.473 777.192,361.641ZM730.152,364.857C729.678,358.641 733.6,362.685 735.784,359.705C734.796,358.689 733.926,357.645 732.954,356.833C731.994,356.035 730.932,355.473 729.916,354.807C730.096,354.287 730.278,353.769 730.458,353.249C732.186,353.073 733.914,352.895 735.632,352.719C735.498,348.061 733.498,347.357 726.39,349.205C726.39,356.073 726.39,362.957 726.39,369.811C729.752,369.811 732.834,369.811 736.104,369.811C735.968,363.487 732.364,367.079 730.152,364.857ZM790.95,351.215C789.942,346.675 787.172,348.089 785.328,348.825C783.792,349.439 781.858,351.849 781.602,353.833C781.354,355.767 782.75,358.507 783.916,360.267C784.968,361.859 786.686,362.605 788.11,363.723C788,364.273 787.892,364.823 787.782,365.375C785.806,365.375 783.83,365.375 781.504,365.375C781.504,366.929 781.39,368.869 781.52,368.901C783.716,369.437 786.08,370.511 788.118,369.825C789.578,369.333 791.426,366.545 791.602,364.531C791.772,362.569 790.258,360.005 789.074,358.231C788.042,356.685 786.438,355.873 784.102,353.909C787.21,353.033 788.936,352.547 790.95,351.215ZM930.99,454.641C927.654,451.091 924.008,450.935 920.214,452.529C920.214,459.667 920.214,466.587 920.214,473.637C924.64,474.101 928.924,474.817 931.626,469.179C933.764,464.713 933.664,459.869 930.99,454.641ZM1007.702,517.269C1005.946,518.953 1004.192,520.639 1003.092,521.695C1001.35,520.713 999.596,518.801 998.254,519.251C997.124,519.631 995.866,522.717 995.8,524.681C995.742,526.371 997.222,529.539 998.13,529.617C999.738,529.753 1001.43,528.039 1002.304,527.545C1004.564,528.495 1006.718,529.399 1009.42,530.535C1009.42,524.867 1009.446,520.903 1009.352,516.945C1009.346,516.733 1008.34,516.565 1007.702,517.269ZM775.078,593.783C775.078,590.071 775.078,586.361 775.078,582.365C772.38,585.055 770.17,587.257 768.816,588.607C766.35,587.403 764.478,586.489 762.762,585.651C762.3,588.621 761.67,590.429 761.858,592.057C762.066,593.859 763.226,597.057 763.618,596.957C766.804,596.149 769.932,596.477 773.106,596.749C773.724,596.801 774.404,595.451 775.078,593.783ZM695.218,457.071C693.178,466.015 695.138,472.803 700.088,473.951C703.762,474.801 706.874,472.273 708.164,467.387C709.666,461.695 708.354,455.295 705.162,452.753C701.944,450.191 698.4,451.499 695.218,457.071ZM717.83,467.845C718.504,469.883 719.178,471.923 719.852,473.963C720.264,473.747 720.674,473.531 721.086,473.313C720.764,468.313 717.942,463.493 720.596,458.125C720.962,457.389 719.1,453.191 717.762,452.507C715.812,451.513 713.4,452.251 711.682,452.251C711.682,459.955 711.682,466.881 711.682,473.805C712.062,473.811 712.44,473.819 712.82,473.825C713.054,470.843 713.286,467.863 713.622,463.567C715.34,465.023 716.472,465.983 717.83,467.845ZM923.962,612.001C924.196,614.355 924.43,616.709 924.662,619.061C924.9,619.005 925.138,618.947 925.376,618.889C925.836,616.225 926.294,613.561 926.754,610.899C927.148,611.007 927.544,611.117 927.938,611.225C928.186,613.763 928.432,616.301 928.66,618.653C931.536,618.893 934.19,619.117 937.77,619.417C937.012,615.299 936.706,611.987 935.688,609.169C935.404,608.381 933.02,609.049 931.598,609.049C931.6,609.517 931.602,609.985 931.604,610.453C932.738,610.751 933.872,611.049 935.542,611.487C933.476,612.471 932.01,613.169 930.576,613.853C928.956,607.851 927.786,607.391 919.828,609.517C919.936,612.713 920.046,615.959 920.154,619.205C920.564,619.183 920.974,619.163 921.382,619.143C921.448,617.323 921.294,615.411 921.662,613.717C921.884,612.691 922.918,612.003 923.962,612.001ZM788.746,452.517C788.046,452.923 786.732,453.339 786.736,453.733C786.782,458.837 786.558,464.093 787.414,468.969C787.784,471.069 790.554,473.825 792.118,473.691C794.126,473.519 797.258,471.215 797.708,468.981C798.708,464.017 798.382,458.525 798.45,453.245C798.456,452.845 797.3,452.415 796.124,451.617C796.124,456.917 796.48,461.507 795.964,465.901C795.73,467.895 793.768,469.501 792.59,471.283C791.484,469.647 789.656,468.191 789.416,466.341C788.862,462.101 789.084,457.667 788.746,452.517ZM723.372,452.747C723.372,459.671 723.372,466.597 723.372,473.061C726.596,473.061 729.474,473.061 732.354,473.061C732.354,472.537 732.354,472.011 732.354,471.485C730.184,471.117 728.014,470.747 725.762,470.365C725.762,468.149 725.762,466.303 725.762,464.217C727.78,463.903 729.67,463.611 732.294,463.203C725.71,458.107 725.71,458.107 726.264,454.955C728.148,454.721 730.052,454.483 731.956,454.247C731.956,453.551 731.956,452.853 731.956,452.157C729.284,452.157 726.61,452.157 723.372,452.747ZM1047.266,597.075C1048.078,596.575 1049.566,596.137 1049.592,595.567C1049.79,591.263 1049.7,586.933 1049.7,582.333C1046.98,585.247 1044.918,587.453 1043.626,588.835C1041.674,587.879 1039.916,586.283 1038.302,586.523C1037.412,586.655 1036.156,589.879 1036.17,591.693C1036.184,593.507 1037.518,596.727 1038.378,596.793C1040.032,596.923 1041.758,595.263 1043.246,594.459C1044.062,595.125 1045.338,596.167 1047.266,597.075ZM935.248,460.797C935.328,463.255 934.92,466.033 935.618,468.089C936.398,470.383 938.056,473.349 939.558,473.621C941.514,473.977 944.656,472.829 945.594,470.815C948.286,465.043 946.816,458.473 946.102,452.103C945.15,453.051 944.716,454.101 944.674,455.181C944.568,458.019 944.654,460.869 944.622,463.715C944.58,467.289 944.322,471.147 940.988,471.113C937.812,471.079 937.752,467.287 937.724,463.965C937.698,460.929 937.812,457.885 937.662,454.865C937.61,453.793 936.962,452.777 936.586,451.735C936.14,451.877 935.694,452.021 935.248,452.163C935.248,454.709 935.248,457.255 935.248,460.797ZM1022.294,597.097C1023.704,596.669 1025.114,596.241 1026.452,595.833C1026.8,593.357 1027.156,590.829 1027.51,588.301C1027.926,588.327 1028.342,588.353 1028.758,588.377C1029.14,591.169 1029.522,593.961 1029.904,596.753C1030.176,596.695 1030.448,596.637 1030.72,596.579C1031.01,593.835 1031.298,591.089 1031.586,588.345C1032.016,588.323 1032.444,588.301 1032.872,588.281C1033.254,591.085 1033.636,593.891 1034.122,597.467C1036.338,589.389 1035.374,587.023 1030.604,586.857C1027.782,586.761 1024.962,586.025 1022.152,586.135C1021.05,586.179 1019.98,587.753 1018.894,588.629C1019.49,589.923 1020.022,591.287 1020.708,592.483C1021.11,593.185 1021.754,593.617 1022.88,594.781C1020.958,594.781 1019.872,594.781 1018.784,594.781C1018.724,595.193 1018.666,595.605 1018.608,596.015C1019.628,596.425 1020.65,596.833 1022.294,597.097ZM881.81,452.937C881.986,459.915 880.878,467.049 882.404,473.863C882.81,473.873 883.216,473.885 883.622,473.895C883.926,471.117 884.23,468.337 884.552,465.399C885.454,465.285 886.118,465.215 886.782,465.117C889.838,464.663 891.504,462.309 891.484,458.047C891.462,453.781 889.408,452.097 886.692,451.817C885.226,451.665 883.732,452.077 881.81,452.937ZM693.302,365.643C692.134,365.521 690.966,365.399 689.58,365.255C689.58,361.395 689.628,358.017 689.566,354.641C689.508,351.553 690.414,347.177 685.95,348.993C685.95,355.927 685.95,362.805 685.95,369.789C689.234,369.789 692.294,369.789 696.346,369.789C695.246,367.831 694.64,366.749 693.302,365.643ZM870.466,521.687C874.07,521.709 871.882,525.647 872.562,527.647C872.798,528.343 872.992,529.069 873.51,530.805C874.106,528.435 874.42,527.189 874.392,527.295C876.27,528.203 878.038,529.813 879.638,529.541C880.564,529.385 881.83,526.193 881.826,524.371C881.824,522.577 880.518,519.437 879.592,519.295C878,519.053 876.26,520.683 874.424,521.605C873.898,517.293 870.876,519.203 868.4,519.371C868.4,522.891 868.4,526.235 868.4,529.579C868.702,529.599 869.004,529.617 869.306,529.637C869.508,527.175 869.71,524.711 870.466,521.687ZM763.304,457.763C763.382,463.135 763.462,468.507 763.54,473.879C764.1,473.885 764.662,473.889 765.222,473.895C765.468,471.151 765.714,468.405 765.95,465.777C767.628,465.245 769.648,465.441 770.38,464.189C771.664,461.991 773.084,458.693 772.788,456.239C772.236,451.659 768.964,451.655 766.188,451.587C763.612,451.523 762.942,453.577 763.304,457.763ZM775.084,458.319C776.74,460.349 778.474,462.269 780.014,464.453C780.788,465.549 781.918,467.699 781.638,468.359C781.07,469.701 779.73,470.767 778.566,471.169C777.484,471.545 776.218,470.913 775.034,470.725C774.99,471.583 774.948,472.439 774.906,473.297C777.096,473.331 779.446,474.047 781.42,473.159C782.696,472.583 784.442,469.283 784.17,467.871C783.692,465.385 781.864,463.367 780.524,461.247C780.192,460.719 779.402,460.719 779.106,460.177C778.508,459.089 777.554,457.545 777.764,456.651C777.996,455.669 779.324,454.915 780.268,454.597C781.298,454.251 782.436,454.519 784.462,454.519C779.752,449.755 776.614,451.213 775.084,458.319ZM974.286,522.031C974.126,521.103 973.968,520.175 973.808,519.247C973.536,519.267 973.262,519.287 972.99,519.307C972.79,521.969 972.588,524.631 972.376,527.427C967.568,527.863 970.342,522.139 968.98,519.999C968.074,519.999 967.192,519.937 966.316,520.011C964.73,520.147 962.254,519.609 961.764,520.717C960.938,522.593 960.658,526.249 961.48,527.815C962.23,529.243 964.738,529.003 966.488,529.267C967.198,529.373 967.976,528.579 968.684,528.687C970.424,528.957 972.142,529.511 974.288,530.057C974.288,527.081 974.288,525.033 974.286,522.031ZM925.244,543.887C925.596,546.407 925.95,548.929 926.282,551.303C929.112,551.563 931.82,551.809 935.62,552.157C934.632,547.765 934.156,544.567 933.106,541.785C932.864,541.143 930.652,541.919 929.352,542.101C929.306,542.107 929.308,542.745 929.276,543.279C930.354,543.489 931.43,543.699 932.856,543.977C930.988,545.419 929.516,546.557 927.57,548.059C928.426,540.371 925.308,540.755 921.84,542.041C921.84,545.453 921.84,548.607 921.84,553.231C923.028,549.063 923.784,546.409 925.244,543.887ZM849.882,451.693C847.09,452.691 845.312,455.173 846.394,459.053C846.972,461.123 849.14,462.269 850.432,464.053C851.392,465.379 852.096,467.057 852.914,468.579C851.554,469.403 850.232,470.427 848.816,470.977C847.96,471.309 846.956,470.905 846.018,470.831C845.972,471.633 845.928,472.435 845.882,473.237C848.07,473.309 850.414,474.071 852.388,473.207C853.688,472.639 855.49,469.369 855.232,467.949C854.782,465.471 852.952,463.447 851.622,461.323C851.292,460.795 850.528,460.781 850.214,460.249C849.58,459.179 848.584,457.749 848.74,456.777C848.894,455.823 850.23,454.949 851.156,454.589C852.26,454.161 853.48,454.317 854.65,454.221C854.664,453.621 854.678,453.019 854.692,452.417C853.298,452.139 851.906,451.859 849.882,451.693ZM839.084,465.949C837.454,464.111 835.73,462.401 834.228,460.379C833.464,459.349 833.096,457.753 832.548,456.413C833.45,455.779 834.31,454.927 835.266,454.573C836.24,454.213 837.308,454.343 838.334,454.259C835.384,450.629 832.37,450.633 830.582,454.745C828.6,459.297 830.882,462.087 833.88,463.805C834.132,463.951 834.482,464.007 834.616,464.271C835.328,465.687 835.986,467.159 836.662,468.611C835.434,469.457 834.258,470.569 832.96,471.055C832.09,471.383 831.044,470.825 830.076,470.663C829.994,471.401 829.912,472.141 829.83,472.881C831.824,473.161 834.154,474.443 835.718,473.437C837.268,472.441 838.048,469.141 839.084,465.949ZM906.096,467.777C906.3,469.865 906.504,471.953 906.842,475.431C909.14,466.495 910.972,459.375 912.804,452.253C912.586,451.983 912.368,451.713 912.15,451.443C910.594,454.427 909.038,457.409 907.478,460.399C905.892,457.309 904.37,454.349 902.848,451.389C902.524,451.739 902.2,452.091 901.874,452.441C903.28,457.231 904.688,462.021 906.096,467.777ZM993.722,462.219C995.006,459.049 996.292,455.879 997.578,452.711C997.104,452.283 996.628,451.855 996.154,451.427C994.65,454.459 993.148,457.493 991.606,460.605C987.848,452.663 987.848,452.663 986.444,452.685C988.106,459.675 989.806,466.821 991.882,475.549C992.5,470.227 992.92,466.613 993.722,462.219ZM1049.654,499.319C1050.646,498.979 1051.638,498.641 1053.71,497.931C1052.038,497.139 1051.536,496.669 1051.056,496.713C1048.704,496.923 1046.424,499.107 1043.934,496.767C1043.566,496.423 1041.85,498.089 1041.262,499.297C1041.024,499.789 1042.06,501.615 1042.652,502.689C1043.06,503.433 1043.7,503.933 1044.552,504.899C1043.016,505.167 1042.018,505.341 1041.02,505.515C1041.048,506.187 1041.074,506.859 1041.1,507.531C1044.944,505.931 1048.818,506.965 1052.674,506.363C1048.724,504.491 1048.724,504.491 1049.654,499.319ZM690.122,473.959C691.484,473.839 692.846,473.721 694.208,473.601C694.234,472.959 694.258,472.317 694.284,471.675C692.224,471.205 690.162,470.737 687.472,470.125C687.472,464.035 687.472,458.003 687.472,451.293C684.916,454.195 684.354,465.793 685.85,473.959C686.982,473.959 688.196,473.959 690.122,473.959ZM896.258,467.625C896.258,462.439 896.258,457.253 896.258,451.333C893.454,454.013 892.84,465.505 894.242,473.201C897.102,473.201 899.898,473.201 902.696,473.201C902.73,472.649 902.764,472.097 902.798,471.545C901.72,471.321 900.602,471.279 899.58,470.827C898.438,470.321 897.384,469.443 896.258,467.625ZM811.1,608.411C810.644,607.561 810.19,606.709 809.734,605.859C809.732,606.411 809.728,606.963 809.726,607.515C807.008,608.157 804.288,608.797 801.686,609.411C801.686,612.625 801.686,615.903 801.686,619.179C802.09,619.187 802.494,619.195 802.896,619.203C802.896,617.441 802.728,615.637 802.96,613.937C803.1,612.903 803.856,612.029 804.336,611.083C804.816,612.043 805.532,612.923 805.722,613.983C806.014,615.623 805.948,617.385 806.034,619.095C806.406,619.101 806.78,619.109 807.152,619.115C807.392,616.483 807.634,613.849 807.908,610.835C809.81,613.489 807.08,620.753 812.978,618.867C810.626,615.941 808.75,613.083 812.412,610.095C812.174,609.605 811.936,609.117 811.1,608.411ZM802.304,546.549C802.93,545.099 803.556,543.649 804.172,542.225C803.3,541.207 802.402,540.157 801.592,539.209C800.316,540.317 799.058,541.409 797.932,542.387C797.506,545.029 797.09,547.607 796.672,550.185C796.166,550.099 795.66,550.013 795.156,549.927C794.85,547.189 794.544,544.451 794.238,541.713C793.812,541.761 793.386,541.811 792.958,541.861C793.186,544.943 792.894,548.403 793.858,550.949C794.344,552.231 797.11,551.855 799.01,552.267C799.242,548.901 799.408,546.487 799.576,544.075C801.184,552.371 801.184,552.371 803.996,551.315C803.454,550.099 802.88,548.811 802.304,546.549ZM899.526,608.473C898.356,610.219 896.154,611.997 896.182,613.707C896.348,624.085 901.528,617.119 904.246,617.613C904.57,615.475 904.934,613.085 905.23,611.141C903.628,610.313 901.892,609.417 899.526,608.473ZM1002.67,502.519C1003.5,504.051 1004.332,505.581 1005.118,507.029C1006.01,503.771 1006.92,500.449 1008.024,496.417C1006.5,497.181 1004.942,497.961 1003.384,498.741C1001.752,497.895 999.31,496.659 997.982,497.837C995.784,499.783 995.886,503.425 997.77,506.243C999.246,508.449 1001.318,507.949 1002.822,505.477C1001.448,504.969 999.992,504.433 998.536,503.897C998.6,503.513 998.662,503.127 998.726,502.743C999.808,502.675 1000.892,502.607 1002.67,502.519ZM856.336,518.835C855.156,519.001 853.976,519.165 852.934,519.311C852.934,523.009 852.934,526.343 852.934,529.677C853.186,529.701 853.438,529.725 853.69,529.749C854.16,526.873 854.628,523.999 855.098,521.125C855.472,521.231 855.846,521.337 856.22,521.445C856.468,524.229 856.716,527.015 856.964,529.801C857.252,529.777 857.54,529.755 857.828,529.733C858.296,526.871 858.764,524.009 859.232,521.149C859.612,521.259 859.992,521.371 860.372,521.483C860.608,524.249 860.844,527.013 861.082,529.779C863.694,521.219 862.696,519.041 856.336,518.835ZM765.74,350.615C764.758,349.739 763.778,348.861 762.11,347.371C762.11,355.949 762.11,362.829 762.11,369.881C763.364,369.881 764.388,369.881 765.754,369.881C765.754,363.651 765.754,357.657 765.74,350.615ZM907.712,521.347C904.772,516.725 901.268,519.865 897.668,519.081C897.834,523.259 897.964,526.495 898.092,529.731C898.392,529.745 898.69,529.759 898.99,529.773C899.464,526.869 899.94,523.965 900.414,521.063C900.778,521.155 901.14,521.245 901.502,521.337C901.8,524.161 902.098,526.983 902.396,529.805C902.64,529.793 902.882,529.781 903.126,529.769C903.596,526.849 904.068,523.931 904.538,521.011C904.904,521.105 905.27,521.199 905.634,521.291C905.922,524.123 906.208,526.955 906.496,529.787C906.924,529.769 907.354,529.751 907.782,529.733C907.782,527.233 907.782,524.735 907.712,521.347ZM786.032,588.459C783.994,587.615 781.954,586.769 779.9,585.917C779.9,591.769 779.9,596.055 779.9,600.247C782.208,598.009 784.232,596.047 786.278,594.061C786.776,594.913 787.282,595.779 787.918,596.867C787.918,591.917 787.918,587.543 787.918,582.329C787.396,584.759 787.036,586.435 786.032,588.459ZM835.684,520.023C835.522,522.843 834.658,526.155 835.444,528.311C835.976,529.769 838.832,529.597 840.694,530.169C840.694,524.413 840.694,519.807 840.694,515.447C839.074,516.915 837.64,518.213 835.684,520.023ZM790.354,608.215C786.96,608.369 785.254,610.795 785.846,615.457C786.578,621.215 789.538,619.441 792.064,618.801C792.064,614.009 792.064,609.429 792.064,604.847C791.85,604.793 791.636,604.739 791.422,604.685C791.14,605.591 790.858,606.499 790.354,608.215ZM1030.804,506.027C1030.904,507.701 1031.002,509.375 1031.082,510.755C1032.71,509.371 1033.994,508.465 1035.112,507.265C1035.914,506.405 1036.782,505.299 1037.124,504.043C1038.628,498.537 1036.482,496.153 1030.806,497.311C1030.806,499.849 1030.806,502.455 1030.804,506.027ZM896.234,588.585C896.68,591.321 897.126,594.059 897.572,596.795C897.786,596.777 897.998,596.757 898.21,596.739C898.656,593.929 899.1,591.119 899.544,588.309C899.904,588.361 900.262,588.411 900.62,588.463C900.916,591.231 901.21,594.001 901.602,597.689C903.612,591.549 903.174,586.367 900.928,586.141C898.356,585.883 895.742,586.379 893.27,586.539C893.27,590.305 893.27,593.501 893.27,596.697C893.504,596.721 893.738,596.745 893.972,596.769C894.496,594.039 895.022,591.307 896.234,588.585ZM942.292,594.743C942.568,595.423 942.846,596.103 943.43,597.543C944.034,593.845 944.488,591.063 944.942,588.283C945.28,588.367 945.62,588.449 945.958,588.533C946.276,591.283 946.594,594.035 946.912,596.785C947.338,596.741 947.764,596.697 948.19,596.653C948.19,594.319 948.434,591.915 948.098,589.679C947.894,588.327 946.842,586.277 946.08,586.197C943.526,585.931 940.932,586.411 938.028,586.629C938.208,590.435 938.358,593.563 938.506,596.689C938.82,596.693 939.134,596.697 939.448,596.701C939.89,593.889 940.334,591.077 940.776,588.265C941.188,588.341 941.6,588.419 942.012,588.497C942.102,590.285 942.19,592.073 942.292,594.743ZM942.188,622.953C946.48,619.379 943.704,613.885 944.534,609.251C941.66,608.317 939.15,607.641 938.152,612.109C937.014,617.209 939.294,619.169 942.418,620.515C941.236,620.789 940.056,621.065 938.876,621.339C938.854,621.703 938.834,622.069 938.814,622.433C939.738,622.677 940.664,622.921 942.188,622.953ZM984.812,542.235C981.86,541.943 978.906,541.651 975.974,541.361C975.974,545.273 975.974,548.491 975.974,551.709C976.218,551.743 976.464,551.777 976.708,551.809C977.172,549.087 977.638,546.365 978.102,543.641C978.46,543.707 978.816,543.771 979.174,543.837C979.51,546.467 979.848,549.099 980.186,551.729C980.454,551.675 980.722,551.621 980.992,551.567C981.382,548.937 981.772,546.307 982.164,543.677C982.552,543.719 982.94,543.761 983.326,543.803C983.648,546.451 983.968,549.097 984.288,551.745C984.716,551.681 985.144,551.617 985.574,551.555C985.432,548.715 985.29,545.877 984.812,542.235ZM808.886,507.763C812.612,507.319 813.412,503.965 812.672,499.731C811.75,494.459 808.838,497.317 806.728,497.003C806.728,501.903 806.728,506.453 806.728,511.003C806.95,511.053 807.172,511.105 807.392,511.155C807.722,510.205 808.052,509.257 808.886,507.763ZM901.142,551.283C901.466,548.725 901.792,546.167 902.116,543.609C902.552,543.613 902.986,543.617 903.422,543.621C903.83,546.391 904.238,549.159 904.644,551.929C905.692,548.015 907.142,543.487 903.752,541.601C901.496,540.347 898.58,541.363 896.072,541.363C896.072,545.293 896.072,548.479 896.072,551.663C896.324,551.693 896.576,551.721 896.826,551.749C897.23,549.075 897.634,546.403 898.038,543.731C898.396,543.735 898.754,543.739 899.11,543.743C899.326,545.027 899.528,546.317 899.76,547.595C900.006,548.965 900.282,550.325 901.142,551.283ZM761.52,545.651C761.792,552.629 762.492,553.273 767.594,551.249C767.594,546.831 767.594,542.439 767.594,537.659C765.366,540.293 763.49,542.509 761.52,545.651ZM978.21,618.039C979.972,619.339 981.732,620.639 983.672,622.071C983.672,618.219 983.672,613.601 983.672,608.989C977.88,608.213 977.036,609.463 978.21,618.039ZM842.776,499.323C841.958,507.009 842.892,508.189 848.544,506.743C848.544,502.181 848.544,497.651 848.544,493.423C846.616,495.237 844.866,496.883 842.776,499.323ZM944.092,518.767C943.71,517.565 943.328,516.365 942.946,515.163C942.738,515.245 942.532,515.325 942.324,515.407C942.324,520.137 942.324,524.869 942.324,529.467C945.454,530.509 947.998,530.319 948.352,525.265C948.59,521.857 948.186,518.607 944.092,518.767ZM854.14,544.797C853.916,552.183 854.98,553.297 860.102,551.215C860.102,546.799 860.102,542.439 860.102,538.075C858.052,540.211 856.242,542.097 854.14,544.797ZM959.464,553.715C959.464,549.787 959.464,545.861 959.464,542.053C954.424,540.897 951.672,543.719 953.296,548.411C954.308,551.331 957.242,552.977 959.312,555.193C959.35,555.011 959.388,554.829 959.464,553.715ZM870.26,566.163C868.908,573.691 870.248,575.485 875.916,573.813C875.916,569.239 875.916,564.691 875.916,560.621C874.058,562.281 872.3,563.853 870.26,566.163ZM860.268,459.959C860.27,453.201 860.27,453.201 858.212,452.451C858.212,459.577 858.212,466.715 858.212,473.855C858.766,473.905 859.322,473.955 859.876,474.005C860.006,469.679 860.138,465.353 860.268,459.959ZM826.894,473.359C828.118,462.797 827.472,453.701 824.832,451.843C824.832,458.935 824.802,465.663 824.896,472.387C824.902,472.877 825.812,473.343 826.894,473.359ZM757.708,457.905C757.708,472.059 757.708,472.059 759.754,473.953C759.754,466.475 759.754,459.255 759.754,452.037C759.336,451.957 758.918,451.879 758.5,451.801C758.236,453.503 757.972,455.205 757.708,457.905ZM989.14,528.823C989.654,528.193 990.452,527.685 990.63,526.905C991.048,525.079 991.17,523.121 991.412,521.217C991.83,521.275 992.248,521.335 992.666,521.393C992.96,524.133 993.254,526.873 993.628,530.353C995.522,524.231 995.072,519.401 992.778,519.057C990.29,518.683 987.748,518.971 985.348,518.971C985.348,522.921 985.348,526.227 985.348,529.533C985.596,529.545 985.844,529.557 986.092,529.571C986.466,526.717 986.84,523.865 987.214,521.013C987.642,521.037 988.072,521.059 988.502,521.083C988.678,523.351 988.856,525.621 989.14,528.823ZM846.862,608.509C844.186,608.595 843.126,611.027 843.372,614.153C843.512,615.927 844.714,618.927 845.462,618.941C847.1,618.973 849.296,618.091 850.3,616.449C853.262,611.603 849.312,610.691 846.862,608.509ZM831.588,502.167C831.688,503.819 831.788,505.469 831.888,507.119C832.174,507.095 832.462,507.069 832.748,507.043C833.158,504.313 833.568,501.583 833.98,498.851C834.398,498.893 834.816,498.935 835.232,498.977C835.522,501.677 835.81,504.377 836.098,507.077C836.524,507.023 836.95,506.967 837.374,506.913C837.124,503.849 837.498,498.693 836.504,498.125C833.822,496.589 830.556,497.007 827.708,496.673C827.708,500.785 827.708,503.923 827.708,507.061C828.786,505.135 828.788,503.163 829.018,501.245C829.11,500.481 829.702,499.833 830.068,499.133C830.568,499.809 831.07,500.485 831.588,502.167ZM768.404,639.465C770.048,640.061 771.69,640.657 773.334,641.251C773.724,638.675 774.516,636.039 774.316,633.553C774.232,632.513 772.008,630.981 770.828,631.095C768.176,631.353 767.882,634.377 768.07,637.439C768.092,637.815 768.146,638.187 768.404,639.465ZM1001.506,615.091C1001.854,613.641 1002.2,612.191 1002.546,610.741C1002.88,610.831 1003.214,610.921 1003.548,611.013C1003.856,613.713 1004.162,616.415 1004.47,619.117C1004.664,619.051 1004.858,618.987 1005.05,618.921C1005.57,616.205 1006.09,613.489 1006.608,610.773C1007.026,610.927 1007.444,611.081 1007.862,611.237C1008.148,613.855 1008.434,616.475 1008.72,619.095C1010.774,608.463 1010.63,607.753 999.812,609.493C999.91,612.641 1000.012,615.809 1000.112,618.979C1000.434,619.001 1000.756,619.023 1001.078,619.045C1001.22,618.063 1001.362,617.081 1001.506,615.091ZM918.65,529.549C918.794,527.119 919.204,524.641 918.972,522.283C918.848,521.021 917.664,519.067 916.876,518.989C914.424,518.745 911.934,519.247 909.106,519.489C909.222,522.975 909.33,526.287 909.44,529.601C909.734,529.589 910.026,529.575 910.32,529.563C910.796,526.773 911.272,523.983 911.748,521.193C912.15,521.319 912.554,521.445 912.958,521.569C913.218,524.303 913.478,527.035 913.738,529.769C913.978,529.705 914.218,529.641 914.458,529.577C914.916,526.695 915.376,523.813 915.834,520.929C916.234,521.051 916.634,521.173 917.034,521.295C917.344,524.025 917.654,526.755 918.65,529.549ZM949.556,591.037C949.654,592.921 949.75,594.805 949.848,596.691C950.152,596.685 950.454,596.681 950.758,596.675C951.172,593.831 951.586,590.987 952,588.143C952.428,588.247 952.856,588.349 953.286,588.453C953.562,591.199 953.838,593.947 954.114,596.693C954.368,596.677 954.62,596.663 954.872,596.647C955.29,593.813 955.71,590.981 956.128,588.147C956.554,588.245 956.982,588.343 957.41,588.441C957.686,591.189 957.96,593.937 958.236,596.685C958.62,596.653 959.002,596.621 959.386,596.591C959.386,593.939 959.51,591.269 959.316,588.645C959.252,587.771 958.396,586.355 957.856,586.315C955.504,586.133 953.114,586.157 950.79,586.613C950.272,586.715 949.964,588.869 949.556,591.037ZM854.688,569.349C854.776,571.019 854.864,572.689 854.952,574.359C855.24,574.345 855.526,574.333 855.814,574.319C856.238,571.549 856.662,568.779 857.088,566.009C857.526,566.131 857.966,566.253 858.406,566.377C858.692,569.049 858.978,571.721 859.264,574.393C859.458,574.327 859.652,574.261 859.844,574.197C860.356,571.455 860.866,568.713 861.378,565.971C861.794,566.113 862.212,566.257 862.628,566.399C862.834,569.035 863.042,571.671 863.248,574.307C863.656,574.309 864.062,574.311 864.47,574.311C864.47,571.679 864.686,568.993 864.364,566.437C864.236,565.423 862.962,564.077 862.13,563.957C859.77,563.621 857.37,563.839 854.872,563.839C854.794,565.731 854.74,567.037 854.688,569.349ZM820.776,573.369C821.1,570.927 821.424,568.483 821.748,566.041C822.188,566.163 822.626,566.283 823.064,566.405C823.27,569.041 823.476,571.675 823.682,574.309C824.09,574.309 824.498,574.309 824.904,574.309C824.904,571.667 825.12,568.973 824.798,566.409C824.67,565.403 823.384,564.077 822.546,563.957C820.184,563.625 817.78,563.841 815.044,563.841C815.18,567.763 815.292,571.019 815.406,574.275C815.7,574.261 815.992,574.245 816.286,574.231C816.688,571.469 817.09,568.707 817.492,565.947C817.814,566.031 818.136,566.117 818.458,566.201C819.098,568.865 819.736,571.531 820.776,573.369ZM890.032,586.439C888.78,586.363 887.526,586.287 886.65,586.233C886.212,589.785 885.064,593.079 885.796,594.985C886.43,596.629 889.202,596.697 892.184,597.945C891.47,592.973 891.038,589.963 890.032,586.439ZM995.81,612.059C994.696,613.777 993.584,615.495 992.472,617.211C994.366,618.121 996.262,619.029 998.158,619.937C998.522,619.375 998.886,618.815 999.25,618.253C998.63,615.175 998.3,611.873 997.214,609.151C996.874,608.301 994.49,609.019 993.042,609.019C993.03,609.459 993.018,609.899 993.006,610.339C994.072,610.709 995.14,611.077 995.81,612.059ZM783.646,523.923C784.46,525.881 784.988,528.391 786.194,529.603C786.98,530.393 788.754,529.301 790.084,529.051C790.014,528.653 789.942,528.257 789.872,527.859C788.47,527.497 787.07,527.135 785.668,526.773C785.702,526.361 785.738,525.951 785.772,525.541C787.266,525.165 788.76,524.789 791.632,524.069C789.672,521.627 788.466,518.993 787.422,519.111C786.12,519.259 784.95,521.671 783.646,523.923ZM943.246,541.285C942.316,541.545 941.384,541.803 940.452,542.061C940.472,542.451 940.492,542.841 940.512,543.233C941.476,543.481 942.44,543.731 942.562,543.763C941.656,546.033 940.816,548.141 939.974,550.249C941.79,551.031 943.608,551.811 945.424,552.593C945.866,551.953 946.308,551.311 946.75,550.669C945.804,547.569 944.86,544.467 943.246,541.285ZM954.366,608.749C955.002,609.815 955.638,610.879 955.712,611.003C954.814,613.163 953.94,615.267 953.066,617.369C954.898,618.225 956.732,619.079 958.712,620.003C959.664,610.121 959.306,609.173 954.366,608.749ZM894.368,504.163C895.44,509.931 898.22,506.717 901.394,506.899C900.564,503.049 900.112,499.853 899.09,497.057C898.858,496.419 896.652,497.151 895.358,497.319C895.3,497.325 895.286,497.985 895.224,498.605C896.222,498.773 897.218,498.943 898.136,499.099C896.856,500.575 895.66,501.953 894.368,504.163ZM875.606,587.931C875.67,590.607 875.108,593.843 876.01,595.767C876.64,597.117 879.264,596.675 880.936,597.021C880.936,591.571 880.936,587.109 880.936,583.249C879.154,584.707 877.586,585.989 875.606,587.931ZM922.01,570.073C921.81,577.793 925.53,573.539 928.796,574.511C927.91,570.377 927.522,567.093 926.426,564.349C926.098,563.529 923.796,564.223 922.398,564.223C922.422,564.687 922.444,565.153 922.466,565.619C923.616,565.869 924.766,566.119 926.446,566.483C924.654,567.693 923.47,568.493 922.01,570.073ZM888.702,547.165C889.26,546.321 890.392,544.953 890.28,544.719C889.672,543.441 888.618,541.393 887.978,541.559C886.608,541.911 884.498,543.233 884.326,544.563C884.042,546.745 884.59,549.919 885.686,551.399C886.508,552.511 888.74,551.619 890.344,551.619C890.318,551.239 890.292,550.859 890.266,550.479C888.782,549.939 887.296,549.397 885.812,548.857C885.908,548.365 886.002,547.875 886.098,547.383C886.75,547.313 887.4,547.241 888.702,547.165ZM970.372,616.869C969.942,614.261 969.852,611.371 968.91,609.185C968.54,608.327 966.262,609.045 964.854,609.045C964.86,609.525 964.868,610.003 964.874,610.483C965.988,610.689 967.102,610.897 969.006,611.253C967.544,612.047 966.542,612.155 966.176,612.879C965.438,614.335 964.266,616.935 964.648,617.641C966.28,620.669 968.402,620.145 970.372,616.869ZM830.344,595.103C828.892,594.673 827.438,594.243 825.984,593.813C826.028,593.365 826.072,592.915 826.116,592.467C827.636,592.099 829.156,591.731 830.688,591.359C830.532,587.471 829.282,585.395 826.748,586.189C824.03,587.043 823.49,590.311 824.218,593.413C825.274,597.907 827.588,598.369 830.344,595.103ZM908.282,613.863C909.226,615.689 909.94,617.995 911.202,619.157C911.922,619.819 913.536,618.613 915.542,618.007C912.952,617.057 911.464,616.511 909.976,615.965C910.038,615.583 910.1,615.201 910.16,614.819C911.724,614.573 913.288,614.327 916.196,613.869C914.416,611.429 913.17,608.677 912.424,608.917C910.91,609.405 909.668,611.511 908.282,613.863ZM954.85,520.035C953.212,518.763 951.574,517.489 949.836,516.139C949.836,520.051 949.836,524.763 949.836,529.477C950.082,529.531 950.33,529.583 950.576,529.637C951.03,526.777 951.484,523.919 951.94,521.061C952.384,521.133 952.828,521.205 953.272,521.277C953.652,524.083 954.032,526.889 954.412,529.695C954.808,529.617 955.202,529.539 955.598,529.461C955.464,526.557 955.332,523.651 954.85,520.035ZM990.718,548.397C992.748,553.163 994.11,553.565 996.92,550.473C995.516,550.019 993.95,549.513 992.384,549.007C992.438,548.525 992.492,548.041 992.548,547.559C994.07,547.271 995.594,546.983 997.116,546.693C997.324,546.199 997.532,545.703 997.74,545.209C996.446,543.919 995.154,542.629 993.86,541.339C992.804,543.385 991.746,545.433 990.718,548.397ZM1026.516,521.613C1026.876,524.323 1027.234,527.033 1027.594,529.741C1029.68,519.857 1028.87,518.341 1023.052,519.655C1023.052,523.003 1023.052,526.295 1023.052,531.081C1024.25,526.779 1025.016,524.033 1026.516,521.613ZM991.526,612.879C991.358,611.505 991.192,610.131 991.024,608.757C989.978,610.443 990.052,611.973 989.784,613.379C989.544,614.645 988.926,615.773 988.474,616.963C987.956,615.855 987.236,614.829 986.974,613.615C986.644,612.095 986.69,610.419 986.574,608.811C984.046,617.903 985.186,620.023 991.364,618.787C991.418,617.187 991.472,615.527 991.526,612.879ZM1019.82,518.869C1018.398,518.147 1016.976,517.425 1014.67,516.255C1015.068,520.763 1015.31,524.891 1015.922,528.911C1016.012,529.503 1017.842,529.589 1018.766,529.877C1017.868,526.879 1017.152,524.495 1016.444,522.133C1021.04,519.331 1021.04,519.331 1019.922,515.713C1019.922,516.471 1019.922,517.229 1019.82,518.869ZM890.326,526.633C891.318,531.831 893.952,529.529 896.038,529.411C896.038,525.797 896.038,522.533 896.038,519.269C894.968,521.037 895.026,522.871 894.73,524.585C894.546,525.651 893.824,526.537 893.344,527.503C892.868,526.551 892.15,525.679 891.972,524.631C891.668,522.863 891.708,520.983 891.604,519.149C891.142,519.197 890.68,519.245 890.22,519.293C890.22,521.421 890.22,523.547 890.326,526.633ZM934.278,594.637C933.618,593.615 932.672,592.731 932.37,591.535C931.98,589.997 932.11,588.211 932.016,586.531C931.5,586.619 930.984,586.707 930.468,586.795C930.782,589.881 930.592,593.357 931.618,595.889C932.132,597.157 934.86,596.703 937.022,597.111C936.876,592.883 936.768,589.719 936.658,586.557C936.32,586.541 935.982,586.527 935.642,586.513C935.346,588.991 935.048,591.467 934.278,594.637ZM934.704,518.879C933.666,519.091 932.626,519.301 931.778,519.475C931.778,522.977 931.778,526.261 931.778,529.545C931.956,529.543 932.134,529.541 932.312,529.539C932.936,526.671 933.56,523.803 934.186,520.935C934.584,521.091 934.984,521.245 935.384,521.401C935.632,524.187 935.88,526.973 936.128,529.759C938.084,523.709 937.832,521.729 934.704,518.879ZM775.576,547.353C775.468,545.461 775.36,543.567 775.252,541.675C774.866,541.691 774.478,541.709 774.09,541.727C774.014,543.655 774.074,545.621 773.798,547.493C773.672,548.349 772.882,549.017 772.394,549.769C771.93,548.999 771.188,548.307 771.06,547.443C770.784,545.549 770.82,543.567 770.73,541.621C770.332,541.615 769.936,541.607 769.538,541.599C769.444,543.897 768.978,546.331 769.382,548.445C769.674,549.971 771.092,552.069 772.066,552.129C773.562,552.225 776.262,552.685 775.576,547.353ZM889.132,525.815C888.898,518.671 888.642,518.419 882.7,519.891C882.832,523.131 882.966,526.401 883.102,529.673C883.35,529.631 883.6,529.589 883.85,529.549C884.432,526.683 885.014,523.817 885.596,520.951C886.056,521.103 886.516,521.257 886.974,521.409C887.25,524.185 887.524,526.959 887.798,529.735C888.056,529.733 888.314,529.729 888.572,529.727C888.758,528.723 888.944,527.719 889.132,525.815ZM923.896,586.567C923.65,589.901 923.404,593.233 923.16,596.567C923.542,596.591 923.924,596.615 924.308,596.641C924.82,593.805 925.334,590.971 925.848,588.135C926.296,588.229 926.742,588.323 927.188,588.417C927.382,589.807 927.598,591.193 927.764,592.589C927.93,593.967 928.044,595.359 928.266,597.591C930.932,589.685 929.442,585.865 923.896,586.567ZM976.994,587.041C975.34,586.779 973.688,586.519 972.108,586.269C972.108,590.237 972.108,593.415 972.108,596.591C972.312,596.605 972.516,596.621 972.722,596.637C973.3,593.815 973.878,590.993 974.456,588.171C974.876,588.331 975.296,588.491 975.716,588.651C976,591.331 976.286,594.011 976.57,596.691C977.004,596.605 977.436,596.517 977.868,596.431C977.734,593.511 977.602,590.593 976.994,587.041ZM795.374,614.945C795.254,612.907 795.134,610.867 795.014,608.827C794.526,608.903 794.038,608.979 793.55,609.053C793.824,612.169 793.598,615.651 794.588,618.241C795.062,619.483 797.838,619.037 799.378,619.319C799.378,615.233 799.378,612.041 799.378,608.851C799.034,608.825 798.69,608.799 798.346,608.773C798.25,610.699 798.398,612.745 797.948,614.495C797.742,615.289 796.346,615.491 795.374,614.945ZM771.488,611.941C773.344,609.675 773.814,611.269 773.966,613.665C774.084,615.521 774.164,617.383 774.262,619.241C776.882,610.409 775.628,608.001 769.908,609.225C769.908,612.505 769.908,615.759 769.908,619.015C770.274,619.045 770.638,619.075 771.004,619.103C771.104,617.033 771.204,614.965 771.488,611.941ZM800.692,529.893C801.606,529.511 802.52,529.131 802.884,528.979C801.82,528.045 799.91,527.285 799.526,525.779C799.1,524.105 800.068,521.751 800.528,519.117C799.958,518.435 798.922,517.193 797.852,515.911C797.026,517.703 796.372,519.125 796.316,519.245C796.868,521.903 797.044,523.697 797.606,525.219C798.24,526.937 799.22,528.411 800.692,529.893ZM947.634,608.789C943.962,611.657 946.808,615.539 946.924,619.031C947.556,616.273 948.188,613.515 948.82,610.755C949.224,610.943 949.628,611.129 950.032,611.315C950.312,613.967 950.594,616.619 950.874,619.271C952.68,610.443 952.374,609.479 947.634,608.789ZM818.99,610.231C818.486,610.095 817.562,609.751 817.536,609.855C815.814,616.445 818.074,619.943 823.528,618.643C823.42,615.439 823.31,612.191 823.202,608.943C822.914,608.949 822.624,608.955 822.336,608.961C821.87,611.759 821.404,614.555 820.938,617.351C820.422,617.239 819.904,617.127 819.386,617.015C819.268,615.065 819.15,613.117 818.99,610.231ZM964.1,590.561C962.968,589.243 961.836,587.925 960.328,586.169C961.076,591.159 961.748,595.657 962.648,601.661C964.258,596.043 965.57,591.467 966.882,586.891C966.524,586.649 966.168,586.407 965.81,586.163C965.306,587.371 964.802,588.577 964.1,590.561ZM926.25,519.825C925.08,521.247 923.912,522.669 922.776,524.049C922.14,522.417 921.464,520.681 920.788,518.943C920.558,519.135 920.328,519.329 920.098,519.521C920.764,524.013 921.43,528.503 922.26,534.115C923.744,529.117 925.004,524.867 926.25,519.825ZM776.792,616.433C778.966,617.649 781.142,618.867 783.318,620.085C783.376,619.779 783.434,619.473 783.492,619.167C781.722,617.315 779.954,615.463 778.184,613.611C779.55,612.381 780.914,611.151 783.162,609.127C781.112,609.127 779.152,608.337 778.416,609.315C777.342,610.743 777.146,613.441 776.792,616.433ZM983.75,520.229C982.1,520.435 980.45,520.643 978.802,520.849C979.572,522.963 980.344,525.077 981.202,527.429C980.612,527.507 979.556,527.647 978.502,527.787C978.542,528.401 978.582,529.017 978.624,529.633C980.192,529.325 982.46,529.817 983.204,528.567C985.938,523.971 981.154,524.225 980.048,521.405C981.572,521.227 982.674,521.099 983.75,520.229ZM765.35,608.865C764.364,607.913 763.378,606.961 762.368,605.985C760.3,613.169 761.766,618.961 765.966,618.827C763.176,615.737 762.346,612.663 765.35,608.865ZM840.23,586.073C839.816,584.761 839.402,583.449 838.818,581.601C837.292,584.979 836.02,586.521 836.176,587.699C836.55,590.519 837.432,593.297 838.464,595.811C838.814,596.665 840.232,596.675 840.244,596.681C840.244,593.491 840.2,590.963 840.27,588.441C840.29,587.745 840.644,587.065 840.23,586.073ZM828.068,619.225C827.736,615.893 824.266,612.241 828.714,609.705C827.528,608.277 826.54,607.087 825.494,605.829C823.858,612.175 824.708,617.443 828.068,619.225ZM1037.262,610.637C1036.614,609.009 1035.964,607.381 1035.048,605.079C1032.84,613.611 1034.214,619.073 1036.964,618.771C1036.87,616.061 1036.782,613.465 1037.262,610.637ZM776.776,573.111C777.866,573.615 778.956,574.119 780.046,574.621C777.37,570.585 777.328,567.675 780.024,564.661C779.048,563.445 778.074,562.233 776.552,560.335C776.552,564.969 776.552,568.603 776.776,573.111ZM766.61,636.697C766.944,635.119 767.278,633.539 767.61,631.961C767.296,631.821 766.982,631.679 766.668,631.539C765.956,633.313 765.246,635.087 764.474,637.019C763.726,634.893 763.092,633.087 762.458,631.283C762.04,631.553 761.622,631.821 761.204,632.091C762.092,635.383 762.98,638.675 764.304,643.579C765.422,640.423 765.93,638.981 766.61,636.697ZM776.9,627.467C774.25,632.013 776.076,636.719 775.97,641.357C776.388,641.373 776.808,641.391 777.226,641.407C777.226,637.055 777.226,632.703 776.9,627.467ZM895.174,610.685C895.174,608.789 895.174,606.893 895.174,604.997C894.83,605.015 894.488,605.031 894.144,605.049C894.144,609.667 894.144,614.287 894.144,618.907C894.488,618.903 894.83,618.899 895.174,618.897C895.174,616.503 895.174,614.107 895.174,610.685ZM973.364,614.805C973.364,611.513 973.364,608.221 973.364,604.929C972.912,604.953 972.462,604.975 972.01,604.999C972.01,609.625 972.01,614.253 972.01,618.879C972.248,618.937 972.484,618.995 972.722,619.053C972.934,617.983 973.148,616.913 973.364,614.805ZM831.6,589.821C831.6,592.071 831.6,594.321 831.6,596.571C831.95,596.527 832.302,596.481 832.652,596.435C832.652,591.853 832.652,587.269 832.652,582.687C832.302,582.699 831.95,582.709 831.6,582.719C831.6,584.741 831.6,586.765 831.6,589.821ZM792.85,518.349C792.636,517.291 792.422,516.235 792.206,515.177C792.01,515.241 791.812,515.305 791.614,515.367C791.614,520.069 791.614,524.771 791.614,529.473C792.028,529.489 792.44,529.505 792.854,529.521C792.854,526.143 792.854,522.767 792.85,518.349ZM807.214,640.343C807.612,640.807 808.01,641.271 808.41,641.737C808.614,641.375 808.818,641.015 809.022,640.655C808.608,640.381 808.196,640.107 807.214,640.343ZM802.662,594.729C802.784,594.605 802.906,594.483 803.028,594.359C802.858,594.383 802.69,594.407 802.662,594.729Z" fill="#39932C"/>
</svg>
