<svg width="42" height="48" viewBox="0 0 42 48" fill="none" xmlns="http://www.w3.org/2000/svg" xmlns:xlink="http://www.w3.org/1999/xlink">
<path d="M17.756,35.477L22.77,35.477L22.77,21.302L17.756,21.302L17.756,35.477ZM20.263,16.576C20.973,16.576 21.569,16.35 22.05,15.896C22.531,15.442 22.771,14.882 22.77,14.214C22.77,13.545 22.529,12.983 22.048,12.529C21.566,12.076 20.971,11.85 20.263,11.851C19.552,11.851 18.956,12.078 18.475,12.532C17.994,12.985 17.754,13.546 17.756,14.214C17.756,14.883 17.996,15.445 18.478,15.898C18.959,16.352 19.554,16.578 20.263,16.576ZM20.263,47.29C14.455,45.912 9.66,42.771 5.878,37.868C2.095,32.965 0.205,27.521 0.207,21.538L0.207,7.126L20.263,0.039L40.319,7.126L40.319,21.538C40.319,27.523 38.427,32.967 34.645,37.87C30.863,42.773 26.069,45.913 20.263,47.29ZM20.263,42.328C24.608,41.029 28.201,38.43 31.043,34.532C33.884,30.634 35.305,26.302 35.305,21.538L35.305,10.375L20.263,5.059L5.221,10.375L5.221,21.538C5.221,26.302 6.641,30.634 9.483,34.532C12.324,38.43 15.917,41.029 20.263,42.328Z" fill="#544C4C"/>
</svg>
