<svg width="44" height="32" viewBox="0 0 44 32" fill="none" xmlns="http://www.w3.org/2000/svg" xmlns:xlink="http://www.w3.org/1999/xlink">
<path d="M0,10L4,14C13.94,4.06 30.06,4.06 40,14L44,10C31.86,-2.14 12.16,-2.14 0,10ZM16,26L22,32L28,26C27.213,25.211 26.278,24.585 25.248,24.157C24.218,23.73 23.115,23.51 22,23.51C20.885,23.51 19.782,23.73 18.752,24.157C17.722,24.585 16.787,25.211 16,26ZM8,18L12,22C14.653,19.349 18.25,17.86 22,17.86C25.75,17.86 29.347,19.349 32,22L36,18C28.28,10.28 15.74,10.28 8,18Z" fill="#000000"/>
</svg>
