<svg width="52" height="48" viewBox="0 0 52 48" fill="none" xmlns="http://www.w3.org/2000/svg" xmlns:xlink="http://www.w3.org/1999/xlink">
<path d="M22.563,37.441L27.577,37.441L27.577,32.716L22.563,32.716L22.563,37.441ZM25.07,-0.36C21.778,-0.36 18.518,0.251 15.476,1.439C12.434,2.626 9.671,4.366 7.343,6.56C2.641,10.991 0,17 0,23.266C0,29.532 2.641,35.541 7.343,39.972C9.671,42.166 12.434,43.906 15.476,45.093C18.518,46.28 21.778,46.892 25.07,46.892C31.719,46.892 38.095,44.402 42.797,39.972C47.498,35.541 50.14,29.532 50.14,23.266C50.14,20.163 49.491,17.091 48.231,14.225C46.971,11.358 45.125,8.754 42.797,6.56C40.469,4.366 37.705,2.626 34.664,1.439C31.622,0.251 28.362,-0.36 25.07,-0.36ZM25.07,42.166C14.014,42.166 5.014,33.685 5.014,23.266C5.014,12.847 14.014,4.366 25.07,4.366C36.126,4.366 45.126,12.847 45.126,23.266C45.126,33.685 36.126,42.166 25.07,42.166ZM25.07,9.091C22.41,9.091 19.86,10.086 17.979,11.859C16.098,13.631 15.042,16.034 15.042,18.541L20.056,18.541C20.056,17.288 20.584,16.086 21.524,15.2C22.465,14.314 23.74,13.816 25.07,13.816C26.4,13.816 27.675,14.314 28.615,15.2C29.556,16.086 30.084,17.288 30.084,18.541C30.084,23.266 22.563,22.675 22.563,30.354L27.577,30.354C27.577,25.038 35.098,24.447 35.098,18.541C35.098,16.034 34.041,13.631 32.161,11.859C30.28,10.086 27.729,9.091 25.07,9.091Z" fill="#544C4C"/>
</svg>
