<svg width="20" height="18" viewBox="0 0 20 18" fill="none" xmlns="http://www.w3.org/2000/svg" xmlns:xlink="http://www.w3.org/1999/xlink">
<path d="M15.784,8.14C15.784,10.839 13.425,13.227 10.263,13.227L10.263,17.227C15.407,17.227 19.784,13.269 19.784,8.14L15.784,8.14ZM10.263,13.227C7.1,13.227 4.742,10.839 4.742,8.14L0.742,8.14C0.742,13.269 5.118,17.227 10.263,17.227L10.263,13.227ZM4.742,8.14C4.742,5.44 7.1,3.052 10.263,3.052L10.263,-0.948C5.118,-0.948 0.742,3.011 0.742,8.14L4.742,8.14ZM10.263,3.052C13.425,3.052 15.784,5.44 15.784,8.14L19.784,8.14C19.784,3.011 15.407,-0.948 10.263,-0.948L10.263,3.052Z" fill="#544C4C"/>
</svg>
