<svg width="50" height="50" viewBox="0 0 50 50" fill="none" xmlns="http://www.w3.org/2000/svg" xmlns:xlink="http://www.w3.org/1999/xlink">
<path d="M24,49C20.542,49 17.292,48.343 14.25,47.03C11.208,45.717 8.563,43.936 6.313,41.687C4.063,39.437 2.282,36.792 0.97,33.75C-0.342,30.708 -0.998,27.458 -1,24C-1,20.542 -0.343,17.292 0.97,14.25C2.283,11.208 4.064,8.563 6.313,6.313C8.563,4.063 11.208,2.282 14.25,0.97C17.292,-0.342 20.542,-0.998 24,-1L24.625,-1C25.167,-1 25.614,-0.823 25.967,-0.468C26.321,-0.113 26.498,0.335 26.5,0.875L26.5,19.687C27.25,20.146 27.854,20.74 28.312,21.47C28.771,22.2 29,23.043 29,24C29,25.375 28.51,26.552 27.53,27.532C26.55,28.512 25.373,29.002 24,29C22.625,29 21.447,28.51 20.467,27.53C19.487,26.55 18.998,25.373 19,24C19,23.042 19.229,22.187 19.687,21.437C20.146,20.687 20.75,20.104 21.5,19.687L21.5,14.313C19.333,14.896 17.542,16.073 16.125,17.845C14.708,19.617 14,21.668 14,24C14,26.75 14.979,29.104 16.938,31.062C18.896,33.021 21.25,34 24,34C26.75,34 29.104,33.021 31.062,31.062C33.021,29.104 34,26.75 34,24C34,23.042 33.864,22.094 33.592,21.157C33.321,20.221 32.915,19.335 32.375,18.5C32,17.917 31.844,17.343 31.907,16.78C31.971,16.217 32.21,15.727 32.625,15.313C33.125,14.813 33.761,14.563 34.532,14.563C35.304,14.563 35.918,14.896 36.375,15.563C37.292,16.896 37.958,18.282 38.375,19.72C38.792,21.158 39,22.585 39,24C39,28.167 37.542,31.708 34.625,34.625C31.708,37.542 28.167,39 24,39C19.833,39 16.292,37.542 13.375,34.625C10.458,31.708 9,28.167 9,24C9,20.25 10.188,16.989 12.563,14.218C14.938,11.446 17.917,9.769 21.5,9.188L21.5,4.125C16.542,4.75 12.385,6.938 9.03,10.688C5.675,14.438 3.998,18.875 4,24C4,29.583 5.938,34.312 9.813,38.187C13.688,42.062 18.417,44 24,44C29.583,44 34.312,42.062 38.187,38.187C42.062,34.312 44,29.583 44,24C44,21.542 43.646,19.333 42.937,17.375C42.229,15.417 41.229,13.604 39.937,11.938C39.479,11.354 39.26,10.729 39.28,10.063C39.3,9.396 39.561,8.813 40.062,8.313C40.562,7.813 41.157,7.563 41.845,7.563C42.533,7.563 43.085,7.833 43.5,8.375C45.25,10.5 46.604,12.854 47.562,15.438C48.521,18.021 49,20.875 49,24C49,27.458 48.343,30.708 47.03,33.75C45.717,36.792 43.936,39.437 41.687,41.687C39.437,43.937 36.792,45.719 33.75,47.032C30.708,48.346 27.458,49.002 24,49Z" fill="#B0B0B0"/>
</svg>
