<svg width="10" height="10" viewBox="0 0 10 10" fill="none" xmlns="http://www.w3.org/2000/svg" xmlns:xlink="http://www.w3.org/1999/xlink">
<path d="M4.103,4.113C4.103,3.976 4.167,3.88 4.206,3.843C4.244,3.808 4.27,3.809 4.263,3.809L4.263,9.142C6.969,9.142 9.436,7.037 9.436,4.113L4.103,4.113ZM4.263,3.809C4.256,3.809 4.282,3.808 4.319,3.843C4.359,3.88 4.422,3.976 4.422,4.113L-0.911,4.113C-0.911,7.037 1.557,9.142 4.263,9.142L4.263,3.809ZM4.422,4.113C4.422,4.25 4.359,4.345 4.319,4.383C4.282,4.418 4.256,4.417 4.263,4.417L4.263,-0.916C1.557,-0.916 -0.911,1.188 -0.911,4.113L4.422,4.113ZM4.263,4.417C4.27,4.417 4.244,4.418 4.206,4.383C4.167,4.345 4.103,4.25 4.103,4.113L9.436,4.113C9.436,1.188 6.969,-0.916 4.263,-0.916L4.263,4.417Z" fill="#544C4C"/>
</svg>
