<svg width="38" height="46" viewBox="0 0 38 46" fill="none" xmlns="http://www.w3.org/2000/svg" xmlns:xlink="http://www.w3.org/1999/xlink">
<path d="M22.49,2.34C21.907,1.738 21.209,1.26 20.438,0.933C19.667,0.606 18.838,0.438 18,0.438C17.162,0.438 16.333,0.606 15.562,0.933C14.79,1.26 14.093,1.738 13.51,2.34L1.512,14.73C0.825,15.44 0.362,16.34 0.182,17.315C-1.274,25.26 -1.382,33.394 -0.135,41.375L0.305,44.2C0.445,45.093 1.215,45.75 2.117,45.75L10.5,45.75C10.831,45.75 11.149,45.618 11.384,45.384C11.618,45.15 11.75,44.832 11.75,44.5L11.75,27L24.25,27L24.25,44.5C24.25,44.832 24.382,45.15 24.616,45.384C24.85,45.618 25.168,45.75 25.5,45.75L33.882,45.75C34.319,45.75 34.742,45.594 35.074,45.309C35.406,45.025 35.625,44.632 35.692,44.2L36.135,41.375C37.381,33.394 37.274,25.26 35.817,17.315C35.638,16.341 35.175,15.441 34.485,14.73L22.49,2.34Z" fill="#70E000"/>
</svg>
