<svg width="42" height="50" viewBox="0 0 42 50" fill="none" xmlns="http://www.w3.org/2000/svg" xmlns:xlink="http://www.w3.org/1999/xlink">
<path d="M35.305,15.637L32.798,15.637L32.798,10.912C32.798,4.392 27.182,-0.9 20.263,-0.9C13.343,-0.9 7.728,4.392 7.728,10.912L7.728,15.637L5.221,15.637C2.463,15.637 0.207,17.764 0.207,20.363L0.207,43.988C0.207,46.587 2.463,48.713 5.221,48.713L35.305,48.713C38.062,48.713 40.319,46.587 40.319,43.988L40.319,20.363C40.319,17.764 38.062,15.637 35.305,15.637ZM12.742,10.912C12.742,6.991 16.101,3.825 20.263,3.825C24.424,3.825 27.784,6.991 27.784,10.912L27.784,15.637L12.742,15.637L12.742,10.912ZM35.305,43.988L5.221,43.988L5.221,20.363L35.305,20.363L35.305,43.988ZM20.263,36.9C23.02,36.9 25.277,34.774 25.277,32.175C25.277,29.577 23.02,27.45 20.263,27.45C17.505,27.45 15.249,29.577 15.249,32.175C15.249,34.774 17.505,36.9 20.263,36.9Z" fill="#544C4C"/>
</svg>
