<svg width="48" height="48" viewBox="0 0 48 48" fill="none" xmlns="http://www.w3.org/2000/svg" xmlns:xlink="http://www.w3.org/1999/xlink">
<path d="M22.938,-0.375C16.724,-0.368 10.766,2.103 6.372,6.497C1.978,10.891 -0.493,16.849 -0.5,23.063L-0.5,42.827C-0.499,43.801 -0.111,44.734 0.577,45.423C1.266,46.111 2.199,46.499 3.173,46.5L22.938,46.5C29.154,46.5 35.115,44.031 39.51,39.635C43.906,35.24 46.375,29.279 46.375,23.063C46.375,16.846 43.906,10.885 39.51,6.49C35.115,2.094 29.154,-0.375 22.938,-0.375ZM12.625,26.813C12.069,26.813 11.525,26.648 11.062,26.339C10.6,26.029 10.239,25.59 10.027,25.076C9.814,24.562 9.758,23.997 9.867,23.451C9.975,22.906 10.243,22.405 10.636,22.011C11.03,21.618 11.531,21.35 12.076,21.242C12.622,21.133 13.187,21.189 13.701,21.402C14.215,21.614 14.654,21.975 14.963,22.437C15.273,22.9 15.438,23.444 15.438,24C15.438,24.746 15.141,25.461 14.614,25.989C14.086,26.516 13.371,26.813 12.625,26.813ZM22.938,26.813C22.381,26.813 21.837,26.648 21.375,26.339C20.912,26.029 20.552,25.59 20.339,25.076C20.126,24.562 20.071,23.997 20.179,23.451C20.288,22.906 20.555,22.405 20.949,22.011C21.342,21.618 21.843,21.35 22.389,21.242C22.934,21.133 23.5,21.189 24.014,21.402C24.528,21.614 24.967,21.975 25.276,22.437C25.585,22.9 25.75,23.444 25.75,24C25.75,24.746 25.454,25.461 24.926,25.989C24.399,26.516 23.683,26.813 22.938,26.813ZM33.25,26.813C32.694,26.813 32.15,26.648 31.687,26.339C31.225,26.029 30.864,25.59 30.652,25.076C30.439,24.562 30.383,23.997 30.492,23.451C30.6,22.906 30.868,22.405 31.261,22.011C31.655,21.618 32.156,21.35 32.701,21.242C33.247,21.133 33.812,21.189 34.326,21.402C34.84,21.614 35.279,21.975 35.589,22.437C35.898,22.9 36.062,23.444 36.062,24C36.062,24.746 35.766,25.461 35.239,25.989C34.711,26.516 33.996,26.813 33.25,26.813Z" fill="#000000"/>
</svg>
