<svg width="24" height="20" viewBox="0 0 24 20" fill="none" xmlns="http://www.w3.org/2000/svg" xmlns:xlink="http://www.w3.org/1999/xlink">
<path d="M22.795,3.381C23.282,2.39 22.873,1.191 21.881,0.705C20.89,0.218 19.691,0.627 19.205,1.619L22.795,3.381ZM4.795,1.619C4.309,0.627 3.11,0.218 2.119,0.705C1.127,1.191 0.718,2.39 1.205,3.381L4.795,1.619ZM1.118,12.824C0.744,13.864 1.285,15.009 2.324,15.382C3.364,15.756 4.509,15.215 4.882,14.176L1.118,12.824ZM7.382,7.209C7.756,6.169 7.215,5.024 6.176,4.651C5.136,4.278 3.991,4.818 3.618,5.858L7.382,7.209ZM19.118,14.133C19.492,15.173 20.638,15.712 21.677,15.338C22.717,14.964 23.256,13.818 22.882,12.779L19.118,14.133ZM20.39,5.856C20.016,4.817 18.87,4.277 17.831,4.652C16.791,5.026 16.252,6.171 16.626,7.211L20.39,5.856ZM7.005,17.031C6.929,18.133 7.762,19.087 8.864,19.162C9.966,19.237 10.92,18.405 10.995,17.303L7.005,17.031ZM11.495,9.969C11.571,8.867 10.738,7.913 9.636,7.838C8.534,7.763 7.58,8.595 7.505,9.697L11.495,9.969ZM13.005,17.303C13.08,18.405 14.034,19.237 15.136,19.162C16.238,19.087 17.071,18.133 16.995,17.031L13.005,17.303ZM16.495,9.697C16.42,8.595 15.466,7.763 14.364,7.838C13.262,7.913 12.429,8.867 12.505,9.969L16.495,9.697ZM19.205,1.619C16.948,6.215 14.481,7.833 12,7.833L12,11.833C16.719,11.833 20.252,8.564 22.795,3.381L19.205,1.619ZM12,7.833C9.519,7.833 7.052,6.215 4.795,1.619L1.205,3.381C3.748,8.564 7.281,11.833 12,11.833L12,7.833ZM4.882,14.176L7.382,7.209L3.618,5.858L1.118,12.824L4.882,14.176ZM22.882,12.779L20.39,5.856L16.626,7.211L19.118,14.133L22.882,12.779ZM10.995,17.303L11.495,9.969L7.505,9.697L7.005,17.031L10.995,17.303ZM16.995,17.031L16.495,9.697L12.505,9.969L13.005,17.303L16.995,17.031Z" fill="#000000"/>
</svg>
