<svg width="70" height="60" viewBox="0 0 70 60" fill="none" xmlns="http://www.w3.org/2000/svg" xmlns:xlink="http://www.w3.org/1999/xlink">
<path d="M15.333,16.667L15.333,14C15.333,10.464 16.738,7.072 19.239,4.572C21.739,2.071 25.13,0.667 28.667,0.667C32.203,0.667 35.594,2.071 38.095,4.572C40.595,7.072 42,10.464 42,14L42,44.896L54.613,32.283L52.763,25.376L52.757,25.344L52.752,25.344C52.601,24.776 52.641,24.174 52.867,23.632C53.093,23.09 53.492,22.637 54.001,22.344C54.511,22.052 55.103,21.936 55.685,22.014C56.267,22.093 56.807,22.362 57.221,22.779L67.888,33.445C68.303,33.859 68.57,34.397 68.648,34.978C68.726,35.559 68.611,36.149 68.321,36.657C68.03,37.166 67.58,37.565 67.04,37.792C66.5,38.019 65.9,38.062 65.333,37.915L65.28,37.899L58.384,36.053L42,52.437L42,54C42,55.414 41.438,56.771 40.438,57.771C39.438,58.771 38.081,59.333 36.667,59.333L20.667,59.333C19.252,59.333 17.896,58.771 16.895,57.771C15.895,56.771 15.333,55.414 15.333,54L15.333,51.525L3.237,39.429C0.74,36.927 -0.663,33.535 -0.663,30C-0.663,26.464 0.74,23.073 3.237,20.571C4.474,19.331 5.944,18.348 7.563,17.678C9.181,17.008 10.915,16.664 12.667,16.667L15.333,16.667ZM15.333,22L12.667,22C11.084,21.999 9.536,22.468 8.22,23.347C6.904,24.226 5.878,25.476 5.272,26.938C4.666,28.4 4.508,30.009 4.817,31.562C5.126,33.114 5.888,34.54 7.008,35.659L15.333,43.979L15.333,22ZM36.667,16.667L36.667,14C36.667,11.878 35.824,9.843 34.323,8.343C32.823,6.843 30.788,6 28.667,6C26.545,6 24.51,6.843 23.01,8.343C21.509,9.843 20.667,11.878 20.667,14L20.667,16.667L36.667,16.667Z" fill="#FFFFFF"/>
</svg>
