<svg width="56" height="54" viewBox="0 0 56 54" fill="none" xmlns="http://www.w3.org/2000/svg" xmlns:xlink="http://www.w3.org/1999/xlink">
<path d="M21.637,18.5C23.149,16.67 25.438,15.5 28,15.5C30.562,15.5 32.851,16.67 34.363,18.5C35.358,19.707 35.99,21.172 36.185,22.724C36.379,24.277 36.128,25.852 35.461,27.268C34.794,28.683 33.738,29.879 32.416,30.717C31.095,31.554 29.563,31.999 27.998,31.999C26.434,31.999 24.902,31.554 23.58,30.717C22.259,29.879 21.203,28.683 20.536,27.268C19.869,25.852 19.618,24.277 19.812,22.724C20.007,21.172 20.639,19.707 21.634,18.5L21.637,18.5ZM39.25,23.75C39.25,21.854 38.782,20.066 37.954,18.5L50.5,18.5C51.693,18.5 52.838,18.974 53.682,19.818C54.526,20.662 55,21.807 55,23L55,24.5C55,29.261 51.382,34.136 45.055,35.852C44.405,34.684 43.454,33.711 42.302,33.034C41.149,32.357 39.837,32 38.5,32L35.65,32C36.787,30.948 37.694,29.672 38.314,28.252C38.933,26.832 39.252,25.299 39.25,23.75ZM38.5,35C39.091,34.998 39.677,35.114 40.224,35.339C40.771,35.565 41.267,35.896 41.686,36.314C42.104,36.733 42.435,37.229 42.661,37.776C42.886,38.323 43.002,38.909 43,39.5L43,41C43,46.913 37.42,53 28,53C18.58,53 13,46.913 13,41L13,39.5C12.998,38.909 13.114,38.323 13.339,37.776C13.565,37.229 13.896,36.733 14.314,36.314C14.733,35.896 15.229,35.565 15.776,35.339C16.323,35.114 16.909,34.998 17.5,35L38.5,35ZM1,24.5C1,29.261 4.618,34.136 10.945,35.852C11.595,34.684 12.546,33.711 13.698,33.034C14.851,32.357 16.163,32 17.5,32L20.35,32C19.213,30.948 18.306,29.672 17.686,28.252C17.067,26.832 16.748,25.299 16.75,23.75C16.75,21.854 17.218,20.066 18.049,18.5L5.5,18.5C4.307,18.5 3.162,18.974 2.318,19.818C1.474,20.662 1,21.807 1,23L1,24.5ZM24.25,7.25C24.25,5.062 23.381,2.964 21.834,1.416C20.286,-0.131 18.188,-1 16,-1C13.812,-1 11.714,-0.131 10.166,1.416C8.619,2.964 7.75,5.062 7.75,7.25C7.75,9.438 8.619,11.536 10.166,13.084C11.714,14.631 13.812,15.5 16,15.5C18.188,15.5 20.286,14.631 21.834,13.084C23.381,11.536 24.25,9.438 24.25,7.25ZM48.25,7.25C48.25,5.062 47.381,2.964 45.834,1.416C44.286,-0.131 42.188,-1 40,-1C37.812,-1 35.714,-0.131 34.166,1.416C32.619,2.964 31.75,5.062 31.75,7.25C31.75,9.438 32.619,11.536 34.166,13.084C35.714,14.631 37.812,15.5 40,15.5C42.188,15.5 44.286,14.631 45.834,13.084C47.381,11.536 48.25,9.438 48.25,7.25Z" fill="#B0B0B0"/>
</svg>
