<svg width="60" height="66" viewBox="0 0 60 66" fill="none" xmlns="http://www.w3.org/2000/svg" xmlns:xlink="http://www.w3.org/1999/xlink">
<path d="M25.833,0.557C27.1,-0.175 28.537,-0.56 30,-0.56C31.463,-0.56 32.9,-0.175 34.167,0.557L55.147,12.67C56.413,13.401 57.465,14.453 58.197,15.72C58.928,16.987 59.313,18.424 59.313,19.887L59.313,44.113C59.313,45.576 58.928,47.013 58.197,48.28C57.465,49.547 56.413,50.599 55.147,51.33L34.167,63.443C32.9,64.175 31.463,64.56 30,64.56C28.537,64.56 27.1,64.175 25.833,63.443L4.853,51.33C3.587,50.599 2.535,49.547 1.803,48.28C1.072,47.013 0.687,45.576 0.687,44.113L0.687,19.887C0.687,18.424 1.072,16.987 1.803,15.72C2.535,14.453 3.587,13.401 4.853,12.67L25.833,0.557ZM16.73,20.49L36.057,9.347L42.727,13.197L23.4,24.34L16.73,20.49Z" clip-rule="evenodd" fill-rule="evenodd" fill="#FFFFFF"/>
</svg>
