<svg width="50" height="52" viewBox="0 0 50 52" fill="none" xmlns="http://www.w3.org/2000/svg" xmlns:xlink="http://www.w3.org/1999/xlink">
<path d="M42.75,26C42.75,25.425 42.725,24.875 42.675,24.3L47.325,20.775C48.325,20.025 48.6,18.625 47.975,17.525L43.3,9.45C43,8.92 42.515,8.52 41.939,8.327C41.362,8.133 40.734,8.159 40.175,8.4L34.8,10.675C33.875,10.025 32.9,9.45 31.875,8.975L31.15,3.2C31,1.95 29.925,1 28.675,1L19.35,1C18.075,1 17,1.95 16.85,3.2L16.125,8.975C15.1,9.45 14.125,10.025 13.2,10.675L7.825,8.4C6.675,7.9 5.325,8.35 4.7,9.45L0.025,17.55C-0.6,18.65 -0.325,20.025 0.675,20.8L5.325,24.325C5.221,25.448 5.221,26.577 5.325,27.7L0.675,31.225C-0.325,31.975 -0.6,33.375 0.025,34.475L4.7,42.55C5.325,43.65 6.675,44.1 7.825,43.6L13.2,41.325C14.125,41.975 15.1,42.55 16.125,43.025L16.85,48.8C17,50.05 18.075,51 19.325,51L28.65,51C29.9,51 30.975,50.05 31.125,48.8L31.85,43.025C32.875,42.55 33.85,41.975 34.775,41.325L40.15,43.6C41.3,44.1 42.65,43.65 43.275,42.55L47.95,34.475C48.575,33.375 48.3,32 47.3,31.225L42.65,27.7C42.725,27.125 42.75,26.575 42.75,26ZM24.1,34.75C19.275,34.75 15.35,30.825 15.35,26C15.35,21.175 19.275,17.25 24.1,17.25C28.925,17.25 32.85,21.175 32.85,26C32.85,30.825 28.925,34.75 24.1,34.75Z" fill="#B0B0B0"/>
</svg>
