<svg width="52" height="50" viewBox="0 0 52 50" fill="none" xmlns="http://www.w3.org/2000/svg" xmlns:xlink="http://www.w3.org/1999/xlink">
<path d="M26,49C22.542,49 19.292,48.343 16.25,47.03C13.208,45.717 10.562,43.936 8.312,41.687C6.062,39.437 4.282,36.792 2.97,33.75C1.658,30.708 1.002,27.458 1,24C1,20.542 1.657,17.292 2.97,14.25C4.283,11.208 6.064,8.563 8.312,6.313C10.562,4.063 13.208,2.282 16.25,0.97C19.292,-0.342 22.542,-0.998 26,-1L26.625,-1C27.167,-1 27.614,-0.822 27.967,-0.467C28.321,-0.112 28.498,0.335 28.5,0.875L28.5,19.687C29.25,20.146 29.854,20.74 30.312,21.47C30.771,22.2 31,23.043 31,24C31,25.375 30.51,26.552 29.53,27.532C28.55,28.512 27.373,29.002 26,29C24.625,29 23.447,28.51 22.467,27.53C21.487,26.55 20.998,25.373 21,24C21,23.042 21.229,22.187 21.687,21.437C22.146,20.687 22.75,20.104 23.5,19.687L23.5,14.313C21.333,14.896 19.542,16.073 18.125,17.845C16.708,19.617 16,21.668 16,24C16,26.75 16.979,29.104 18.937,31.062C20.896,33.021 23.25,34 26,34C28.75,34 31.104,33.021 33.062,31.062C35.021,29.104 36,26.75 36,24C36,23.042 35.864,22.094 35.592,21.157C35.321,20.221 34.915,19.335 34.375,18.5C34,17.917 33.844,17.343 33.907,16.78C33.971,16.217 34.21,15.727 34.625,15.313C35.125,14.813 35.761,14.563 36.532,14.563C37.304,14.563 37.918,14.896 38.375,15.563C39.292,16.896 39.958,18.282 40.375,19.72C40.792,21.158 41,22.585 41,24C41,28.167 39.542,31.708 36.625,34.625C33.708,37.542 30.167,39 26,39C21.833,39 18.292,37.542 15.375,34.625C12.458,31.708 11,28.167 11,24C11,20.25 12.187,16.989 14.562,14.217C16.937,11.446 19.917,9.769 23.5,9.188L23.5,4.125C18.542,4.75 14.385,6.938 11.03,10.688C7.675,14.438 5.998,18.875 6,24C6,29.583 7.937,34.312 11.812,38.187C15.687,42.062 20.417,44 26,44C31.583,44 36.312,42.062 40.187,38.187C44.062,34.312 46,29.583 46,24C46,21.542 45.646,19.333 44.937,17.375C44.229,15.417 43.229,13.604 41.937,11.938C41.479,11.354 41.26,10.729 41.28,10.063C41.3,9.396 41.561,8.813 42.062,8.313C42.562,7.813 43.157,7.563 43.845,7.563C44.533,7.563 45.085,7.833 45.5,8.375C47.25,10.5 48.604,12.854 49.562,15.438C50.521,18.021 51,20.875 51,24C51,27.458 50.343,30.708 49.03,33.75C47.717,36.792 45.936,39.437 43.687,41.687C41.437,43.937 38.792,45.719 35.75,47.032C32.708,48.346 29.458,49.002 26,49Z" fill="#B0B0B0"/>
</svg>
