<svg width="18" height="16" viewBox="0 0 18 16" fill="none" xmlns="http://www.w3.org/2000/svg" xmlns:xlink="http://www.w3.org/1999/xlink">
<path d="M13.382,3.8L1.522,14.183C1.254,14.417 0.937,14.533 0.569,14.533C0.201,14.533 -0.116,14.417 -0.383,14.183C-0.65,13.95 -0.784,13.673 -0.784,13.351C-0.784,13.03 -0.65,12.753 -0.383,12.521L11.511,2.167L1.355,2.167C0.976,2.167 0.658,2.055 0.402,1.831C0.145,1.607 0.017,1.33 0.018,1C0.018,0.669 0.147,0.392 0.403,0.168C0.66,-0.056 0.977,-0.167 1.355,-0.167L14.718,-0.167C15.097,-0.167 15.415,-0.055 15.671,0.169C15.928,0.393 16.056,0.67 16.055,1L16.055,12.667C16.055,12.997 15.926,13.274 15.67,13.498C15.413,13.722 15.096,13.834 14.718,13.833C14.34,13.833 14.022,13.721 13.765,13.497C13.509,13.273 13.381,12.996 13.382,12.667L13.382,3.8Z" fill="#000000"/>
</svg>
