<svg width="44" height="68" viewBox="0 0 44 68" fill="none" xmlns="http://www.w3.org/2000/svg" xmlns:xlink="http://www.w3.org/1999/xlink">
<path d="M24,0.667C26.401,0.665 28.722,1.527 30.54,3.095C32.358,4.663 33.551,6.833 33.901,9.208C34.251,11.583 33.735,14.005 32.447,16.031C31.159,18.057 29.186,19.552 26.887,20.243L26.32,20.397L34.41,29.647L40.49,32.683C41.259,33.059 41.854,33.715 42.152,34.517C42.45,35.319 42.428,36.205 42.091,36.992C41.754,37.778 41.127,38.405 40.341,38.742C39.555,39.079 38.669,39.101 37.867,38.803L37.51,38.647L31.43,35.607C30.85,35.317 30.316,34.944 29.843,34.5L29.393,34.033L26,30.157L23.8,38.95C23.601,39.75 23.255,40.506 22.78,41.18L22.413,41.653L28.84,47.53C29.667,48.285 30.291,49.237 30.653,50.297L30.81,50.83L33.27,60.667L34,60.667C34.85,60.668 35.667,60.993 36.284,61.576C36.902,62.159 37.274,62.956 37.324,63.805C37.374,64.653 37.098,65.488 36.552,66.139C36.007,66.791 35.234,67.21 34.39,67.31L34,67.333L30.927,67.333C30.18,67.333 29.451,67.105 28.838,66.68C28.224,66.255 27.755,65.652 27.493,64.953L27.37,64.553L24.343,52.45L14.31,43.277C13.05,42.635 12.026,41.61 11.387,40.348C10.748,39.087 10.526,37.655 10.753,36.26L10.867,35.717L12.577,28.877L11.5,29.643L6.857,37.383C6.419,38.113 5.72,38.648 4.9,38.879C4.081,39.11 3.205,39.018 2.451,38.624C1.697,38.229 1.123,37.561 0.846,36.757C0.568,35.952 0.609,35.072 0.96,34.297L1.14,33.95L5.783,26.213C6.159,25.586 6.636,25.026 7.193,24.553L7.627,24.22L16.833,17.637C15.463,16.227 14.539,14.446 14.176,12.514C13.813,10.583 14.027,8.587 14.792,6.776C15.556,4.966 16.838,3.421 18.475,2.334C20.113,1.247 22.035,0.667 24,0.667ZM15.053,45.837C15.469,45.975 15.853,46.194 16.184,46.48C16.515,46.767 16.786,47.116 16.982,47.508C17.178,47.899 17.295,48.326 17.326,48.762C17.357,49.199 17.302,49.638 17.163,50.053L15.743,54.307C15.416,55.289 14.865,56.181 14.133,56.913L8.61,62.437C8.984,63.142 9.092,63.957 8.915,64.736C8.738,65.514 8.288,66.202 7.647,66.677C7.005,67.151 6.215,67.38 5.419,67.321C4.623,67.263 3.875,66.92 3.31,66.357L1.667,64.713C1.036,64.082 0.681,63.226 0.681,62.333C0.681,61.441 1.036,60.585 1.667,59.953L9.42,52.2L10.837,47.947C10.975,47.531 11.194,47.147 11.48,46.816C11.767,46.485 12.116,46.214 12.508,46.018C12.899,45.822 13.326,45.705 13.763,45.674C14.199,45.643 14.638,45.698 15.053,45.837Z" fill="#FFFFFF"/>
</svg>
