<svg width="222" height="222" viewBox="0 0 222 222" fill="none" xmlns="http://www.w3.org/2000/svg" xmlns:xlink="http://www.w3.org/1999/xlink">
<path d="M106.24,220.954C99.117,220.954 91.937,220.142 84.701,218.518C77.464,216.894 70.073,214.576 62.526,211.562C65.116,185.442 72.672,161.048 85.193,138.381C97.713,115.715 113.796,95.746 133.44,78.476C109.694,90.565 89.13,106.54 71.748,126.4C54.366,146.261 42.225,168.927 35.326,194.4C34.462,193.753 33.651,193.053 32.891,192.302L30.469,189.867C20.323,179.721 12.603,168.388 7.31,155.867C2.017,143.346 -0.626,130.286 -0.617,116.686C-0.617,102.007 2.297,87.975 8.126,74.591C13.954,61.207 22.05,49.334 32.412,38.972C49.897,21.486 72.564,10.101 100.412,4.816C128.259,-0.468 167.333,-0.956 217.631,3.353C221.517,54.946 220.869,94.291 215.689,121.388C210.507,148.484 199.282,170.663 182.012,187.924C171.434,198.502 159.613,206.654 146.548,212.378C133.484,218.104 120.048,220.962 106.24,220.954Z" fill="#70E000"/>
</svg>
