<svg width="82" height="52" viewBox="0 0 82 52" fill="none" xmlns="http://www.w3.org/2000/svg" xmlns:xlink="http://www.w3.org/1999/xlink">
<path d="M63.75,17.75C62.148,17.749 60.554,17.986 59.022,18.453L52.778,7.75L60,7.75C60.332,7.75 60.649,7.882 60.884,8.116C61.118,8.351 61.25,8.668 61.25,9C61.25,9.995 61.645,10.948 62.348,11.652C63.052,12.355 64.005,12.75 65,12.75C65.995,12.75 66.948,12.355 67.652,11.652C68.355,10.948 68.75,9.995 68.75,9C68.75,6.679 67.828,4.454 66.187,2.813C64.546,1.172 62.321,0.25 60,0.25L46.25,0.25C45.592,0.251 44.947,0.425 44.377,0.755C43.808,1.085 43.336,1.558 43.008,2.128C42.679,2.698 42.507,3.344 42.507,4.002C42.507,4.659 42.681,5.305 43.009,5.875L45.553,10.25L34.237,10.25L29.491,2.125C29.162,1.556 28.69,1.083 28.121,0.754C27.552,0.425 26.907,0.251 26.25,0.25L16.25,0.25C15.255,0.25 14.302,0.645 13.598,1.348C12.895,2.052 12.5,3.005 12.5,4C12.5,4.995 12.895,5.948 13.598,6.652C14.302,7.355 15.255,7.75 16.25,7.75L24.097,7.75L27.556,13.688L23.125,19.278C19.507,17.58 15.39,17.271 11.559,18.409C7.727,19.546 4.447,22.052 2.342,25.449C0.236,28.847 -0.548,32.899 0.139,36.837C0.825,40.775 2.934,44.323 6.065,46.807C9.196,49.292 13.13,50.54 17.121,50.314C21.111,50.088 24.88,48.404 27.71,45.582C30.541,42.76 32.236,38.997 32.474,35.007C32.712,31.017 31.475,27.079 29,23.941L31.616,20.637L36.875,29.641C37.104,30.099 37.425,30.505 37.817,30.835C38.21,31.164 38.666,31.41 39.157,31.556C39.648,31.703 40.164,31.747 40.673,31.687C41.181,31.626 41.673,31.462 42.115,31.204C42.558,30.946 42.944,30.6 43.248,30.188C43.552,29.775 43.768,29.305 43.883,28.805C43.998,28.306 44.01,27.788 43.917,27.284C43.824,26.78 43.629,26.301 43.344,25.875L38.612,17.75L49.928,17.75L52.55,22.244C49.818,24.851 48.079,28.329 47.632,32.079C47.186,35.829 48.06,39.617 50.103,42.793C52.147,45.969 55.233,48.334 58.831,49.482C62.429,50.629 66.314,50.488 69.819,49.081C73.325,47.675 76.23,45.092 78.037,41.776C79.845,38.459 80.44,34.617 79.722,30.91C79.004,27.202 77.016,23.86 74.102,21.459C71.187,19.057 67.527,17.746 63.75,17.75ZM25,34C25,35.815 24.436,37.585 23.385,39.066C22.335,40.546 20.85,41.663 19.136,42.262C17.423,42.86 15.565,42.911 13.822,42.408C12.078,41.904 10.534,40.87 9.403,39.45C8.273,38.03 7.613,36.293 7.513,34.481C7.414,32.668 7.88,30.87 8.849,29.334C9.817,27.799 11.238,26.603 12.917,25.911C14.595,25.22 16.447,25.067 18.216,25.475L13.309,31.672C12.692,32.452 12.41,33.445 12.524,34.433C12.639,35.421 13.142,36.323 13.922,36.941C14.702,37.558 15.695,37.84 16.683,37.726C17.671,37.611 18.573,37.108 19.191,36.328L24.097,30.131C24.692,31.334 25.001,32.658 25,34ZM63.75,42.75C62.158,42.749 60.597,42.314 59.234,41.492C57.871,40.67 56.759,39.492 56.016,38.084C55.273,36.676 54.928,35.093 55.018,33.504C55.108,31.914 55.631,30.38 56.528,29.066L60.509,35.891C61.026,36.715 61.843,37.306 62.787,37.539C63.731,37.773 64.73,37.63 65.571,37.141C66.412,36.653 67.03,35.856 67.295,34.92C67.56,33.984 67.451,32.982 66.991,32.125L63.006,25.3C63.253,25.278 63.5,25.266 63.75,25.266C66.071,25.266 68.296,26.187 69.937,27.828C71.578,29.469 72.5,31.695 72.5,34.016C72.5,36.336 71.578,38.562 69.937,40.203C68.296,41.844 66.071,42.766 63.75,42.766L63.75,42.75Z" fill="#FFFFFF"/>
</svg>
