<svg width="52" height="48" viewBox="0 0 52 48" fill="none" xmlns="http://www.w3.org/2000/svg" xmlns:xlink="http://www.w3.org/1999/xlink">
<path d="M2.507,22.978L5.174,22.978L5.174,22.978L2.507,22.978ZM25.07,44.241L25.07,41.574L25.07,44.241ZM47.633,22.978L44.966,22.978L44.966,22.978L47.633,22.978ZM25.07,1.715L25.07,-0.952L25.07,1.715ZM27.737,13.528C27.737,12.055 26.543,10.861 25.07,10.861C23.597,10.861 22.403,12.055 22.403,13.528L27.737,13.528ZM22.403,32.428C22.403,33.901 23.597,35.095 25.07,35.095C26.543,35.095 27.737,33.901 27.737,32.428L22.403,32.428ZM-0.16,22.978C-0.16,26.143 0.502,29.273 1.783,32.188L6.666,30.042C5.679,27.797 5.174,25.397 5.174,22.978L-0.16,22.978ZM1.783,32.188C3.064,35.102 4.937,37.739 7.287,39.954L10.944,36.072C9.104,34.338 7.653,32.287 6.666,30.042L1.783,32.188ZM7.287,39.954C9.636,42.168 12.416,43.916 15.466,45.106L17.405,40.138C14.98,39.191 12.785,37.807 10.944,36.072L7.287,39.954ZM15.466,45.106C18.515,46.297 21.778,46.907 25.07,46.907L25.07,41.574C22.436,41.574 19.831,41.085 17.405,40.138L15.466,45.106ZM25.07,46.907C28.362,46.907 31.625,46.297 34.674,45.106L32.735,40.138C30.309,41.085 27.704,41.574 25.07,41.574L25.07,46.907ZM34.674,45.106C37.723,43.916 40.504,42.168 42.853,39.954L39.195,36.072C37.354,37.807 35.16,39.191 32.735,40.138L34.674,45.106ZM42.853,39.954C45.203,37.739 47.076,35.102 48.356,32.188L43.474,30.042C42.487,32.287 41.036,34.338 39.195,36.072L42.853,39.954ZM48.356,32.188C49.638,29.273 50.299,26.143 50.299,22.978L44.966,22.978C44.966,25.397 44.461,27.797 43.474,30.042L48.356,32.188ZM50.299,22.978C50.299,19.813 49.638,16.682 48.356,13.768L43.474,15.914C44.461,18.158 44.966,20.558 44.966,22.978L50.299,22.978ZM48.356,13.768C47.076,10.853 45.203,8.216 42.853,6.002L39.195,9.883C41.036,11.618 42.487,13.669 43.474,15.914L48.356,13.768ZM42.853,6.002C40.504,3.788 37.723,2.039 34.674,0.849L32.735,5.817C35.16,6.764 37.354,8.148 39.195,9.883L42.853,6.002ZM34.674,0.849C31.625,-0.341 28.362,-0.952 25.07,-0.952L25.07,4.381C27.704,4.381 30.309,4.87 32.735,5.817L34.674,0.849ZM25.07,-0.952C21.778,-0.952 18.515,-0.341 15.466,0.849L17.405,5.817C19.831,4.87 22.436,4.381 25.07,4.381L25.07,-0.952ZM15.466,0.849C12.416,2.039 9.636,3.788 7.287,6.002L10.944,9.883C12.785,8.148 14.98,6.764 17.405,5.817L15.466,0.849ZM7.287,6.002C4.937,8.216 3.064,10.853 1.783,13.768L6.666,15.914C7.653,13.669 9.104,11.618 10.944,9.883L7.287,6.002ZM1.783,13.768C0.502,16.682 -0.16,19.813 -0.16,22.978L5.174,22.978C5.174,20.558 5.679,18.159 6.666,15.914L1.783,13.768ZM22.403,13.528L22.403,32.428L27.737,32.428L27.737,13.528L22.403,13.528Z" fill="#544C4C"/>
</svg>
