<svg width="44" height="18" viewBox="0 0 44 18" fill="none" xmlns="http://www.w3.org/2000/svg" xmlns:xlink="http://www.w3.org/1999/xlink">
<path d="M2,11L0,11L2,11ZM12,1L12,-1L12,1ZM32,1L32,-1L32,1ZM4,11C4,8.878 4.843,6.843 6.343,5.343L3.515,2.515C1.264,4.765 0,7.817 0,11L4,11ZM6.343,5.343C7.843,3.843 9.878,3 12,3L12,-1C8.817,-1 5.765,0.264 3.515,2.515L6.343,5.343ZM12,3L32,3L32,-1L12,-1L12,3ZM32,3C34.122,3 36.157,3.843 37.657,5.343L40.485,2.515C38.235,0.264 35.183,-1 32,-1L32,3ZM37.657,5.343C39.157,6.843 40,8.878 40,11L44,11C44,7.817 42.736,4.765 40.485,2.515L37.657,5.343ZM40,11C40,11.796 39.684,12.559 39.121,13.121L41.95,15.95C43.263,14.637 44,12.857 44,11L40,11ZM39.121,13.121C38.559,13.684 37.796,14 37,14L37,18C38.857,18 40.637,17.263 41.95,15.95L39.121,13.121ZM37,14L7,14L7,18L37,18L37,14ZM7,14C6.204,14 5.441,13.684 4.879,13.121L2.05,15.95C3.363,17.263 5.143,18 7,18L7,14ZM4.879,13.121C4.316,12.559 4,11.796 4,11L0,11C0,12.857 0.737,14.637 2.05,15.95L4.879,13.121Z" fill="#544C4C"/>
</svg>
