<svg width="180" height="190" viewBox="0 0 180 190" fill="none" xmlns="http://www.w3.org/2000/svg" xmlns:xlink="http://www.w3.org/1999/xlink">
<path d="M90,0C72.2,0 54.799,5.572 39.999,16.01C25.198,26.449 13.663,41.286 6.851,58.645C0.039,76.004 -1.743,95.105 1.729,113.534C5.202,131.962 13.774,148.889 26.36,162.175C38.947,175.461 54.984,184.509 72.442,188.175C89.9,191.84 107.996,189.959 124.442,182.769C140.887,175.578 154.943,163.402 164.832,147.779C174.722,132.156 180,113.789 180,95C180,69.804 170.518,45.641 153.64,27.825C136.761,10.009 113.87,0 90,0ZM77.143,132.932L45,99.004L55.221,88.214L77.143,111.354L124.779,61.071L135.039,71.834L77.143,132.932Z" fill="#FFFFFF"/>
</svg>
