<svg width="54" height="54" viewBox="0 0 54 54" fill="none" xmlns="http://www.w3.org/2000/svg" xmlns:xlink="http://www.w3.org/1999/xlink">
<path d="M19.637,18.5C21.149,16.67 23.438,15.5 26,15.5C28.562,15.5 30.851,16.67 32.363,18.5C33.358,19.707 33.99,21.172 34.185,22.724C34.379,24.277 34.128,25.852 33.461,27.268C32.794,28.683 31.738,29.879 30.416,30.717C29.095,31.554 27.563,31.999 25.999,31.999C24.434,31.999 22.902,31.554 21.581,30.717C20.259,29.879 19.203,28.683 18.536,27.268C17.869,25.852 17.618,24.277 17.812,22.724C18.007,21.172 18.639,19.707 19.634,18.5L19.637,18.5ZM37.25,23.75C37.25,21.854 36.782,20.066 35.954,18.5L48.5,18.5C49.693,18.5 50.838,18.974 51.682,19.818C52.526,20.662 53,21.807 53,23L53,24.5C53,29.261 49.382,34.136 43.055,35.852C42.405,34.684 41.454,33.711 40.302,33.034C39.149,32.357 37.837,32 36.5,32L33.65,32C34.787,30.948 35.694,29.672 36.314,28.252C36.933,26.832 37.252,25.299 37.25,23.75ZM36.5,35C37.091,34.998 37.677,35.114 38.224,35.339C38.771,35.565 39.267,35.896 39.686,36.314C40.104,36.733 40.435,37.229 40.661,37.776C40.886,38.323 41.002,38.909 41,39.5L41,41C41,46.913 35.42,53 26,53C16.58,53 11,46.913 11,41L11,39.5C10.998,38.909 11.114,38.323 11.339,37.776C11.565,37.229 11.896,36.733 12.314,36.314C12.733,35.896 13.229,35.565 13.776,35.339C14.323,35.114 14.909,34.998 15.5,35L36.5,35ZM-1,24.5C-1,29.261 2.618,34.136 8.945,35.852C9.595,34.684 10.546,33.711 11.698,33.034C12.851,32.357 14.163,32 15.5,32L18.35,32C17.213,30.948 16.306,29.672 15.686,28.252C15.067,26.832 14.748,25.299 14.75,23.75C14.75,21.854 15.218,20.066 16.049,18.5L3.5,18.5C2.307,18.5 1.162,18.974 0.318,19.818C-0.526,20.662 -1,21.807 -1,23L-1,24.5ZM22.25,7.25C22.25,5.062 21.381,2.964 19.834,1.416C18.286,-0.131 16.188,-1 14,-1C11.812,-1 9.714,-0.131 8.166,1.416C6.619,2.964 5.75,5.062 5.75,7.25C5.75,9.438 6.619,11.536 8.166,13.084C9.714,14.631 11.812,15.5 14,15.5C16.188,15.5 18.286,14.631 19.834,13.084C21.381,11.536 22.25,9.438 22.25,7.25ZM46.25,7.25C46.25,5.062 45.381,2.964 43.834,1.416C42.286,-0.131 40.188,-1 38,-1C35.812,-1 33.714,-0.131 32.166,1.416C30.619,2.964 29.75,5.062 29.75,7.25C29.75,9.438 30.619,11.536 32.166,13.084C33.714,14.631 35.812,15.5 38,15.5C40.188,15.5 42.286,14.631 43.834,13.084C45.381,11.536 46.25,9.438 46.25,7.25Z" fill="#000000"/>
</svg>
