<svg width="46" height="50" viewBox="0 0 46 50" fill="none" xmlns="http://www.w3.org/2000/svg" xmlns:xlink="http://www.w3.org/1999/xlink">
<path d="M7,17L4.333,17L7,17ZM22,2L22,-0.667L22,2ZM2,36.833C0.527,36.833 -0.667,38.027 -0.667,39.5C-0.667,40.973 0.527,42.167 2,42.167L2,36.833ZM42,42.167C43.473,42.167 44.667,40.973 44.667,39.5C44.667,38.027 43.473,36.833 42,36.833L42,42.167ZM19.5,44.333C18.027,44.333 16.833,45.527 16.833,47C16.833,48.473 18.027,49.667 19.5,49.667L19.5,44.333ZM24.5,49.667C25.973,49.667 27.167,48.473 27.167,47C27.167,45.527 25.973,44.333 24.5,44.333L24.5,49.667ZM9.667,39.5L9.667,17L4.333,17L4.333,39.5L9.667,39.5ZM9.667,17C9.667,13.729 10.966,10.592 13.279,8.279L9.508,4.508C6.195,7.821 4.333,12.314 4.333,17L9.667,17ZM13.279,8.279C15.592,5.966 18.729,4.667 22,4.667L22,-0.667C17.314,-0.667 12.821,1.195 9.508,4.508L13.279,8.279ZM22,4.667C25.271,4.667 28.408,5.966 30.721,8.279L34.492,4.508C31.179,1.195 26.685,-0.667 22,-0.667L22,4.667ZM30.721,8.279C33.034,10.592 34.333,13.729 34.333,17L39.667,17C39.667,12.314 37.805,7.821 34.492,4.508L30.721,8.279ZM34.333,17L34.333,39.5L39.667,39.5L39.667,17L34.333,17ZM7,42.167L37,42.167L37,36.833L7,36.833L7,42.167ZM7,36.833L2,36.833L2,42.167L7,42.167L7,36.833ZM37,42.167L42,42.167L42,36.833L37,36.833L37,42.167ZM19.5,49.667L24.5,49.667L24.5,44.333L19.5,44.333L19.5,49.667Z" fill="#544C4C"/>
</svg>
