<svg width="34" height="28" viewBox="0 0 34 28" fill="none" xmlns="http://www.w3.org/2000/svg" xmlns:xlink="http://www.w3.org/1999/xlink">
<path d="M16.918,17.666C18.189,17.666 19.425,18 20.513,18.637L20.954,18.895C21.289,19.091 21.348,19.549 21.073,19.822L17.308,23.577C17.076,23.808 16.701,23.808 16.47,23.577L12.729,19.846C12.456,19.574 12.513,19.118 12.844,18.921L13.28,18.662C14.379,18.009 15.63,17.666 16.918,17.666Z" fill="#000000"/>
<path d="M16.918,10.768C20.081,10.768 23.117,11.817 25.591,13.76L25.941,14.034C26.219,14.253 26.244,14.666 25.993,14.916L23.745,17.158C23.537,17.365 23.208,17.389 22.972,17.214L22.698,17.01C21.027,15.768 19.013,15.102 16.918,15.102C14.81,15.102 12.784,15.777 11.107,17.033L10.833,17.238C10.597,17.415 10.267,17.392 10.058,17.184L7.811,14.943C7.561,14.693 7.585,14.281 7.862,14.062L8.21,13.787C10.689,11.827 13.74,10.768 16.918,10.768Z" fill="#000000"/>
<path d="M16.918,3.869C21.937,3.869 26.737,5.64 30.537,8.885L30.861,9.162C31.123,9.386 31.138,9.785 30.894,10.028L28.654,12.263C28.437,12.479 28.09,12.494 27.854,12.298L27.577,12.066C24.585,9.565 20.836,8.204 16.918,8.204C12.986,8.204 9.225,9.574 6.229,12.091L5.952,12.324C5.716,12.522 5.369,12.507 5.151,12.29L2.911,10.056C2.667,9.813 2.682,9.414 2.943,9.19L3.266,8.913C7.07,5.65 11.884,3.869 16.918,3.869Z" fill="#000000"/>
</svg>
