<svg width="38" height="28" viewBox="0 0 38 28" fill="none" xmlns="http://www.w3.org/2000/svg" xmlns:xlink="http://www.w3.org/1999/xlink">
<path d="M0.841,8.915C0.54,8.639 0.518,8.17 0.803,7.876C3.068,5.542 5.767,3.668 8.75,2.359C11.959,0.952 15.427,0.229 18.931,0.239C22.436,0.249 25.899,0.991 29.1,2.417C32.076,3.743 34.763,5.633 37.016,7.979C37.299,8.274 37.275,8.743 36.971,9.017L33.69,11.987C33.387,12.261 32.92,12.236 32.634,11.944C30.935,10.206 28.921,8.803 26.697,7.812C24.247,6.721 21.596,6.153 18.914,6.145C16.232,6.138 13.579,6.69 11.123,7.768C8.893,8.746 6.871,10.137 5.162,11.866C4.875,12.157 4.408,12.179 4.106,11.903L0.841,8.915Z" fill="#000000"/>
<path d="M7.633,15.755C7.324,15.489 7.287,15.02 7.568,14.723C8.93,13.283 10.556,12.115 12.361,11.285C14.39,10.351 16.597,9.865 18.83,9.861C21.064,9.857 23.272,10.334 25.304,11.26C27.112,12.084 28.743,13.246 30.111,14.681C30.393,14.976 30.358,15.445 30.049,15.713L27.234,18.151C26.925,18.418 26.46,18.383 26.171,18.094C25.298,17.221 24.274,16.509 23.147,15.996C21.795,15.38 20.326,15.062 18.84,15.065C17.354,15.068 15.887,15.391 14.537,16.012C13.412,16.53 12.391,17.245 11.521,18.121C11.233,18.411 10.767,18.449 10.457,18.182L7.633,15.755Z" fill="#000000"/>
<path d="M24.093,21.651C24.382,21.362 24.384,20.89 24.07,20.629C23.441,20.104 22.734,19.677 21.975,19.363C20.987,18.953 19.929,18.743 18.859,18.743C17.79,18.743 16.732,18.953 15.744,19.363C14.984,19.677 14.278,20.104 13.649,20.629C13.335,20.89 13.337,21.362 13.626,21.651L18.336,26.361C18.625,26.65 19.094,26.65 19.383,26.361L24.093,21.651Z" fill="#000000"/>
</svg>
